<svg xmlns="http://www.w3.org/2000/svg" xmlns:xlink="http://www.w3.org/1999/xlink" style="isolation:isolate" viewBox="0 0 220 180" width="220" height="180"><g><rect x="0" y="0" width="220" height="180" transform="matrix(1,0,0,1,0,0)" fill="none"/><path d=" M 205.434 97.559 L 156.322 137.473 C 152.754 140.372 147.897 139.781 145.482 136.156 L 145.482 136.156 L 145.482 136.156 C 143.066 132.531 143.999 127.234 147.565 124.335 L 189.59 90.181 L 147.405 55.931 C 143.721 52.94 142.821 47.376 145.396 43.51 L 145.396 43.51 C 147.971 39.645 153.051 38.933 156.735 41.924 L 206.581 82.394 C 207.413 83.07 208.104 83.877 208.626 84.776 C 208.636 84.788 208.645 84.802 208.654 84.815 L 208.654 84.815 C 208.861 85.126 209.044 85.449 209.192 85.785 C 209.222 85.823 209.241 85.864 209.242 85.912 C 209.472 86.373 209.638 86.858 209.744 87.357 C 209.804 87.548 209.844 87.742 209.854 87.943 C 209.918 88.183 209.948 88.429 209.972 88.677 C 210.203 91.586 208.994 94.665 206.57 96.636 L 205.434 97.559 L 205.434 97.559 Z  M 14.616 97.56 L 63.727 137.473 C 67.293 140.372 72.15 139.781 74.567 136.156 L 74.567 136.156 C 76.983 132.531 76.052 127.234 72.484 124.335 L 30.459 90.18 L 72.644 55.931 C 76.328 52.94 77.227 47.376 74.653 43.51 L 74.653 43.51 C 72.078 39.645 66.997 38.933 63.316 41.924 L 13.468 82.394 C 12.636 83.07 11.946 83.877 11.424 84.775 C 11.413 84.787 11.404 84.801 11.394 84.815 L 11.394 84.815 C 11.187 85.127 11.004 85.45 10.856 85.787 C 10.827 85.822 10.809 85.86 10.809 85.905 C 10.578 86.369 10.411 86.858 10.304 87.361 C 10.246 87.542 10.208 87.727 10.2 87.918 C 10.133 88.168 10.101 88.424 10.076 88.681 C 9.806 90.804 10.249 92.997 11.459 94.816 L 11.459 94.816 C 12.293 96.067 13.389 96.988 14.616 97.56 L 14.616 97.56 L 14.616 97.56 Z  M 124.836 38.566 L 124.836 38.566 C 128.823 40.47 130.388 46.296 128.323 51.566 L 95.531 135.332 C 93.469 140.603 88.556 143.336 84.566 141.433 L 84.566 141.433 C 80.577 139.529 79.015 133.704 81.076 128.433 L 113.868 44.667 C 115.933 39.397 120.847 36.665 124.836 38.566 Z " fill-rule="evenodd" fill="rgb(38,70,255)"/></g></svg>