<?xml version="1.0" standalone="no"?><!-- Generator: Gravit.io --><svg xmlns="http://www.w3.org/2000/svg" xmlns:xlink="http://www.w3.org/1999/xlink" style="isolation:isolate" viewBox="0 0 30 32" width="30" height="32"><g><linearGradient id="_lgradient_0" x1="0.9999999999999996" y1="0.5000000000000002" x2="0.0046874999999997335" y2="0.4708234687746448" gradientTransform="matrix(30,0,0,11,0,21)" gradientUnits="userSpaceOnUse"><stop offset="1.7391304347826086%" stop-opacity="1" style="stop-color:rgb(4,4,4)"/><stop offset="49.56521739130435%" stop-opacity="1" style="stop-color:rgb(70,70,70)"/><stop offset="98.69565217391305%" stop-opacity="1" style="stop-color:rgb(4,4,4)"/></linearGradient><path d=" M 15.01 31.993 L 15.04 32 L 15.04 31.986 L 30 28.069 L 30 21 L 15.013 24.924 L 1.822 21.479 C 0.816 21.217 0 21.884 0 22.969 L 0 26.892 C 0 27.977 0.825 29.03 1.841 29.242 L 15 31.991 L 15 31.996 L 15.01 31.993 Z " fill-rule="evenodd" fill="url(#_lgradient_0)"/><linearGradient id="_lgradient_1" x1="0.01058806584362141" y1="0.44170233376576334" x2="1.0043205761316873" y2="0.5002545749617214" gradientTransform="matrix(30,0,0,14.829,0,7.58)" gradientUnits="userSpaceOnUse"><stop offset="1.7391304347826086%" stop-opacity="1" style="stop-color:rgb(4,4,4)"/><stop offset="49.130434782608695%" stop-opacity="1" style="stop-color:rgb(70,70,70)"/><stop offset="99.56521739130434%" stop-opacity="1" style="stop-color:rgb(4,4,4)"/><stop offset="99.56521739130434%" stop-opacity="1" style="stop-color:rgb(4,4,4)"/></linearGradient><path d=" M 14.807 18.655 L 14.807 18.658 L 30 22.408 L 30 14.908 L 15.193 11.253 L 15.193 11.25 L 0.368 7.591 C 0.165 7.541 0 7.668 0 7.875 L 0 14.625 C 0 14.832 0.165 15.041 0.368 15.091 L 14.807 18.655 Z " fill-rule="evenodd" fill="url(#_lgradient_1)"/><linearGradient id="_lgradient_2" x1="0" y1="0.4999999999999996" x2="1.0097483407079646" y2="0.5211525751296489" gradientTransform="matrix(30,0,0,11,0,0)" gradientUnits="userSpaceOnUse"><stop offset="0%" stop-opacity="1" style="stop-color:rgb(4,4,4)"/><stop offset="50.13497018704343%" stop-opacity="1.0000000000000002" style="stop-color:rgb(64,64,64)"/><stop offset="98.26086956521739%" stop-opacity="1" style="stop-color:rgb(4,4,4)"/></linearGradient><path d=" M 15 7.333 L 15 7.333 L 30 11 L 30 3.667 L 15 0 L 15 0 L 0.364 3.578 C 0.163 3.627 0 3.831 0 4.033 L 0 10.633 C 0 10.835 0.163 10.96 0.364 10.911 L 15 7.333 Z " fill-rule="evenodd" fill="url(#_lgradient_2)"/></g></svg>