<?xml version="1.0" standalone="no"?><!-- Generator: Gravit.io -->
<svg xmlns:xlink="http://www.w3.org/1999/xlink" xmlns="http://www.w3.org/2000/svg" style="isolation:isolate"
     viewBox="0 0 80 84.002" width="80" height="84.002">
    <defs>
        <clipPath id="_clipPath_a5iTPPEnjeEsPh5SpRXJGX3zC6izerbu">
            <rect width="80" height="84.002"/>
        </clipPath>
    </defs>
    <g clip-path="url(#_clipPath_a5iTPPEnjeEsPh5SpRXJGX3zC6izerbu)">
        <linearGradient id="_lgradient_0" x1="0.01171875" y1="0.457558744948408" x2="0.9905427631578949"
                        y2="0.46431346326279377" gradientTransform="matrix(80,0,0,28.002,0,56)"
                        gradientUnits="userSpaceOnUse">
            <stop offset="26.956521739130434%" stop-opacity="1" style="stop-color:rgb(23,23,23)"/>
            <stop offset="49.56521739130435%" stop-opacity="1" style="stop-color:rgb(64,64,64)"/>
            <stop offset="99.1304347826087%" stop-opacity="1" style="stop-color:rgb(0,0,0)"/>
        </linearGradient>
        <path d=" M 40 84.002 L 4.903 76.982 C 2.197 76.441 0 73.761 0 71.001 L 0 61 C 0 58.24 2.174 56.543 4.851 57.213 L 40 66.001 L 40 84.002 Z  M 40 84.002 L 80 74.001 L 80 56 L 40 66.001 L 40 84.002 Z "
              fill-rule="evenodd" fill="url(#_lgradient_0)"/>
        <linearGradient id="_lgradient_1" x1="-0.009648862092391311" y1="0.481168743607054" x2="1.0144505302687197"
                        y2="0.529767887051682" gradientTransform="matrix(80,0,0,39.789,0,20.213)"
                        gradientUnits="userSpaceOnUse">
            <stop offset="0%" stop-opacity="1" style="stop-color:rgb(4,4,4)"/>
            <stop offset="50%" stop-opacity="1" style="stop-color:rgb(128,128,128)"/>
            <stop offset="98.26086956521739%" stop-opacity="1" style="stop-color:rgb(13,13,13)"/>
        </linearGradient>
        <path d=" M 80 60.002 L 40 50.001 L 40 30 L 80 40.001 L 80 60.002 Z  M 40 50.002 L 0.97 40.244 C 0.435 40.11 0 39.553 0 39.001 L 0 21 C 0 20.448 0.435 20.109 0.97 20.243 L 40 30.001 L 40 50.002 Z "
              fill-rule="evenodd" fill="url(#_lgradient_1)"/>
        <linearGradient id="_lgradient_2" x1="0.003928746204866839" y1="0.5246405612377367" x2="0.9878495933934482"
                        y2="0.5105636230571206" gradientTransform="matrix(80,0,0,30.003,0,0)"
                        gradientUnits="userSpaceOnUse">
            <stop offset="26.521739130434785%" stop-opacity="1" style="stop-color:rgb(23,23,23)"/>
            <stop offset="50.8695652173913%" stop-opacity="1.0000000000000002" style="stop-color:rgb(64,64,64)"/>
            <stop offset="98.69565217391305%" stop-opacity="1" style="stop-color:rgb(4,4,4)"/>
        </linearGradient>
        <path d=" M 40 20.001 L 40 20.002 L 80 30.003 L 80 10.002 L 40 0.001 L 40 0 L 0.97 9.758 C 0.435 9.892 0 10.449 0 11.001 L 0 29.002 C 0 29.554 0.435 29.893 0.97 29.759 L 40 20.001 Z "
              fill-rule="evenodd" fill="url(#_lgradient_2)"/>
    </g>
</svg>