<svg xmlns="http://www.w3.org/2000/svg" xmlns:xlink="http://www.w3.org/1999/xlink" style="isolation:isolate" viewBox="0 0 43 42.896" width="43" height="42.896"><g><path d=" M 41.478 25.029 C 41.464 25.105 41.441 24.961 41.478 25.029 C 41.7 23.821 41.816 22.584 41.816 21.348 C 41.816 18.608 41.28 15.948 40.22 13.445 C 39.197 11.027 37.733 8.855 35.867 6.991 C 34.004 5.126 31.831 3.663 29.415 2.64 C 26.912 1.581 24.253 1.045 21.512 1.045 C 20.795 1.045 19.784 1.129 18.479 1.297 C 18.086 1.348 17.236 1.247 16.838 1.104 C 14.787 0.368 13.181 0 12.021 0 C 8.81 0 5.791 1.25 3.521 3.521 C 1.251 5.792 0 8.81 0 12.021 C 0 13.932 0.46 15.812 1.326 17.5 C 1.386 17.617 1.473 18.104 1.453 18.251 C 1.335 19.1 1.207 20.348 1.207 21.348 C 1.207 24.09 1.743 26.749 2.804 29.253 C 3.825 31.671 5.289 33.842 7.153 35.706 C 9.019 37.571 11.189 39.036 13.609 40.056 C 16.111 41.117 18.771 41.654 21.512 41.654 C 22.35 41.654 23.19 41.601 24.02 41.497 C 24.371 41.453 24.721 41.4 25.068 41.338 C 25 41.3 25.144 41.325 25.068 41.338 C 25.283 41.46 25.501 41.575 25.723 41.683 C 27.354 42.477 29.151 42.896 30.982 42.896 C 34.192 42.896 37.209 41.648 39.479 39.377 C 41.75 37.108 43 34.088 43 30.877 C 43 28.827 42.472 26.811 41.478 25.029 L 41.478 25.029 Z " fill="rgb(255,255,255)"/><path d=" M 21.593 33.784 C 14.379 33.784 11.152 30.237 11.152 27.579 C 11.152 26.216 12.159 25.261 13.546 25.261 C 16.633 25.261 15.833 29.693 21.593 29.693 C 24.542 29.693 26.17 28.092 26.17 26.454 C 26.17 25.468 25.684 24.376 23.742 23.897 L 17.326 22.296 C 12.159 21 11.221 18.206 11.221 15.581 C 11.221 10.129 16.354 8.082 21.175 8.082 C 25.615 8.082 30.85 10.536 30.85 13.807 C 30.85 15.208 29.637 16.023 28.25 16.023 C 25.615 16.023 26.1 12.377 20.793 12.377 C 18.16 12.377 16.702 13.569 16.702 15.276 C 16.702 16.979 18.781 17.523 20.587 17.934 L 25.336 18.988 C 30.538 20.147 31.857 23.184 31.857 26.045 C 31.857 30.476 28.456 33.784 21.593 33.784 Z " fill="rgb(62,57,57)"/></g></svg>