<?xml version="1.0" standalone="no"?><!-- Generator: Gravit.io --><svg xmlns="http://www.w3.org/2000/svg" xmlns:xlink="http://www.w3.org/1999/xlink" style="isolation:isolate" viewBox="0 0 21 22" width="21" height="22"><g><path d=" M 10.489 21.998 L 10.5 22 L 10.5 21.995 L 21 19.276 L 21 14.373 L 10.49 17.095 L 1.273 14.704 C 0.571 14.521 0 14.983 0 15.735 L 0 18.459 C 0 19.211 0.577 19.941 1.287 20.088 L 10.481 21.996 L 10.481 22 L 10.489 21.998 Z " fill-rule="evenodd" fill="rgb(255,255,255)"/><path d=" M 10.547 12.857 L 21 15.401 L 21 10.267 L 10.453 7.7 L 10.453 7.7 L 0.256 5.219 C 0.115 5.184 0 5.271 0 5.413 L 0 10.033 C 0 10.175 0.115 10.318 0.256 10.352 L 10.547 12.857 L 10.547 12.857 Z " fill-rule="evenodd" fill="rgb(255,255,255)"/><path d=" M 10.5 5.134 L 10.5 5.134 L 21 7.701 L 21 2.567 L 10.5 0 L 10.5 0 L 0.255 2.505 C 0.114 2.539 0 2.682 0 2.824 L 0 7.444 C 0 7.586 0.114 7.673 0.255 7.638 L 10.5 5.134 Z " fill-rule="evenodd" fill="rgb(255,255,255)"/></g></svg>