<?xml version="1.0" standalone="no"?><!-- Generator: Gravit.io --><svg xmlns="http://www.w3.org/2000/svg" xmlns:xlink="http://www.w3.org/1999/xlink" style="isolation:isolate" viewBox="473.5 758 1387 1842" width="1387" height="1842"><defs><clipPath id="_clipPath_oIivrYikVkThodXuVAm0gsYYNtEZtZ83"><rect x="473.5" y="758" width="1387" height="1842"/></clipPath></defs><g clip-path="url(#_clipPath_oIivrYikVkThodXuVAm0gsYYNtEZtZ83)"><path d=" M 1233.5 988 L 1239.5 988 L 1244.5 982 L 1246.5 982 L 1246.5 981 L 1250.5 981 L 1257.5 976 L 1262.5 976 L 1262.5 975 L 1269.5 975 L 1269.5 974 L 1274.5 974 L 1277.5 980 L 1282.5 982 L 1282.5 991 L 1284.5 992 L 1292.5 992 L 1297.5 988 L 1298.5 991 L 1299.5 992 L 1304.5 992 L 1308.5 996 L 1308.5 998 L 1311.5 1000 L 1316.5 1000 L 1316.5 994 L 1317.5 990 L 1318.5 990 L 1318.5 985 L 1317.5 985 L 1317.5 984 L 1319.5 982 L 1322.5 982 L 1321.5 981 L 1320.5 976 L 1326.5 970 L 1331.5 969 L 1332.5 965 L 1335.5 960 L 1338.5 959 L 1339.5 957 L 1339.5 953 L 1338.5 952 L 1338.5 950 L 1342.5 945 L 1343.5 942 L 1345.5 941 L 1349.5 939 L 1354.5 939 L 1362.5 941 L 1366.5 941 L 1402.5 931 L 1402.5 949 C 1404.011 949.782 1405.024 951.166 1406.5 952 L 1406.5 952 L 1406.5 952 L 1406.5 952 L 1407.5 951 L 1406.5 946 L 1406.5 942 L 1405.5 941 L 1405.5 939 L 1408.5 936 L 1410.5 936 L 1410.5 935 C 1412.185 935.957 1411.574 932.855 1411.5 932 L 1411.5 932 L 1411.5 932 L 1411.5 932 L 1412.5 932 L 1411.5 931 L 1409.5 930 L 1409.5 928 L 1410.5 926 C 1413.912 923.852 1415.845 920.572 1417.5 917 L 1417.5 917 L 1417.5 917 L 1417.5 917 L 1427.5 911 L 1439.5 901 L 1442.5 905 L 1442.5 908 L 1440.5 910 C 1444.327 912.343 1448.374 914.25 1452.5 916 L 1452.5 916 L 1452.5 916 L 1452.5 916 L 1459.5 912 L 1458.5 910 L 1456.5 911 L 1450.5 910 L 1450.5 905 L 1458.5 899 L 1458.5 894 L 1484.5 880 L 1483.5 886 L 1488.5 883 L 1488.5 880 L 1491.5 881 L 1494.5 883 L 1499.5 881 L 1502.5 885 L 1505.5 888 L 1506.5 887 L 1512.5 887 L 1518.5 876 L 1526.5 869 L 1531.5 867 L 1532.5 871 L 1532.5 875 L 1537.5 880 L 1542.5 880 L 1540.5 886 L 1541.5 889 L 1544.5 897 L 1546.5 903 L 1550.5 907 L 1558.5 909 L 1570.5 913 L 1578.5 927 L 1575.5 929 L 1583.5 930 L 1587.5 927 L 1586.5 933 L 1588.5 936 L 1590.5 934 L 1591.5 934 L 1594.5 941 C 1597.217 943.829 1599.591 946.886 1603.5 948 L 1603.5 948 L 1603.5 948 L 1603.5 948 L 1605.5 947 L 1606.5 944 C 1603.983 941.47 1601.097 938.685 1606.5 939 L 1606.5 939 L 1606.5 939 L 1606.5 939 L 1614.5 937 L 1623.5 933 L 1628.5 929 C 1630.058 930.473 1631.653 931.896 1633.5 933 L 1633.5 933 L 1633.5 933 L 1633.5 933 L 1646.5 942 L 1644.5 948 L 1643.5 953 C 1634.603 958.151 1642.17 964.297 1647.5 969 L 1647.5 969 L 1647.5 969 L 1647.5 969 L 1652.5 971 L 1653.5 974 L 1653.5 978 L 1658.5 979 L 1662.5 981 L 1661.5 985 L 1654.5 992 L 1652.5 993 L 1649.5 997 L 1649.5 1000 C 1647.662 1001.134 1656.342 1005.585 1657.5 1006 L 1657.5 1006 L 1657.5 1006 L 1657.5 1006 L 1660.5 1010 L 1666.5 1015 L 1684.5 1025 L 1693.5 1028 L 1703.5 1028 L 1712.5 1023 L 1716.5 1024 L 1716.5 1028 L 1707.5 1035 L 1714.5 1037 L 1717.5 1043 L 1723.5 1062 L 1723.5 1076 L 1732.5 1092 C 1736.14 1109.64 1737.459 1128.482 1747.5 1144 L 1747.5 1144 L 1747.5 1144 L 1747.5 1144 L 1743.5 1151 L 1739.5 1156 L 1741.5 1170 L 1737.5 1189 L 1729.5 1199 L 1717.5 1208 L 1708.5 1216 L 1711.5 1231 L 1710.5 1240 C 1701.144 1239.593 1710.676 1246.74 1713.5 1249 L 1713.5 1249 L 1713.5 1249 L 1713.5 1249 L 1720.5 1250 L 1732.5 1260 L 1748.5 1269 L 1754.5 1281 L 1768.5 1291 L 1786.5 1304 L 1781.5 1319 L 1785.5 1325 L 1773.5 1341 L 1774.5 1356 L 1782.5 1369 L 1782.5 1373 L 1785.5 1378 L 1793.5 1381 L 1801.5 1385 L 1800.5 1390 L 1798.5 1395 L 1800.5 1400 L 1799.5 1415 L 1801.5 1418 L 1809.5 1424 L 1807.5 1428 L 1806.5 1435 L 1802.5 1443 L 1802.5 1461 L 1800.5 1466 L 1796.5 1473 L 1790.5 1479 L 1787.5 1483 L 1788.5 1491 L 1794.5 1498 C 1796.546 1500.287 1796.417 1503.109 1796.5 1506 L 1796.5 1506 L 1796.5 1506 L 1796.5 1506 L 1797.5 1510 L 1800.5 1514 L 1805.5 1518 C 1807.98 1519.164 1810.034 1520.643 1811.5 1523 L 1811.5 1523 L 1811.5 1523 L 1811.5 1523 L 1812.5 1526 L 1813.5 1529 L 1815.5 1536 L 1812.5 1543 L 1810.5 1548 L 1809.5 1554 L 1812.5 1558 L 1820.5 1563 L 1825.5 1563 L 1834.5 1567 L 1845.5 1572 L 1848.5 1577 L 1848.5 1584 L 1850.5 1596 L 1851.5 1602 L 1854.5 1607 L 1860.5 1615 L 1860.5 1625 L 1857.5 1635 L 1857.5 1648 L 1854.5 1654 C 1854.331 1659.39 1854.622 1664.926 1852.5 1670 L 1852.5 1670 L 1852.5 1670 L 1852.5 1670 L 1848.5 1681 L 1844.5 1696 L 1840.5 1703 L 1835.5 1710 L 1834.5 1717 L 1831.5 1726 L 1822.5 1727 L 1809.5 1720 L 1807.5 1719 L 1807.5 1714 L 1809.5 1709 L 1810.5 1705 L 1806.5 1700 L 1802.5 1704 L 1799.5 1705 L 1798.5 1702 L 1801.5 1697 L 1800.5 1691 L 1795.5 1684 L 1789.5 1683 L 1785.5 1678 L 1784.5 1673 L 1782.5 1674 L 1782.5 1678 L 1775.5 1679 L 1772.5 1681 L 1769.5 1681 L 1767.5 1679 L 1764.5 1677 L 1760.5 1676 L 1754.5 1676 L 1750.5 1680 L 1748.5 1685 L 1745.5 1692 L 1749.5 1694 L 1754.5 1694 L 1754.5 1697 L 1757.5 1701 L 1765.5 1705 L 1768.5 1705 L 1768.5 1710 L 1765.5 1713 L 1758.5 1714 L 1753.5 1714 L 1746.5 1716 L 1740.5 1722 L 1731.5 1728 L 1721.5 1733 L 1716.5 1735 L 1706.5 1735 L 1703.5 1738 L 1701.5 1741 L 1697.5 1741 L 1694.5 1743 L 1694.5 1752 L 1689.5 1755 L 1683.5 1756 L 1677.5 1755 L 1668.5 1759 L 1655.5 1760 L 1645.5 1761 L 1638.5 1767 L 1641.5 1771 L 1640.5 1774 L 1636.5 1778 L 1637.5 1781 L 1635.5 1784 L 1629.5 1789 L 1622.5 1784 L 1617.5 1782 L 1611.5 1786 L 1606.5 1797 L 1598.5 1793 L 1595.5 1797 L 1591.5 1809 L 1587.5 1813 L 1578.5 1815 L 1571.5 1816 L 1564.5 1816 L 1563.5 1822 L 1562.5 1831 L 1555.5 1837 L 1550.5 1837 L 1538.5 1829 L 1533.5 1829 L 1532.5 1831 L 1524.5 1831 L 1515.5 1842 L 1506.5 1841 L 1494.5 1843 L 1490.5 1843 L 1481.5 1849 L 1479.5 1855 L 1476.5 1859 L 1470.5 1862 L 1466.5 1869 L 1462.5 1875 L 1458.5 1883 L 1456.5 1890 L 1458.5 1897 L 1458.5 1900 L 1454.5 1898 L 1452.5 1891 L 1447.5 1883 L 1449.5 1880 L 1448.5 1877 L 1440.5 1876 L 1438.5 1872 L 1438.5 1867 L 1432.5 1863 L 1418.5 1861 L 1418.5 1864 L 1421.5 1866 L 1426.5 1873 L 1425.5 1876 L 1421.5 1882 L 1422.5 1885 L 1426.5 1888 L 1430.5 1891 C 1437.855 1891.804 1438.518 1902.464 1437.5 1908 L 1437.5 1908 L 1437.5 1908 L 1437.5 1908 L 1437.5 1913 L 1441.5 1917 L 1447.5 1924 L 1448.5 1931 L 1472.5 1943 L 1476.5 1946 L 1483.5 1946 L 1483.5 1957 L 1492.5 1963 L 1492.5 1966 L 1490.5 1971 L 1487.5 1978 L 1483.5 1978 L 1481.5 1984 L 1482.5 1991 L 1479.5 1995 L 1475.5 1995 L 1470.5 2001 L 1473.5 2005 L 1475.5 2010 L 1482.5 2017 L 1491.5 2022 L 1491.5 2025 L 1490.5 2029 L 1491.5 2033 L 1500.5 2039 L 1499.5 2045 L 1503.5 2052 L 1506.5 2057 L 1512.5 2058 L 1511.5 2069 L 1514.5 2077 L 1528.5 2086 L 1530.5 2090 L 1534.5 2097 L 1540.5 2101 L 1554.5 2102 L 1554.5 2099 L 1558.5 2098 L 1561.5 2100 L 1565.5 2103 L 1572.5 2108 L 1572.5 2112 L 1575.5 2115 L 1581.5 2122 L 1586.5 2128 L 1594.5 2137 L 1601.5 2149 L 1606.5 2151 L 1613.5 2152 L 1618.5 2152 L 1623.5 2157 L 1631.5 2166 L 1635.5 2171 L 1635.5 2176 L 1636.5 2180 L 1640.5 2184 L 1645.5 2188 L 1652.5 2192 L 1654.5 2191 L 1655.5 2185 L 1658.5 2183 L 1662.5 2185 L 1668.5 2188 L 1671.5 2190 L 1673.5 2195 L 1676.5 2200 L 1680.5 2204 L 1686.5 2205 L 1690.5 2205 L 1702.5 2226 L 1705.5 2230 L 1704.5 2235 L 1701.5 2239 L 1701.5 2244 L 1705.5 2246 L 1704.5 2250 L 1705.5 2255 L 1706.5 2262 L 1704.5 2270 L 1701.5 2277 L 1696.5 2278 L 1693.5 2282 L 1693.5 2285 L 1690.5 2286 L 1687.5 2283 L 1681.5 2278 L 1671.5 2275 L 1661.5 2273 L 1655.5 2275 L 1650.5 2278 L 1648.5 2281 L 1649.5 2284 L 1650.5 2289 L 1651.5 2293 L 1649.5 2297 L 1648.5 2300 L 1648.5 2307 L 1648.5 2312 L 1647.5 2315 L 1646.5 2322 L 1643.5 2325 L 1628.5 2339 L 1624.5 2342 L 1620.5 2343 L 1614.5 2344 L 1606.5 2345 L 1600.5 2347 L 1593.5 2350 L 1589.5 2352 L 1583.5 2354 L 1575.5 2362 L 1559.5 2372 L 1538.5 2394 L 1539.5 2405 L 1556.5 2416 L 1558.5 2431 L 1570.5 2440 L 1581.5 2456 L 1574.5 2473 L 1569.5 2484 L 1573.5 2493 L 1584.5 2492 L 1589.5 2488 L 1597.5 2506 L 1592.5 2521 L 1590.5 2534 L 1594.5 2542 L 1590.5 2545 L 1580.5 2545 L 1566.5 2538 L 1561.5 2531 L 1552.5 2524 L 1557.5 2512 L 1547.5 2504 L 1549.5 2498 L 1546.5 2499 L 1540.5 2499 L 1535.5 2497 L 1528.5 2497 L 1523.5 2498 L 1519.5 2501 L 1515.5 2505 L 1511.5 2508 L 1503.5 2509 L 1499.5 2505 L 1496.5 2503 L 1496.5 2500 L 1494.5 2497 L 1491.5 2494 L 1488.5 2494 L 1484.5 2496 L 1483.5 2497 L 1476.5 2497 L 1470.5 2495 L 1465.5 2497 L 1462.5 2498 L 1461.5 2495 L 1461.5 2493 L 1463.5 2491 L 1463.5 2488 L 1464.5 2487 L 1464.5 2486 L 1460.5 2486 L 1455.5 2490 L 1452.5 2492 L 1450.5 2492 L 1450.5 2496 L 1454.5 2502 L 1455.5 2506 L 1455.5 2511 L 1451.5 2515 L 1451.5 2517 L 1440.5 2517 L 1440.5 2516 L 1410.5 2516 L 1410.5 2517 L 1405.5 2517 L 1400.5 2519 L 1396.5 2520 L 1395.5 2524 L 1394.5 2525 L 1391.5 2524 L 1385.5 2523 L 1368.5 2523 L 1360.5 2522 L 1357.5 2525 L 1354.5 2530 L 1352.5 2536 L 1349.5 2540 L 1346.5 2542 L 1342.5 2543 L 1336.5 2542 L 1329.5 2542 L 1325.5 2544 L 1324.5 2546 L 1320.5 2551 L 1318.5 2553 L 1320.5 2555 L 1323.5 2555 L 1322.5 2557 L 1321.5 2558 L 1316.5 2558 L 1314.5 2558 L 1312.5 2559 L 1311.5 2559 L 1309.5 2561 L 1304.5 2566 L 1301.5 2569 L 1298.5 2570 L 1297.5 2570 L 1297.5 2563 L 1294.5 2562 L 1291.5 2561 L 1287.5 2563 L 1282.5 2565 L 1276.5 2571 C 1273.223 2571.092 1257.134 2576.294 1256.5 2569 L 1256.5 2569 L 1256.5 2569 L 1256.5 2569 L 1255.5 2566 L 1256.5 2562 L 1244.5 2552 L 1241.5 2550 L 1238.5 2549 L 1239.5 2547 L 1241.5 2546 L 1244.5 2544 L 1244.5 2541 L 1237.5 2537 L 1234.5 2537 L 1230.5 2539 L 1226.5 2541 L 1222.5 2542 L 1221.5 2542 L 1219.5 2539 L 1199.5 2531 L 1197.5 2530 L 1192.5 2530 L 1189.5 2531 L 1188.5 2533 L 1185.5 2537 L 1184.5 2538 L 1179.5 2538 L 1174.5 2536 L 1172.5 2534 L 1173.5 2531 L 1172.5 2526 L 1170.5 2526 L 1167.5 2526 L 1164.5 2528 L 1163.5 2530 L 1164.5 2533 L 1165.5 2535 L 1166.5 2538 L 1165.5 2545 L 1164.5 2549 L 1166.5 2550 C 1168.82 2551.16 1168.647 2553.867 1169.5 2556 L 1169.5 2556 L 1169.5 2556 L 1169.5 2556 L 1168.5 2562 L 1168.5 2567 L 1166.5 2568 L 1165.5 2571 L 1163.5 2574 L 1160.5 2576 L 1157.5 2577 L 1155.5 2580 L 1153.5 2584 L 1149.5 2589 L 1144.5 2594 L 1140.5 2596 L 1134.5 2599 L 1125.5 2600 L 1124.5 2600 L 1124.5 2599 L 1129.5 2595 L 1130.5 2590 L 1131.5 2585 L 1132.5 2582 L 1132.5 2576 L 1129.5 2574 L 1126.5 2574 L 1124.5 2575 L 1120.5 2575 L 1117.5 2578 L 1115.5 2577 L 1113.5 2577 L 1110.5 2578 L 1109.5 2572 L 1108.5 2568 L 1111.5 2566 L 1111.5 2562 L 1106.5 2555 L 1102.5 2548 L 1099.5 2548 L 1098.5 2549 L 1097.5 2550 L 1095.5 2550 L 1095.5 2547 L 1093.5 2543 L 1090.5 2540 L 1089.5 2536 L 1088.5 2535 L 1086.5 2535 L 1084.5 2537 L 1080.5 2537 L 1076.5 2536 L 1073.5 2535 L 1070.5 2536 L 1067.5 2534 L 1067.5 2527 L 1064.5 2525 L 1061.5 2523 L 1058.5 2523 L 1056.5 2526 L 1055.5 2526 L 1053.5 2528 L 1051.5 2531 L 1046.5 2538 L 1044.5 2539 L 1032.5 2539 L 1028.5 2538 L 985.5 2512 L 980.5 2507 L 973.5 2506 L 968.5 2506 L 966.5 2504 L 963.5 2502 L 949.5 2501 L 943.5 2501 L 938.5 2500 L 936.5 2500 L 932.5 2502 L 929.5 2505 L 925.5 2505 L 921.5 2506 L 917.5 2506 L 910.5 2500 L 909.5 2499 L 912.5 2499 L 912.5 2496 L 908.5 2493 L 901.5 2489 L 896.5 2489 L 894.5 2492 L 894.5 2495 L 891.5 2494 L 889.5 2496 L 888.5 2492 L 887.5 2489 L 889.5 2486 L 890.5 2481 L 886.5 2479 L 885.5 2479 L 882.5 2477 L 882.5 2475 L 878.5 2471 L 876.5 2471 L 875.5 2473 L 873.5 2475 L 873.5 2479 L 871.5 2477 L 871.5 2472 L 868.5 2469 L 864.5 2469 L 861.5 2469 L 858.5 2471 L 859.5 2472 L 859.5 2475 L 856.5 2475 L 855.5 2476 L 850.5 2476 L 848.5 2476 L 845.5 2479 L 843.5 2482 L 842.5 2485 L 840.5 2488 L 838.5 2489 L 835.5 2490 L 833.5 2492 L 833.5 2495 L 834.5 2499 L 833.5 2502 L 836.5 2504 L 840.5 2506 L 843.5 2509 L 847.5 2510 L 852.5 2509 L 857.5 2505 C 859.926 2504.836 868.827 2502.691 867.5 2508 L 867.5 2508 L 867.5 2508 L 867.5 2508 L 865.5 2508 L 864.5 2510 L 864.5 2512 L 864.5 2516 L 863.5 2519 L 861.5 2518 L 859.5 2514 L 856.5 2511 L 854.5 2511 L 851.5 2512 L 849.5 2513 L 845.5 2515 L 844.5 2516 L 843.5 2518 L 841.5 2520 L 839.5 2521 L 831.5 2521 L 830.5 2520 L 825.5 2520 L 821.5 2519 L 820.5 2516 L 820.5 2513 L 817.5 2511 L 812.5 2510 L 804.5 2510 L 798.5 2512 L 796.5 2514 L 789.5 2517 L 784.5 2523 C 776.785 2523.286 761.312 2529.623 756.5 2520 L 756.5 2520 L 756.5 2520 L 756.5 2520 L 754.5 2517 L 749.5 2516 L 744.5 2516 L 741.5 2514 L 739.5 2516 L 736.5 2520 L 734.5 2522 L 731.5 2525 L 727.5 2525 L 720.5 2526 C 717.243 2525.898 714.473 2524.115 711.5 2523 L 711.5 2523 L 711.5 2523 L 711.5 2523 L 714.5 2520 L 715.5 2517 L 717.5 2514 L 716.5 2512 L 711.5 2514 L 705.5 2514 L 705.5 2510 L 701.5 2507 L 701.5 2504 L 699.5 2501 L 699.5 2499 L 696.5 2495 L 694.5 2493 L 693.5 2487 L 698.5 2483 L 698.5 2476 L 697.5 2470 L 696.5 2468 L 697.5 2466 L 697.5 2463 L 699.5 2460 L 702.5 2457 L 703.5 2456 L 702.5 2445 L 704.5 2443 L 706.5 2439 L 706.5 2434 L 708.5 2431 L 713.5 2426 L 713.5 2416 L 710.5 2410 L 707.5 2404 L 707.5 2390 L 709.5 2386 L 713.5 2381 L 713.5 2375 L 719.5 2369 L 722.5 2364 L 726.5 2358 L 728.5 2353 L 728.5 2347 L 729.5 2343 L 733.5 2341 L 736.5 2338 L 738.5 2334 L 738.5 2331 L 736.5 2327 L 736.5 2317 L 738.5 2313 L 742.5 2306 L 742.5 2299 L 745.5 2296 L 749.5 2294 L 749.5 2290 L 747.5 2286 L 748.5 2278 L 750.5 2269 L 755.5 2264 L 758.5 2259 L 761.5 2259 L 762.5 2257 L 764.5 2257 L 769.5 2251 L 775.5 2245 L 775.5 2237 L 785.5 2237 L 787.5 2230 L 792.5 2228 L 794.5 2227 L 800.5 2217 L 805.5 2205 L 809.5 2198 L 814.5 2190 L 813.5 2188 L 811.5 2186 L 808.5 2184 L 805.5 2185 L 800.5 2183 L 790.5 2179 L 780.5 2173 C 776.982 2170.186 772.858 2168.872 768.5 2168 L 768.5 2168 L 768.5 2168 L 768.5 2168 L 757.5 2168 C 753.739 2166.925 750.183 2165.3 746.5 2164 L 746.5 2164 L 746.5 2164 L 746.5 2164 L 743.5 2164 L 738.5 2167 L 734.5 2165 L 728.5 2165 L 727.5 2166 L 725.5 2166 L 723.5 2165 L 723.5 2163 L 720.5 2159 L 714.5 2157 L 707.5 2155 L 702.5 2146 L 701.5 2142 L 701.5 2137 L 696.5 2136 L 692.5 2136 L 689.5 2132 L 684.5 2132 L 682.5 2133 L 678.5 2134 L 676.5 2139 L 676.5 2141 L 672.5 2141 L 668.5 2144 L 667.5 2146 L 662.5 2145 L 660.5 2144 L 648.5 2144 L 638.5 2137 L 635.5 2136 L 634.5 2138 L 634.5 2143 L 631.5 2144 L 629.5 2142 L 627.5 2138 L 627.5 2129 L 628.5 2127 L 623.5 2127 L 612.5 2120 L 604.5 2120 L 599.5 2118 L 597.5 2119 L 597.5 2123 L 597.5 2130 L 597.5 2132 L 595.5 2134 L 588.5 2131 L 581.5 2131 L 579.5 2129 L 579.5 2125 L 580.5 2119 L 578.5 2116 L 576.5 2117 L 575.5 2116 L 574.5 2109 L 571.5 2108 L 570.5 2103 L 565.5 2098 L 561.5 2093 L 557.5 2089 L 557.5 2085 L 561.5 2086 L 561.5 2081 L 559.5 2078 L 553.5 2071 L 552.5 2065 L 548.5 2061 L 541.5 2057 L 535.5 2055 L 534.5 2053 L 530.5 2053 L 526.5 2057 L 526.5 2046 L 529.5 2036 L 530.5 2027 L 536.5 2021 L 540.5 2014 L 540.5 2005 L 543.5 2006 L 547.5 2004 L 552.5 2000 L 555.5 1999 L 553.5 1992 L 552.5 1989 L 554.5 1987 L 554.5 1981 L 556.5 1976 L 552.5 1974 L 548.5 1971 L 542.5 1972 L 538.5 1970 L 534.5 1968 L 532.5 1965 L 527.5 1962 L 526.5 1963 L 524.5 1963 L 524.5 1961 L 522.5 1958 L 520.5 1956 L 515.5 1953 L 511.5 1946 L 508.5 1937 L 504.5 1932 L 502.5 1934 L 502.5 1930 L 499.5 1923 L 498.5 1915 L 496.5 1911 L 499.5 1908 L 499.5 1906 L 497.5 1906 L 499.5 1897 L 503.5 1892 L 501.5 1891 L 502.5 1885 L 503.5 1884 L 506.5 1884 L 508.5 1881 L 508.5 1876 L 506.5 1872 L 510.5 1869 L 515.5 1865 L 519.5 1865 L 523.5 1863 L 526.5 1861 L 525.5 1858 L 526.5 1854 L 530.5 1852 L 531.5 1853 L 540.5 1853 L 542.5 1851 L 542.5 1844 L 537.5 1834 L 539.5 1831 L 540.5 1825 L 540.5 1819 L 537.5 1816 L 537.5 1811 L 539.5 1809 L 537.5 1808 L 534.5 1807 L 529.5 1807 L 525.5 1803 L 523.5 1804 L 522.5 1805 L 518.5 1805 L 516.5 1801 L 517.5 1798 L 514.5 1798 L 515.5 1795 L 513.5 1791 L 520.5 1786 L 525.5 1783 L 527.5 1779 L 526.5 1776 L 524.5 1775 L 514.5 1773 L 513.5 1770 L 513.5 1768 L 508.5 1759 L 504.5 1753 L 499.5 1749 L 497.5 1749 L 492.5 1751 L 492.5 1744 L 490.5 1742 L 490.5 1737 L 487.5 1732 L 492.5 1729 L 492.5 1722 L 495.5 1720 L 496.5 1721 L 498.5 1721 L 502.5 1717 L 502.5 1710 L 502.5 1705 L 501.5 1702 L 498.5 1702 L 494.5 1699 L 493.5 1697 L 493.5 1691 L 495.5 1688 L 493.5 1686 L 488.5 1686 L 483.5 1685 L 479.5 1685 L 476.5 1687 L 475.5 1681 L 473.5 1676 L 473.5 1670 L 477.5 1670 L 478.5 1672 L 479.5 1674 L 483.5 1674 L 486.5 1674 L 489.5 1670 L 491.5 1666 L 494.5 1663 L 499.5 1660 L 505.5 1656 L 509.5 1654 L 519.5 1648 L 519.5 1646 L 517.5 1643 L 521.5 1640 L 522.5 1639 L 519.5 1638 L 516.5 1636 L 512.5 1639 L 509.5 1641 L 507.5 1641 L 506.5 1637 L 506.5 1629 L 509.5 1625 L 514.5 1620 L 518.5 1613 L 521.5 1607 L 525.5 1605 L 528.5 1601 L 530.5 1597 L 531.5 1592 L 530.5 1588 L 530.5 1583 L 532.5 1576 L 531.5 1568 L 531.5 1558 L 524.5 1550 L 517.5 1539 L 516.5 1534 L 518.5 1527 L 515.5 1523 L 508.5 1520 L 506.5 1518 L 506.5 1515 L 508.5 1512 L 508.5 1509 L 505.5 1506 L 501.5 1504 L 496.5 1504 L 496.5 1502 L 499.5 1500 L 500.5 1499 L 500.5 1491 L 498.5 1488 L 496.5 1486 L 498.5 1484 L 500.5 1483 L 506.5 1483 L 510.5 1480 L 517.5 1478 L 521.5 1479 L 525.5 1480 L 529.5 1482 L 530.5 1478 L 528.5 1476 L 524.5 1471 L 524.5 1469 L 525.5 1468 L 528.5 1470 L 532.5 1474 L 534.5 1475 L 538.5 1477 L 542.5 1477 L 544.5 1476 L 546.5 1480 L 548.5 1482 L 553.5 1483 L 555.5 1484 L 555.5 1488 L 558.5 1487 C 561.819 1487.699 563.267 1487.288 564.5 1484 L 564.5 1484 L 564.5 1484 L 564.5 1484 L 564.5 1480 L 566.5 1480 L 567.5 1481 L 570.5 1482 L 577.5 1482 L 583.5 1477 L 591.5 1474 L 598.5 1472 L 613.5 1472 L 620.5 1468 L 624.5 1463 L 625.5 1460 L 629.5 1457 L 629.5 1451 L 626.5 1447 L 623.5 1444 L 619.5 1442 L 615.5 1439 L 611.5 1438 L 611.5 1433 L 616.5 1431 L 618.5 1426 L 624.5 1422 L 628.5 1421 L 634.5 1421 L 638.5 1415 L 645.5 1409 L 650.5 1407 L 654.5 1401 L 660.5 1396 L 665.5 1393 L 665.5 1390 L 664.5 1387 L 663.5 1379 L 668.5 1370 L 669.5 1364 L 669.5 1359 L 667.5 1354 L 665.5 1350 L 661.5 1344 L 659.5 1338 L 656.5 1338 L 652.5 1341 L 645.5 1342 C 640.53 1341.29 636.119 1338.807 631.5 1337 L 631.5 1337 L 631.5 1337 L 631.5 1337 L 625.5 1337 L 622.5 1335 L 619.5 1332 L 617.5 1327 L 617.5 1316 L 619.5 1316 L 623.5 1314 L 627.5 1312 L 622.5 1305 L 622.5 1302 L 622.5 1297 L 627.5 1294 L 633.5 1293 L 639.5 1293 L 645.5 1294 L 650.5 1297 L 653.5 1297 L 660.5 1296 L 663.5 1298 L 667.5 1299 L 670.5 1294 L 672.5 1289 L 673.5 1279 L 674.5 1268 L 676.5 1253 L 680.5 1241 L 688.5 1233 L 694.5 1220 L 699.5 1207 L 700.5 1187 L 695.5 1176 L 701.5 1164 L 700.5 1148 L 706.5 1142 L 706.5 1136 L 711.5 1133 L 717.5 1134 L 723.5 1139 L 726.5 1138 L 724.5 1131 L 716.5 1127 L 707.5 1126 L 698.5 1125 L 685.5 1124 L 680.5 1123 L 678.5 1116 L 677.5 1104 L 685.5 1082 L 692.5 1085 L 697.5 1078 L 693.5 1071 L 689.5 1069 L 693.5 1063 L 700.5 1058 L 710.5 1050 L 721.5 1044 L 731.5 1045 L 743.5 1044 L 748.5 1048 L 758.5 1047 L 809.5 1040 L 817.5 1041 L 823.5 1044 L 822.5 1048 L 820.5 1052 L 823.5 1056 L 829.5 1067 L 836.5 1073 L 834.5 1076 L 840.5 1080 L 840.5 1086 L 835.5 1089 L 828.5 1089 L 825.5 1092 L 825.5 1095 L 827.5 1100 L 830.5 1107 L 837.5 1106 L 841.5 1109 L 844.5 1114 L 849.5 1117 L 857.5 1116 L 861.5 1110 L 864.5 1103 L 865.5 1096 L 865.5 1091 L 860.5 1085 L 853.5 1086 L 853.5 1080 L 856.5 1073 L 857.5 1067 L 866.5 1068 L 870.5 1073 L 878.5 1080 L 891.5 1083 L 895.5 1085 L 892.5 1089 L 888.5 1093 L 886.5 1100 L 885.5 1113 L 886.5 1124 L 890.5 1133 L 893.5 1115 L 891.5 1110 L 891.5 1102 L 894.5 1097 L 899.5 1091 L 902.5 1084 L 898.5 1075 L 893.5 1062 L 891.5 1053 L 890.5 1045 L 896.5 1033 L 899.5 1023 L 901.5 1016 L 905.5 1007 L 911.5 1003 L 917.5 1002 L 922.5 1007 L 928.5 1013 L 938.5 1015 L 943.5 1017 L 951.5 1017 L 962.5 1015 L 966.5 1015 L 975.5 1010 L 1002.5 1010 L 1005.5 1012 L 1007.5 1017 L 1010.5 1024 L 1015.5 1032 L 1021.5 1042 L 1027.5 1050 L 1031.5 1052 L 1032.5 1058 L 1033.5 1061 L 1037.5 1066 L 1041.5 1072 L 1045.5 1078 L 1052.5 1079 L 1056.5 1082 L 1063.5 1086 L 1071.5 1087 L 1079.5 1089 L 1084.5 1088 L 1083.5 1085 L 1078.5 1081 L 1073.5 1078 L 1067.5 1078 L 1064.5 1078 L 1060.5 1077 L 1058.5 1076 L 1054.5 1073 L 1048.5 1070 L 1043.5 1065 L 1042.5 1059 L 1041.5 1050 L 1040.5 1044 L 1034.5 1041 L 1030.5 1039 L 1025.5 1034 L 1023.5 1028 L 1022.5 1021 L 1021.5 1016 L 1015.5 1012 L 1008.5 1008 L 1001.5 1002 L 991.5 1000 L 986.5 999 L 976.5 1000 L 971.5 998 L 965.5 997 L 963.5 1000 L 961.5 998 L 956.5 994 L 946.5 974 L 944.5 970 L 943.5 967 L 947.5 964 L 951.5 965 L 954.5 968 L 958.5 970 L 962.5 971 L 967.5 967 L 968.5 959 L 968.5 950 L 964.5 946 L 962.5 939 L 955.5 938 L 951.5 939 L 945.5 944 L 944.5 937 L 940.5 932 L 941.5 929 L 946.5 919 L 944.5 915 L 946.5 912 L 950.5 911 L 955.5 912 L 957.5 908 L 962.5 900 L 961.5 897 L 959.5 897 L 952.5 901 L 948.5 900 L 947.5 901 L 942.5 901 L 939.5 904 L 929.5 901 L 925.5 904 L 920.5 907 L 915.5 904 L 912.5 898 L 911.5 891 L 916.5 889 L 922.5 889 L 924.5 890 L 924.5 885 L 918.5 882 L 916.5 881 L 917.5 878 L 921.5 879 L 927.5 877 L 932.5 876 L 951.5 876 L 959.5 870 L 970.5 863 L 969.5 851 L 966.5 846 L 959.5 838 L 952.5 830 L 948.5 826 L 945.5 818 L 942.5 808 L 936.5 804 L 929.5 798 L 926.5 797 L 927.5 790 L 926.5 784 L 922.5 778 L 921.5 775 L 921.5 765 L 924.5 761 L 932.5 761 L 935.5 761 L 940.5 758 L 950.5 758 L 955.5 760 L 964.5 763 L 970.5 767 L 975.5 768 L 981.5 769 L 989.5 770 L 995.5 772 L 997.5 775 L 998.5 780 L 1001.5 784 L 1016.5 784 L 1021.5 780 L 1025.5 783 L 1028.5 783 L 1035.5 781 C 1039.802 777.455 1044.842 775.02 1049.5 772 L 1049.5 772 L 1049.5 772 L 1049.5 772 L 1048.5 776 L 1052.5 779 L 1060.5 781 L 1067.5 781 C 1070.528 784.501 1075.067 785.996 1078.5 789 L 1078.5 789 L 1078.5 789 L 1078.5 789 L 1081.5 796 L 1086.5 796 L 1092.5 794 L 1094.5 793 L 1094.5 789 L 1096.5 788 L 1100.5 790 L 1103.5 795 L 1103.5 800 L 1106.5 805 L 1106.5 807 L 1102.5 808 L 1099.5 810 L 1096.5 812 L 1095.5 816 L 1102.5 815 L 1107.5 816 L 1111.5 819 L 1112.5 826 L 1111.5 834 L 1109.5 842 L 1109.5 846 L 1106.5 850 L 1102.5 854 L 1093.5 858 L 1091.5 859 L 1083.5 859 L 1083.5 863 L 1090.5 867 L 1095.5 867 L 1104.5 864 L 1118.5 862 L 1124.5 859 L 1127.5 859 L 1128.5 862 L 1133.5 865 L 1132.5 874 L 1134.5 879 L 1131.5 883 L 1128.5 886 L 1126.5 887 L 1125.5 890 L 1125.5 892 L 1127.5 893 L 1126.5 896 L 1125.5 900 L 1129.5 900 L 1137.5 889 L 1139.5 885 L 1140.5 879 L 1145.5 877 L 1148.5 875 L 1151.5 872 L 1157.5 873 L 1160.5 874 L 1164.5 878 L 1170.5 882 L 1182.5 886 L 1188.5 889 L 1192.5 892 L 1198.5 897 L 1202.5 901 L 1208.5 903 L 1211.5 904 L 1218.5 903 L 1221.5 900 L 1227.5 896 L 1232.5 891 L 1240.5 887 L 1248.5 888 L 1256.5 891 L 1259.5 898 L 1259.5 907 L 1259.5 916 L 1260.5 924 L 1257.5 928 L 1256.5 932 L 1252.5 935 L 1247.5 937 L 1241.5 942 L 1236.5 947 L 1232.5 951 L 1228.5 953 L 1225.5 954 L 1222.5 952 L 1219.5 956 L 1217.5 959 L 1212.5 966 L 1214.5 973 L 1219.5 979 L 1226.5 981 L 1230.5 980 L 1230.5 987 L 1233.5 988 Z " fill="rgb(174,174,174)"/></g></svg>