<svg xmlns="http://www.w3.org/2000/svg" xmlns:xlink="http://www.w3.org/1999/xlink" style="isolation:isolate" viewBox="-3.5 -0.025 43 43" width="43" height="43"><path d="M 1.278 -0.025 L 34.722 -0.025 C 37.359 -0.025 39.5 2.115 39.5 4.752 L 39.5 38.197 C 39.5 40.834 37.359 42.975 34.722 42.975 L 1.278 42.975 C -1.359 42.975 -3.5 40.834 -3.5 38.197 L -3.5 4.752 C -3.5 2.115 -1.359 -0.025 1.278 -0.025 Z" style="stroke:none;fill:#FFFFFF;stroke-miterlimit:10;"/><clipPath id="_clipPath_lD33ASoyW6Bs8mkLLXYwAFBDmmhfLNq3"><path d="M 1.278 -0.025 L 34.722 -0.025 C 37.359 -0.025 39.5 2.115 39.5 4.752 L 39.5 38.197 C 39.5 40.834 37.359 42.975 34.722 42.975 L 1.278 42.975 C -1.359 42.975 -3.5 40.834 -3.5 38.197 L -3.5 4.752 C -3.5 2.115 -1.359 -0.025 1.278 -0.025 Z" style="stroke:none;fill:#FFFFFF;stroke-miterlimit:10;"/></clipPath><g clip-path="url(#_clipPath_lD33ASoyW6Bs8mkLLXYwAFBDmmhfLNq3)"><path d=" M 27.534 42.975 L 20.85 42.975 L 20.85 25.778 L 15.599 25.778 L 15.599 19.182 L 21.09 19.182 C 21.25 14.173 22.484 10.844 24.796 9.197 L 24.796 9.197 C 26.149 7.912 28.105 7.571 29.908 7.584 L 35.124 7.584 L 35.159 14.756 L 30.732 14.79 C 28.976 15.485 28.049 16.948 27.953 19.182 L 34.815 19.182 L 34.815 25.778 L 27.534 25.778 L 27.534 42.975 Z " fill-rule="evenodd" fill="rgb(62,57,57)"/></g></svg>