<?xml version="1.0" standalone="no"?><!-- Generator: Gravit.io --><svg xmlns="http://www.w3.org/2000/svg" xmlns:xlink="http://www.w3.org/1999/xlink" style="isolation:isolate" viewBox="0 0 275 363.952" width="275" height="363.952"><defs><clipPath id="_clipPath_yTjHr715Nd0Bzo5CEiiViUskI3rg2GGv"><rect width="275" height="363.952"/></clipPath></defs><g clip-path="url(#_clipPath_yTjHr715Nd0Bzo5CEiiViUskI3rg2GGv)"><path d=" M 150.685 45.445 L 151.874 45.445 L 152.865 44.259 L 153.262 44.259 L 153.262 44.062 L 154.057 44.062 L 155.444 43.074 L 156.435 43.074 L 156.435 42.876 L 157.822 42.876 L 157.822 42.679 L 158.814 42.679 L 159.409 43.863 L 160.4 44.259 L 160.4 46.038 L 160.797 46.235 L 162.383 46.235 L 163.374 45.445 L 163.573 46.038 L 163.771 46.235 L 164.761 46.235 L 165.555 47.025 L 165.555 47.42 L 166.15 47.816 L 167.142 47.816 L 167.142 46.63 L 167.34 45.84 L 167.539 45.84 L 167.539 44.851 L 167.34 44.851 L 167.34 44.654 L 167.736 44.259 L 168.331 44.259 L 168.132 44.062 L 167.934 43.074 L 169.124 41.889 L 170.114 41.691 L 170.314 40.9 L 170.909 39.912 L 171.502 39.714 L 171.701 39.319 L 171.701 38.529 L 171.502 38.331 L 171.502 37.936 L 172.296 36.948 L 172.495 36.357 L 172.891 36.158 L 173.685 35.763 L 174.676 35.763 L 176.261 36.158 L 177.055 36.158 L 184.192 34.182 L 184.192 37.739 C 184.492 37.893 184.693 38.167 184.985 38.331 L 184.985 38.331 L 184.985 38.331 L 184.985 38.331 L 185.183 38.134 L 184.985 37.146 L 184.985 36.357 L 184.788 36.158 L 184.788 35.763 L 185.382 35.17 L 185.78 35.17 L 185.78 34.972 C 186.113 35.161 185.991 34.549 185.978 34.38 L 185.978 34.38 L 185.978 34.38 L 185.978 34.38 L 186.175 34.38 L 185.978 34.182 L 185.58 33.985 L 185.58 33.59 L 185.78 33.195 C 186.455 32.771 186.838 32.121 187.167 31.416 L 187.167 31.416 L 187.167 31.416 L 187.167 31.416 L 189.149 30.231 L 191.529 28.254 L 192.124 29.045 L 192.124 29.637 L 191.727 30.033 C 192.485 30.496 193.287 30.872 194.106 31.219 L 194.106 31.219 L 194.106 31.219 L 194.106 31.219 L 195.494 30.429 L 195.296 30.033 L 194.899 30.231 L 193.709 30.033 L 193.709 29.045 L 195.296 27.859 L 195.296 26.871 L 200.45 24.105 L 200.252 25.291 L 201.244 24.698 L 201.244 24.105 L 201.838 24.303 L 202.432 24.698 L 203.424 24.303 L 204.019 25.093 L 204.615 25.686 L 204.813 25.488 L 206.002 25.488 L 207.191 23.315 L 208.778 21.932 L 209.768 21.537 L 209.967 22.327 L 209.967 23.118 L 210.959 24.105 L 211.95 24.105 L 211.554 25.291 L 211.752 25.884 L 212.347 27.465 L 212.744 28.65 L 213.536 29.44 L 215.122 29.835 L 217.502 30.626 L 219.088 33.392 L 218.493 33.787 L 220.079 33.985 L 220.872 33.392 L 220.673 34.578 L 221.07 35.17 L 221.467 34.774 L 221.665 34.774 L 222.26 36.158 C 222.798 36.717 223.269 37.321 224.044 37.542 L 224.044 37.542 L 224.044 37.542 L 224.044 37.542 L 224.441 37.344 L 224.639 36.751 C 224.14 36.252 223.568 35.702 224.639 35.763 L 224.639 35.763 L 224.639 35.763 L 224.639 35.763 L 226.226 35.368 L 228.009 34.578 L 229.001 33.787 C 229.31 34.077 229.627 34.36 229.993 34.578 L 229.993 34.578 L 229.993 34.578 L 229.993 34.578 L 232.57 36.357 L 232.173 37.542 L 231.975 38.529 C 230.211 39.547 231.711 40.762 232.768 41.691 L 232.768 41.691 L 232.768 41.691 L 232.768 41.691 L 233.76 42.085 L 233.957 42.679 L 233.957 43.468 L 234.95 43.666 L 235.742 44.062 L 235.544 44.851 L 234.155 46.235 L 233.76 46.432 L 233.165 47.223 L 233.165 47.816 C 232.801 48.039 234.522 48.919 234.75 49.002 L 234.75 49.002 L 234.75 49.002 L 234.75 49.002 L 235.346 49.791 L 236.536 50.779 L 240.104 52.755 L 241.888 53.348 L 243.872 53.348 L 245.655 52.36 L 246.449 52.557 L 246.449 53.348 L 244.665 54.732 L 246.052 55.126 L 246.647 56.311 L 247.837 60.065 L 247.837 62.832 L 249.621 65.993 C 250.343 69.48 250.604 73.202 252.595 76.268 L 252.595 76.268 L 252.595 76.268 L 252.595 76.268 L 251.803 77.651 L 251.009 78.638 L 251.406 81.405 L 250.613 85.159 L 249.026 87.135 L 246.647 88.914 L 244.863 90.494 L 245.457 93.457 L 245.259 95.236 C 243.404 95.155 245.294 96.568 245.854 97.014 L 245.854 97.014 L 245.854 97.014 L 245.854 97.014 L 247.242 97.211 L 249.621 99.188 L 252.793 100.966 L 253.983 103.337 L 256.759 105.313 L 260.327 107.883 L 259.337 110.845 L 260.129 112.031 L 257.75 115.193 L 257.949 118.156 L 259.535 120.725 L 259.535 121.515 L 260.129 122.503 L 261.716 123.095 L 263.303 123.886 L 263.104 124.874 L 262.708 125.861 L 263.104 126.85 L 262.905 129.814 L 263.303 130.406 L 264.888 131.591 L 264.491 132.382 L 264.293 133.765 L 263.5 135.346 L 263.5 138.903 L 263.104 139.891 L 262.31 141.274 L 261.121 142.459 L 260.526 143.249 L 260.724 144.83 L 261.915 146.213 C 262.32 146.666 262.294 147.222 262.31 147.794 L 262.31 147.794 L 262.31 147.794 L 262.31 147.794 L 262.508 148.585 L 263.104 149.374 L 264.095 150.164 C 264.586 150.395 264.995 150.687 265.285 151.153 L 265.285 151.153 L 265.285 151.153 L 265.285 151.153 L 265.483 151.746 L 265.681 152.339 L 266.077 153.722 L 265.483 155.105 L 265.086 156.092 L 264.888 157.279 L 265.483 158.068 L 267.069 159.056 L 268.061 159.056 L 269.844 159.847 L 272.026 160.834 L 272.62 161.822 L 272.62 163.205 L 273.017 165.576 L 273.215 166.762 L 273.81 167.75 L 275 169.331 L 275 171.307 L 274.405 173.282 L 274.405 175.85 L 273.81 177.037 C 273.776 178.102 273.834 179.195 273.413 180.198 L 273.413 180.198 L 273.413 180.198 L 273.413 180.198 L 272.62 182.371 L 271.827 185.336 L 271.034 186.719 L 270.043 188.102 L 269.844 189.485 L 269.25 191.263 L 267.466 191.459 L 264.888 190.076 L 264.491 189.88 L 264.491 188.891 L 264.888 187.904 L 265.086 187.113 L 264.293 186.125 L 263.5 186.916 L 262.905 187.113 L 262.708 186.521 L 263.303 185.533 L 263.104 184.347 L 262.113 182.965 L 260.923 182.767 L 260.129 181.778 L 259.931 180.791 L 259.535 180.988 L 259.535 181.778 L 258.147 181.976 L 257.552 182.371 L 256.957 182.371 L 256.561 181.976 L 255.967 181.581 L 255.174 181.383 L 253.983 181.383 L 253.19 182.174 L 252.793 183.161 L 252.199 184.544 L 252.991 184.94 L 253.983 184.94 L 253.983 185.533 L 254.578 186.323 L 256.164 187.113 L 256.759 187.113 L 256.759 188.102 L 256.164 188.693 L 254.776 188.891 L 253.785 188.891 L 252.396 189.287 L 251.208 190.472 L 249.423 191.659 L 247.439 192.646 L 246.449 193.041 L 244.467 193.041 L 243.872 193.634 L 243.475 194.226 L 242.682 194.226 L 242.087 194.621 L 242.087 196.4 L 241.096 196.992 L 239.906 197.19 L 238.716 196.992 L 236.932 197.783 L 234.354 197.981 L 232.372 198.179 L 230.985 199.364 L 231.579 200.153 L 231.381 200.747 L 230.587 201.537 L 230.785 202.13 L 230.389 202.722 L 229.2 203.711 L 227.811 202.722 L 226.819 202.328 L 225.631 203.118 L 224.639 205.291 L 223.054 204.502 L 222.458 205.291 L 221.665 207.662 L 220.872 208.453 L 219.088 208.847 L 217.7 209.045 L 216.312 209.045 L 216.114 210.23 L 215.915 212.009 L 214.527 213.195 L 213.536 213.195 L 211.157 211.613 L 210.165 211.613 L 209.967 212.009 L 208.381 212.009 L 206.596 214.183 L 204.813 213.985 L 202.432 214.379 L 201.64 214.379 L 199.855 215.565 L 199.46 216.751 L 198.865 217.541 L 197.675 218.134 L 196.881 219.518 L 196.088 220.703 L 195.296 222.284 L 194.899 223.667 L 195.296 225.05 L 195.296 225.642 L 194.503 225.248 L 194.106 223.865 L 193.114 222.284 L 193.511 221.69 L 193.313 221.099 L 191.727 220.901 L 191.33 220.111 L 191.33 219.122 L 190.14 218.332 L 187.365 217.937 L 187.365 218.529 L 187.96 218.924 L 188.95 220.307 L 188.752 220.901 L 187.96 222.086 L 188.158 222.679 L 188.95 223.271 L 189.743 223.865 C 191.203 224.024 191.333 226.129 191.132 227.223 L 191.132 227.223 L 191.132 227.223 L 191.132 227.223 L 191.132 228.21 L 191.926 229.001 L 193.114 230.384 L 193.313 231.767 L 198.072 234.138 L 198.865 234.731 L 200.252 234.731 L 200.252 236.904 L 202.036 238.091 L 202.036 238.683 L 201.64 239.671 L 201.045 241.053 L 200.252 241.053 L 199.855 242.24 L 200.054 243.622 L 199.46 244.413 L 198.667 244.413 L 197.675 245.598 L 198.27 246.389 L 198.667 247.376 L 200.054 248.759 L 201.838 249.747 L 201.838 250.341 L 201.64 251.131 L 201.838 251.921 L 203.622 253.107 L 203.424 254.293 L 204.218 255.675 L 204.813 256.664 L 206.002 256.862 L 205.803 259.035 L 206.398 260.615 L 209.174 262.393 L 209.57 263.184 L 210.365 264.567 L 211.554 265.357 L 214.329 265.555 L 214.329 264.962 L 215.122 264.764 L 215.717 265.159 L 216.511 265.752 L 217.898 266.741 L 217.898 267.53 L 218.493 268.123 L 219.683 269.507 L 220.673 270.692 L 222.26 272.471 L 223.649 274.84 L 224.639 275.237 L 226.027 275.433 L 227.019 275.433 L 228.009 276.422 L 229.596 278.2 L 230.389 279.188 L 230.389 280.176 L 230.587 280.966 L 231.381 281.756 L 232.372 282.548 L 233.76 283.338 L 234.155 283.139 L 234.354 281.955 L 234.95 281.559 L 235.742 281.955 L 236.932 282.548 L 237.526 282.942 L 237.923 283.93 L 238.519 284.918 L 239.311 285.709 L 240.501 285.906 L 241.293 285.906 L 243.673 290.055 L 244.268 290.845 L 244.07 291.833 L 243.475 292.624 L 243.475 293.611 L 244.268 294.007 L 244.07 294.798 L 244.268 295.785 L 244.467 297.169 L 244.07 298.749 L 243.475 300.132 L 242.485 300.33 L 241.888 301.121 L 241.888 301.713 L 241.293 301.91 L 240.699 301.318 L 239.509 300.33 L 237.526 299.737 L 235.544 299.341 L 234.354 299.737 L 233.363 300.33 L 232.967 300.923 L 233.165 301.515 L 233.363 302.503 L 233.561 303.293 L 233.165 304.085 L 232.967 304.676 L 232.967 306.06 L 232.967 307.047 L 232.768 307.641 L 232.57 309.024 L 231.975 309.616 L 229.001 312.382 L 228.208 312.975 L 227.415 313.173 L 226.226 313.37 L 224.639 313.568 L 223.45 313.963 L 222.061 314.556 L 221.268 314.95 L 220.079 315.346 L 218.493 316.927 L 215.32 318.903 L 211.157 323.25 L 211.356 325.423 L 214.726 327.595 L 215.122 330.56 L 217.502 332.339 L 219.683 335.5 L 218.295 338.859 L 217.303 341.032 L 218.097 342.81 L 220.278 342.613 L 221.268 341.823 L 222.854 345.379 L 221.863 348.343 L 221.467 350.912 L 222.26 352.492 L 221.467 353.085 L 219.485 353.085 L 216.708 351.702 L 215.717 350.319 L 213.932 348.936 L 214.924 346.564 L 212.942 344.984 L 213.337 343.798 L 212.744 343.996 L 211.554 343.996 L 210.562 343.6 L 209.174 343.6 L 208.183 343.798 L 207.39 344.392 L 206.596 345.181 L 205.803 345.775 L 204.218 345.972 L 203.424 345.181 L 202.83 344.787 L 202.83 344.193 L 202.432 343.6 L 201.838 343.009 L 201.244 343.009 L 200.45 343.403 L 200.252 343.6 L 198.865 343.6 L 197.675 343.206 L 196.683 343.6 L 196.088 343.798 L 195.89 343.206 L 195.89 342.81 L 196.286 342.415 L 196.286 341.823 L 196.484 341.625 L 196.484 341.427 L 195.692 341.427 L 194.701 342.217 L 194.106 342.613 L 193.709 342.613 L 193.709 343.403 L 194.503 344.589 L 194.701 345.379 L 194.701 346.366 L 193.908 347.158 L 193.908 347.553 L 191.727 347.553 L 191.727 347.355 L 185.78 347.355 L 185.78 347.553 L 184.788 347.553 L 183.796 347.948 L 183.002 348.145 L 182.804 348.936 L 182.606 349.132 L 182.011 348.936 L 180.822 348.738 L 177.45 348.738 L 175.865 348.541 L 175.27 349.132 L 174.676 350.121 L 174.28 351.307 L 173.685 352.097 L 173.09 352.492 L 172.296 352.69 L 171.107 352.492 L 169.719 352.492 L 168.926 352.887 L 168.727 353.283 L 167.934 354.27 L 167.539 354.666 L 167.934 355.06 L 168.529 355.06 L 168.331 355.456 L 168.132 355.653 L 167.142 355.653 L 166.745 355.653 L 166.349 355.852 L 166.15 355.852 L 165.753 356.247 L 164.761 357.235 L 164.167 357.826 L 163.573 358.024 L 163.374 358.024 L 163.374 356.641 L 162.779 356.443 L 162.185 356.247 L 161.391 356.641 L 160.4 357.037 L 159.21 358.222 C 158.562 358.24 155.37 359.269 155.245 357.826 L 155.245 357.826 L 155.245 357.826 L 155.245 357.826 L 155.047 357.235 L 155.245 356.443 L 152.865 354.469 L 152.271 354.073 L 151.676 353.875 L 151.874 353.481 L 152.271 353.283 L 152.865 352.887 L 152.865 352.294 L 151.478 351.504 L 150.883 351.504 L 150.091 351.9 L 149.296 352.294 L 148.504 352.492 L 148.306 352.492 L 147.909 351.9 L 143.944 350.319 L 143.547 350.121 L 142.556 350.121 L 141.962 350.319 L 141.763 350.715 L 141.168 351.504 L 140.97 351.702 L 139.978 351.702 L 138.987 351.307 L 138.591 350.912 L 138.789 350.319 L 138.591 349.331 L 138.194 349.331 L 137.599 349.331 L 137.004 349.726 L 136.806 350.121 L 137.004 350.715 L 137.203 351.109 L 137.401 351.702 L 137.203 353.085 L 137.004 353.875 L 137.401 354.073 C 137.861 354.302 137.826 354.837 137.996 355.258 L 137.996 355.258 L 137.996 355.258 L 137.996 355.258 L 137.797 356.443 L 137.797 357.432 L 137.401 357.63 L 137.203 358.222 L 136.806 358.815 L 136.211 359.209 L 135.617 359.407 L 135.221 360.001 L 134.824 360.792 L 134.03 361.778 L 133.038 362.767 L 132.245 363.162 L 131.056 363.754 L 129.273 363.952 L 129.073 363.952 L 129.073 363.754 L 130.065 362.964 L 130.263 361.975 L 130.462 360.988 L 130.66 360.396 L 130.66 359.209 L 130.065 358.815 L 129.471 358.815 L 129.073 359.012 L 128.281 359.012 L 127.686 359.605 L 127.289 359.407 L 126.892 359.407 L 126.297 359.605 L 126.099 358.42 L 125.901 357.63 L 126.496 357.235 L 126.496 356.443 L 125.504 355.06 L 124.711 353.677 L 124.117 353.677 L 123.919 353.875 L 123.721 354.073 L 123.324 354.073 L 123.324 353.481 L 122.927 352.69 L 122.332 352.097 L 122.135 351.307 L 121.937 351.109 L 121.54 351.109 L 121.142 351.504 L 120.35 351.504 L 119.556 351.307 L 118.961 351.109 L 118.368 351.307 L 117.773 350.912 L 117.773 349.528 L 117.178 349.132 L 116.583 348.738 L 115.988 348.738 L 115.591 349.331 L 115.393 349.331 L 114.996 349.726 L 114.6 350.319 L 113.609 351.702 L 113.212 351.9 L 110.833 351.9 L 110.04 351.702 L 101.514 346.564 L 100.522 345.577 L 99.135 345.379 L 98.144 345.379 L 97.747 344.984 L 97.153 344.589 L 94.376 344.392 L 93.187 344.392 L 92.196 344.193 L 91.799 344.193 L 91.006 344.589 L 90.411 345.181 L 89.618 345.181 L 88.825 345.379 L 88.032 345.379 L 86.644 344.193 L 86.446 343.996 L 87.04 343.996 L 87.04 343.403 L 86.248 342.81 L 84.86 342.021 L 83.868 342.021 L 83.471 342.613 L 83.471 343.206 L 82.876 343.009 L 82.48 343.403 L 82.282 342.613 L 82.084 342.021 L 82.48 341.427 L 82.679 340.44 L 81.885 340.044 L 81.687 340.044 L 81.092 339.649 L 81.092 339.255 L 80.299 338.464 L 79.903 338.464 L 79.704 338.859 L 79.308 339.255 L 79.308 340.044 L 78.912 339.649 L 78.912 338.661 L 78.317 338.068 L 77.524 338.068 L 76.928 338.068 L 76.333 338.464 L 76.533 338.661 L 76.533 339.255 L 75.937 339.255 L 75.738 339.451 L 74.748 339.451 L 74.351 339.451 L 73.756 340.044 L 73.36 340.638 L 73.162 341.23 L 72.766 341.823 L 72.368 342.021 L 71.774 342.217 L 71.378 342.613 L 71.378 343.206 L 71.576 343.996 L 71.378 344.589 L 71.972 344.984 L 72.766 345.379 L 73.36 345.972 L 74.153 346.169 L 75.144 345.972 L 76.135 345.181 C 76.617 345.15 78.382 344.725 78.119 345.775 L 78.119 345.775 L 78.119 345.775 L 78.119 345.775 L 77.722 345.775 L 77.524 346.169 L 77.524 346.564 L 77.524 347.355 L 77.325 347.948 L 76.928 347.75 L 76.533 346.96 L 75.937 346.366 L 75.54 346.366 L 74.946 346.564 L 74.55 346.762 L 73.756 347.158 L 73.558 347.355 L 73.36 347.75 L 72.964 348.145 L 72.568 348.343 L 70.981 348.343 L 70.782 348.145 L 69.791 348.145 L 68.997 347.948 L 68.8 347.355 L 68.8 346.762 L 68.204 346.366 L 67.214 346.169 L 65.628 346.169 L 64.438 346.564 L 64.041 346.96 L 62.653 347.553 L 61.662 348.738 C 60.133 348.795 57.064 350.047 56.11 348.145 L 56.11 348.145 L 56.11 348.145 L 56.11 348.145 L 55.714 347.553 L 54.722 347.355 L 53.732 347.355 L 53.137 346.96 L 52.74 347.355 L 52.146 348.145 L 51.748 348.541 L 51.153 349.132 L 50.361 349.132 L 48.973 349.331 C 48.327 349.31 47.778 348.958 47.189 348.738 L 47.189 348.738 L 47.189 348.738 L 47.189 348.738 L 47.783 348.145 L 47.981 347.553 L 48.379 346.96 L 48.179 346.564 L 47.189 346.96 L 45.999 346.96 L 45.999 346.169 L 45.205 345.577 L 45.205 344.984 L 44.808 344.392 L 44.808 343.996 L 44.214 343.206 L 43.817 342.81 L 43.619 341.625 L 44.61 340.834 L 44.61 339.451 L 44.412 338.266 L 44.214 337.872 L 44.412 337.476 L 44.412 336.883 L 44.808 336.29 L 45.404 335.698 L 45.602 335.5 L 45.404 333.327 L 45.8 332.932 L 46.197 332.141 L 46.197 331.153 L 46.594 330.56 L 47.585 329.572 L 47.585 327.595 L 46.991 326.411 L 46.396 325.225 L 46.396 322.459 L 46.792 321.669 L 47.585 320.681 L 47.585 319.496 L 48.774 318.31 L 49.369 317.322 L 50.162 316.136 L 50.559 315.148 L 50.559 313.963 L 50.757 313.173 L 51.55 312.778 L 52.146 312.184 L 52.542 311.395 L 52.542 310.802 L 52.146 310.012 L 52.146 308.036 L 52.542 307.245 L 53.335 305.862 L 53.335 304.479 L 53.93 303.887 L 54.722 303.491 L 54.722 302.701 L 54.327 301.91 L 54.525 300.33 L 54.92 298.552 L 55.912 297.564 L 56.507 296.575 L 57.102 296.575 L 57.3 296.181 L 57.697 296.181 L 58.688 294.995 L 59.878 293.809 L 59.878 292.229 L 61.861 292.229 L 62.256 290.845 L 63.248 290.45 L 63.644 290.253 L 64.835 288.278 L 65.826 285.906 L 66.619 284.523 L 67.61 282.942 L 67.412 282.548 L 67.015 282.152 L 66.421 281.756 L 65.826 281.955 L 64.835 281.559 L 62.851 280.768 L 60.868 279.584 C 60.172 279.027 59.354 278.767 58.489 278.595 L 58.489 278.595 L 58.489 278.595 L 58.489 278.595 L 56.309 278.595 C 55.563 278.384 54.858 278.062 54.128 277.804 L 54.128 277.804 L 54.128 277.804 L 54.128 277.804 L 53.533 277.804 L 52.542 278.398 L 51.748 278.002 L 50.559 278.002 L 50.361 278.2 L 49.964 278.2 L 49.568 278.002 L 49.568 277.607 L 48.973 276.818 L 47.783 276.422 L 46.396 276.027 L 45.404 274.249 L 45.205 273.458 L 45.205 272.471 L 44.214 272.273 L 43.421 272.273 L 42.827 271.482 L 41.835 271.482 L 41.438 271.679 L 40.646 271.878 L 40.25 272.865 L 40.25 273.261 L 39.456 273.261 L 38.662 273.854 L 38.464 274.249 L 37.474 274.05 L 37.077 273.854 L 34.697 273.854 L 32.715 272.471 L 32.12 272.273 L 31.921 272.667 L 31.921 273.656 L 31.326 273.854 L 30.93 273.458 L 30.533 272.667 L 30.533 270.89 L 30.732 270.495 L 29.741 270.495 L 27.56 269.111 L 25.974 269.111 L 24.982 268.716 L 24.585 268.913 L 24.585 269.705 L 24.585 271.087 L 24.585 271.482 L 24.189 271.878 L 22.801 271.284 L 21.414 271.284 L 21.017 270.89 L 21.017 270.099 L 21.215 268.913 L 20.819 268.321 L 20.422 268.518 L 20.223 268.321 L 20.025 266.939 L 19.43 266.741 L 19.232 265.752 L 18.241 264.764 L 17.448 263.777 L 16.655 262.986 L 16.655 262.195 L 17.448 262.393 L 17.448 261.405 L 17.051 260.813 L 15.863 259.429 L 15.663 258.245 L 14.871 257.453 L 13.482 256.664 L 12.292 256.268 L 12.094 255.873 L 11.302 255.873 L 10.509 256.664 L 10.509 254.49 L 11.103 252.513 L 11.302 250.736 L 12.492 249.55 L 13.284 248.168 L 13.284 246.389 L 13.879 246.586 L 14.673 246.191 L 15.663 245.402 L 16.259 245.204 L 15.863 243.82 L 15.663 243.227 L 16.061 242.832 L 16.061 241.647 L 16.457 240.659 L 15.663 240.264 L 14.871 239.671 L 13.68 239.868 L 12.887 239.474 L 12.094 239.078 L 11.697 238.485 L 10.707 237.893 L 10.509 238.091 L 10.112 238.091 L 10.112 237.695 L 9.715 237.102 L 9.319 236.708 L 8.328 236.115 L 7.534 234.731 L 6.939 232.953 L 6.146 231.965 L 5.75 232.361 L 5.75 231.57 L 5.156 230.187 L 4.957 228.606 L 4.561 227.816 L 5.156 227.223 L 5.156 226.828 L 4.759 226.828 L 5.156 225.05 L 5.948 224.062 L 5.551 223.865 L 5.75 222.679 L 5.948 222.482 L 6.543 222.482 L 6.939 221.888 L 6.939 220.901 L 6.543 220.111 L 7.336 219.518 L 8.328 218.727 L 9.122 218.727 L 9.914 218.332 L 10.509 217.937 L 10.31 217.344 L 10.509 216.554 L 11.302 216.158 L 11.5 216.356 L 13.284 216.356 L 13.68 215.961 L 13.68 214.578 L 12.69 212.601 L 13.085 212.009 L 13.284 210.824 L 13.284 209.639 L 12.69 209.045 L 12.69 208.057 L 13.085 207.662 L 12.69 207.464 L 12.094 207.267 L 11.103 207.267 L 10.31 206.477 L 9.914 206.673 L 9.715 206.873 L 8.923 206.873 L 8.527 206.081 L 8.725 205.489 L 8.13 205.489 L 8.328 204.896 L 7.931 204.106 L 9.319 203.118 L 10.31 202.525 L 10.707 201.735 L 10.509 201.142 L 10.112 200.945 L 8.13 200.549 L 7.931 199.956 L 7.931 199.562 L 6.939 197.783 L 6.146 196.597 L 5.156 195.807 L 4.759 195.807 L 3.768 196.202 L 3.768 194.819 L 3.371 194.424 L 3.371 193.436 L 2.776 192.448 L 3.768 191.855 L 3.768 190.472 L 4.361 190.076 L 4.561 190.275 L 4.957 190.275 L 5.75 189.485 L 5.75 188.102 L 5.75 187.113 L 5.551 186.521 L 4.957 186.521 L 4.164 185.927 L 3.966 185.533 L 3.966 184.347 L 4.361 183.754 L 3.966 183.359 L 2.974 183.359 L 1.983 183.161 L 1.19 183.161 L 0.595 183.557 L 0.397 182.371 L 0 181.383 L 0 180.198 L 0.793 180.198 L 0.992 180.593 L 1.19 180.988 L 1.983 180.988 L 2.578 180.988 L 3.173 180.198 L 3.569 179.408 L 4.164 178.815 L 5.156 178.221 L 6.344 177.431 L 7.138 177.037 L 9.122 175.85 L 9.122 175.455 L 8.725 174.863 L 9.517 174.271 L 9.715 174.073 L 9.122 173.876 L 8.527 173.48 L 7.733 174.073 L 7.138 174.467 L 6.741 174.467 L 6.543 173.677 L 6.543 172.097 L 7.138 171.307 L 8.13 170.319 L 8.923 168.935 L 9.517 167.75 L 10.31 167.356 L 10.905 166.565 L 11.302 165.773 L 11.5 164.786 L 11.302 163.996 L 11.302 163.007 L 11.697 161.624 L 11.5 160.045 L 11.5 158.068 L 10.112 156.488 L 8.725 154.313 L 8.527 153.326 L 8.923 151.943 L 8.328 151.153 L 6.939 150.56 L 6.543 150.164 L 6.543 149.573 L 6.939 148.979 L 6.939 148.387 L 6.344 147.794 L 5.551 147.398 L 4.561 147.398 L 4.561 147.003 L 5.156 146.608 L 5.354 146.411 L 5.354 144.83 L 4.957 144.236 L 4.561 143.842 L 4.957 143.447 L 5.354 143.249 L 6.543 143.249 L 7.336 142.657 L 8.725 142.262 L 9.517 142.459 L 10.31 142.657 L 11.103 143.051 L 11.302 142.262 L 10.905 141.866 L 10.112 140.879 L 10.112 140.483 L 10.31 140.285 L 10.905 140.681 L 11.697 141.47 L 12.094 141.668 L 12.887 142.064 L 13.68 142.064 L 14.077 141.866 L 14.474 142.657 L 14.871 143.051 L 15.863 143.249 L 16.259 143.447 L 16.259 144.236 L 16.853 144.039 C 17.511 144.178 17.799 144.097 18.043 143.447 L 18.043 143.447 L 18.043 143.447 L 18.043 143.447 L 18.043 142.657 L 18.439 142.657 L 18.638 142.854 L 19.232 143.051 L 20.62 143.051 L 21.81 142.064 L 23.396 141.47 L 24.784 141.076 L 27.758 141.076 L 29.146 140.285 L 29.939 139.297 L 30.137 138.705 L 30.93 138.113 L 30.93 136.927 L 30.335 136.137 L 29.741 135.544 L 28.948 135.148 L 28.155 134.555 L 27.361 134.358 L 27.361 133.37 L 28.353 132.975 L 28.75 131.987 L 29.939 131.197 L 30.732 130.999 L 31.921 130.999 L 32.715 129.814 L 34.103 128.627 L 35.094 128.233 L 35.887 127.048 L 37.077 126.059 L 38.067 125.467 L 38.067 124.874 L 37.869 124.282 L 37.671 122.699 L 38.662 120.922 L 38.861 119.737 L 38.861 118.748 L 38.464 117.761 L 38.067 116.971 L 37.275 115.784 L 36.879 114.6 L 36.284 114.6 L 35.491 115.193 L 34.103 115.39 C 33.117 115.249 32.243 114.759 31.326 114.402 L 31.326 114.402 L 31.326 114.402 L 31.326 114.402 L 30.137 114.402 L 29.543 114.007 L 28.948 113.414 L 28.551 112.426 L 28.551 110.252 L 28.948 110.252 L 29.741 109.856 L 30.533 109.462 L 29.543 108.079 L 29.543 107.486 L 29.543 106.499 L 30.533 105.906 L 31.723 105.708 L 32.913 105.708 L 34.103 105.906 L 35.094 106.499 L 35.689 106.499 L 37.077 106.301 L 37.671 106.696 L 38.464 106.894 L 39.059 105.906 L 39.456 104.917 L 39.654 102.942 L 39.853 100.768 L 40.25 97.805 L 41.043 95.434 L 42.628 93.853 L 43.817 91.285 L 44.808 88.716 L 45.007 84.764 L 44.015 82.591 L 45.205 80.22 L 45.007 77.059 L 46.197 75.872 L 46.197 74.688 L 47.189 74.094 L 48.379 74.292 L 49.568 75.28 L 50.162 75.082 L 49.766 73.699 L 48.179 72.909 L 46.396 72.711 L 44.61 72.514 L 42.033 72.316 L 41.043 72.119 L 40.646 70.737 L 40.448 68.365 L 42.033 64.017 L 43.421 64.611 L 44.412 63.227 L 43.619 61.845 L 42.827 61.449 L 43.619 60.263 L 45.007 59.276 L 46.991 57.694 L 49.171 56.509 L 51.153 56.707 L 53.533 56.509 L 54.525 57.3 L 56.507 57.102 L 66.619 55.719 L 68.204 55.917 L 69.394 56.509 L 69.197 57.3 L 68.8 58.09 L 69.394 58.881 L 70.584 61.054 L 71.972 62.239 L 71.576 62.832 L 72.766 63.622 L 72.766 64.809 L 71.774 65.4 L 70.385 65.4 L 69.791 65.993 L 69.791 66.586 L 70.187 67.575 L 70.782 68.957 L 72.17 68.76 L 72.964 69.352 L 73.558 70.341 L 74.55 70.933 L 76.135 70.737 L 76.928 69.55 L 77.524 68.167 L 77.722 66.783 L 77.722 65.796 L 76.73 64.611 L 75.343 64.809 L 75.343 63.622 L 75.937 62.239 L 76.135 61.054 L 77.92 61.251 L 78.714 62.239 L 80.299 63.622 L 82.876 64.215 L 83.67 64.611 L 83.074 65.4 L 82.282 66.191 L 81.885 67.575 L 81.687 70.143 L 81.885 72.316 L 82.679 74.094 L 83.273 70.538 L 82.876 69.55 L 82.876 67.969 L 83.471 66.982 L 84.463 65.796 L 85.058 64.413 L 84.265 62.634 L 83.273 60.065 L 82.876 58.288 L 82.679 56.707 L 83.868 54.336 L 84.463 52.36 L 84.86 50.977 L 85.653 49.2 L 86.842 48.408 L 88.032 48.211 L 89.022 49.2 L 90.212 50.384 L 92.196 50.779 L 93.187 51.174 L 94.773 51.174 L 96.955 50.779 L 97.747 50.779 L 99.532 49.791 L 104.886 49.791 L 105.479 50.187 L 105.876 51.174 L 106.471 52.557 L 107.461 54.139 L 108.651 56.115 L 109.842 57.694 L 110.635 58.09 L 110.833 59.276 L 111.032 59.868 L 111.824 60.856 L 112.617 62.042 L 113.41 63.227 L 114.797 63.425 L 115.591 64.017 L 116.98 64.809 L 118.565 65.005 L 120.151 65.4 L 121.142 65.203 L 120.943 64.611 L 119.953 63.82 L 118.961 63.227 L 117.773 63.227 L 117.178 63.227 L 116.385 63.029 L 115.988 62.832 L 115.194 62.239 L 114.005 61.647 L 113.014 60.659 L 112.815 59.473 L 112.617 57.694 L 112.419 56.509 L 111.229 55.917 L 110.437 55.522 L 109.445 54.534 L 109.048 53.348 L 108.85 51.966 L 108.651 50.977 L 107.461 50.187 L 106.074 49.396 L 104.686 48.211 L 102.704 47.816 L 101.712 47.617 L 99.73 47.816 L 98.738 47.42 L 97.55 47.223 L 97.153 47.816 L 96.755 47.42 L 95.764 46.63 L 93.782 42.679 L 93.386 41.889 L 93.187 41.295 L 93.979 40.702 L 94.773 40.9 L 95.367 41.493 L 96.161 41.889 L 96.955 42.085 L 97.945 41.295 L 98.144 39.714 L 98.144 37.936 L 97.351 37.146 L 96.955 35.763 L 95.566 35.565 L 94.773 35.763 L 93.584 36.751 L 93.386 35.368 L 92.592 34.38 L 92.791 33.787 L 93.782 31.811 L 93.386 31.02 L 93.782 30.429 L 94.574 30.231 L 95.566 30.429 L 95.963 29.637 L 96.955 28.057 L 96.755 27.465 L 96.358 27.465 L 94.971 28.254 L 94.178 28.057 L 93.979 28.254 L 92.988 28.254 L 92.394 28.847 L 90.411 28.254 L 89.618 28.847 L 88.626 29.44 L 87.635 28.847 L 87.04 27.663 L 86.842 26.28 L 87.833 25.884 L 89.022 25.884 L 89.42 26.08 L 89.42 25.093 L 88.23 24.501 L 87.833 24.303 L 88.032 23.71 L 88.825 23.908 L 90.015 23.512 L 91.006 23.315 L 94.773 23.315 L 96.358 22.129 L 98.54 20.747 L 98.342 18.375 L 97.747 17.388 L 96.358 15.807 L 94.971 14.226 L 94.178 13.436 L 93.584 11.855 L 92.988 9.879 L 91.799 9.089 L 90.411 7.903 L 89.817 7.705 L 90.015 6.323 L 89.817 5.138 L 89.022 3.951 L 88.825 3.36 L 88.825 1.383 L 89.42 0.592 L 91.006 0.592 L 91.601 0.592 L 92.592 0 L 94.574 0 L 95.566 0.395 L 97.351 0.988 L 98.54 1.778 L 99.532 1.977 L 100.72 2.174 L 102.307 2.372 L 103.498 2.766 L 103.893 3.36 L 104.091 4.347 L 104.686 5.138 L 107.66 5.138 L 108.651 4.347 L 109.445 4.94 L 110.04 4.94 L 111.427 4.545 C 112.28 3.844 113.28 3.363 114.203 2.766 L 114.203 2.766 L 114.203 2.766 L 114.203 2.766 L 114.005 3.556 L 114.797 4.149 L 116.385 4.545 L 117.773 4.545 C 118.372 5.237 119.273 5.532 119.953 6.126 L 119.953 6.126 L 119.953 6.126 L 119.953 6.126 L 120.548 7.509 L 121.54 7.509 L 122.729 7.113 L 123.126 6.915 L 123.126 6.126 L 123.522 5.928 L 124.315 6.323 L 124.909 7.311 L 124.909 8.299 L 125.504 9.286 L 125.504 9.682 L 124.711 9.879 L 124.117 10.275 L 123.522 10.669 L 123.324 11.46 L 124.711 11.262 L 125.702 11.46 L 126.496 12.053 L 126.694 13.436 L 126.496 15.017 L 126.099 16.597 L 126.099 17.388 L 125.504 18.177 L 124.711 18.969 L 122.927 19.759 L 122.531 19.956 L 120.943 19.956 L 120.943 20.747 L 122.332 21.537 L 123.324 21.537 L 125.108 20.943 L 127.884 20.549 L 129.073 19.956 L 129.668 19.956 L 129.867 20.549 L 130.858 21.142 L 130.66 22.92 L 131.056 23.908 L 130.462 24.698 L 129.867 25.291 L 129.471 25.488 L 129.273 26.08 L 129.273 26.476 L 129.668 26.674 L 129.471 27.267 L 129.273 28.057 L 130.065 28.057 L 131.651 25.884 L 132.047 25.093 L 132.245 23.908 L 133.237 23.512 L 133.832 23.118 L 134.427 22.525 L 135.617 22.722 L 136.211 22.92 L 137.004 23.71 L 138.194 24.501 L 140.573 25.291 L 141.763 25.884 L 142.556 26.476 L 143.745 27.465 L 144.538 28.254 L 145.727 28.65 L 146.323 28.847 L 147.711 28.65 L 148.306 28.057 L 149.496 27.267 L 150.486 26.28 L 152.073 25.488 L 153.66 25.686 L 155.245 26.28 L 155.84 27.663 L 155.84 29.44 L 155.84 31.219 L 156.038 32.799 L 155.444 33.59 L 155.245 34.38 L 154.452 34.972 L 153.46 35.368 L 152.271 36.357 L 151.279 37.344 L 150.486 38.134 L 149.694 38.529 L 149.099 38.727 L 148.504 38.331 L 147.909 39.123 L 147.513 39.714 L 146.522 41.097 L 146.917 42.48 L 147.909 43.666 L 149.296 44.062 L 150.091 43.863 L 150.091 45.247 L 150.685 45.445 Z " fill="rgb(174,174,174)"/></g></svg>