<?xml version="1.0" standalone="no"?><!-- Generator: Gravit.io --><svg xmlns="http://www.w3.org/2000/svg" xmlns:xlink="http://www.w3.org/1999/xlink" style="isolation:isolate" viewBox="0 0 512 512" width="512" height="512"><g><g opacity="0"><rect x="0" y="0" width="512" height="512" transform="matrix(1,0,0,1,0,0)" fill="rgb(38,70,255)"/></g><g><linearGradient id="_lgradient_0" x1="0.9999999999999996" y1="0.5" x2="0.0046874999999997335" y2="0.48930193855070314" gradientTransform="matrix(495.484,0,0,173.292,8.258,334.708)" gradientUnits="userSpaceOnUse"><stop offset="1.7391304347826086%" stop-opacity="1" style="stop-color:rgb(4,4,4)"/><stop offset="49.56521739130435%" stop-opacity="1" style="stop-color:rgb(70,70,70)"/><stop offset="98.69565217391305%" stop-opacity="1" style="stop-color:rgb(4,4,4)"/></linearGradient><path d=" M 256.165 507.89 L 256.661 508 L 256.661 507.779 L 503.742 446.072 L 503.742 334.708 L 256.215 396.526 L 38.35 342.254 C 21.735 338.126 8.258 348.634 8.258 365.727 L 8.258 427.529 C 8.258 444.622 21.884 461.211 38.664 464.551 L 256 507.858 L 256 507.937 L 256.165 507.89 Z " fill-rule="evenodd" fill="url(#_lgradient_0)"/><linearGradient id="_lgradient_1" x1="0.01058806584362141" y1="0.44172774571353035" x2="1.0043205761316873" y2="0.4706701185366925" gradientTransform="matrix(495.484,0,0,233.596,8.258,123.293)" gradientUnits="userSpaceOnUse"><stop offset="1.7391304347826086%" stop-opacity="1" style="stop-color:rgb(4,4,4)"/><stop offset="49.130434782608695%" stop-opacity="1" style="stop-color:rgb(70,70,70)"/><stop offset="99.56521739130434%" stop-opacity="1" style="stop-color:rgb(4,4,4)"/><stop offset="99.56521739130434%" stop-opacity="1" style="stop-color:rgb(4,4,4)"/></linearGradient><path d=" M 252.812 297.765 L 252.812 297.812 L 503.742 356.889 L 503.742 238.735 L 259.188 181.155 L 259.188 181.108 L 14.336 123.464 C 10.983 122.677 8.258 124.677 8.258 127.938 L 8.258 234.277 C 8.258 237.538 10.983 240.831 14.336 241.618 L 252.812 297.765 Z " fill-rule="evenodd" fill="url(#_lgradient_1)"/><linearGradient id="_lgradient_2" x1="0" y1="0.5" x2="1.0097483407079646" y2="0.5077559442142047" gradientTransform="matrix(495.484,0,0,173.292,8.258,3.877)" gradientUnits="userSpaceOnUse"><stop offset="0%" stop-opacity="1" style="stop-color:rgb(4,4,4)"/><stop offset="50.13497018704343%" stop-opacity="1" style="stop-color:rgb(64,64,64)"/><stop offset="98.26086956521739%" stop-opacity="1" style="stop-color:rgb(4,4,4)"/></linearGradient><path d=" M 256 119.4 L 256 119.4 L 503.742 177.169 L 503.742 61.646 L 256 3.877 L 256 3.877 L 14.27 60.244 C 10.95 61.016 8.258 64.23 8.258 67.412 L 8.258 171.388 C 8.258 174.57 10.95 176.539 14.27 175.767 L 256 119.4 Z " fill-rule="evenodd" fill="url(#_lgradient_2)"/></g></g></svg>