<?xml version="1.0" standalone="no"?><!-- Generator: Gravit.io --><svg xmlns="http://www.w3.org/2000/svg" xmlns:xlink="http://www.w3.org/1999/xlink" style="isolation:isolate" viewBox="0 0 30 30" width="30" height="30"><g><path d=" M 3.333 0 L 26.667 0 C 28.506 0 30 1.493 30 3.333 L 30 26.667 C 30 28.506 28.506 30 26.667 30 L 3.333 30 C 1.494 30 0 28.506 0 26.667 L 0 3.333 C 0 1.493 1.494 0 3.333 0 Z " fill="rgb(255,255,255)"/><clipPath id="_clipPath_eSWtkG6ZQHetCdae0JW0Al74UQP2VT6G"><path d=" M 3.333 0 L 26.667 0 C 28.506 0 30 1.493 30 3.333 L 30 26.667 C 30 28.506 28.506 30 26.667 30 L 3.333 30 C 1.494 30 0 28.506 0 26.667 L 0 3.333 C 0 1.493 1.494 0 3.333 0 Z " fill="rgb(255,255,255)"/></clipPath><g clip-path="url(#_clipPath_eSWtkG6ZQHetCdae0JW0Al74UQP2VT6G)"><g><path d=" M 21.652 30 L 16.988 30 L 16.988 18.002 L 13.325 18.002 L 13.325 13.4 L 17.156 13.4 C 17.267 9.906 18.128 7.583 19.741 6.434 L 19.741 6.434 C 20.685 5.537 22.05 5.3 23.308 5.309 L 26.947 5.309 L 26.971 10.312 L 23.883 10.336 C 22.658 10.821 22.011 11.842 21.944 13.4 L 26.731 13.4 L 26.731 18.002 L 21.652 18.002 L 21.652 30 Z " fill-rule="evenodd" fill="rgb(62,57,57)"/></g></g></g></svg>