<?xml version="1.0" standalone="no"?><!-- Generator: Gravit.io --><svg xmlns="http://www.w3.org/2000/svg" xmlns:xlink="http://www.w3.org/1999/xlink" style="isolation:isolate" viewBox="-3.5 -0.025 45 45" width="45" height="45"><path d="M 1.5 -0.025 L 36.5 -0.025 C 39.26 -0.025 41.5 2.215 41.5 4.975 L 41.5 39.975 C 41.5 42.734 39.26 44.975 36.5 44.975 L 1.5 44.975 C -1.26 44.975 -3.5 42.734 -3.5 39.975 L -3.5 4.975 C -3.5 2.215 -1.26 -0.025 1.5 -0.025 Z" style="stroke:none;fill:#FFFFFF;stroke-miterlimit:10;"/><clipPath id="_clipPath_27Soe9H2ylIaYnH3jWXWD3NYsHoYcemx"><path d="M 1.5 -0.025 L 36.5 -0.025 C 39.26 -0.025 41.5 2.215 41.5 4.975 L 41.5 39.975 C 41.5 42.734 39.26 44.975 36.5 44.975 L 1.5 44.975 C -1.26 44.975 -3.5 42.734 -3.5 39.975 L -3.5 4.975 C -3.5 2.215 -1.26 -0.025 1.5 -0.025 Z" style="stroke:none;fill:#FFFFFF;stroke-miterlimit:10;"/></clipPath><g clip-path="url(#_clipPath_27Soe9H2ylIaYnH3jWXWD3NYsHoYcemx)"><path d=" M 28.977 44.975 L 21.983 44.975 L 21.983 26.979 L 16.488 26.979 L 16.488 20.075 L 22.233 20.075 C 22.401 14.833 23.693 11.349 26.112 9.626 L 26.112 9.626 C 27.528 8.281 29.575 7.924 31.462 7.938 L 36.921 7.938 L 36.957 15.443 L 32.324 15.479 C 30.487 16.206 29.517 17.738 29.415 20.075 L 36.597 20.075 L 36.597 26.979 L 28.977 26.979 L 28.977 44.975 Z " fill-rule="evenodd" fill="rgb(0,0,0)"/></g></svg>