<?xml version="1.0" standalone="no"?><!-- Generator: Gravit.io --><svg xmlns="http://www.w3.org/2000/svg" xmlns:xlink="http://www.w3.org/1999/xlink" style="isolation:isolate" viewBox="0 0 323.579 400" width="323.579" height="400"><defs><clipPath id="_clipPath_FShIUsUcKt8iqggu2LYAnpHohNkoLjid"><rect width="323.579" height="400"/></clipPath></defs><g clip-path="url(#_clipPath_FShIUsUcKt8iqggu2LYAnpHohNkoLjid)"><path d=" M 177.304 49.946 L 178.703 49.946 L 179.87 48.643 L 180.336 48.643 L 180.336 48.426 L 181.27 48.426 L 182.903 47.34 L 184.069 47.34 L 184.069 47.123 L 185.702 47.123 L 185.702 46.906 L 186.869 46.906 L 187.568 48.208 L 188.735 48.643 L 188.735 50.597 L 189.202 50.814 L 191.068 50.814 L 192.234 49.946 L 192.468 50.597 L 192.701 50.814 L 193.867 50.814 L 194.801 51.683 L 194.801 52.117 L 195.5 52.552 L 196.667 52.552 L 196.667 51.249 L 196.9 50.38 L 197.134 50.38 L 197.134 49.294 L 196.9 49.294 L 196.9 49.077 L 197.367 48.643 L 198.067 48.643 L 197.833 48.426 L 197.6 47.34 L 199 46.037 L 200.166 45.82 L 200.4 44.951 L 201.1 43.865 L 201.799 43.648 L 202.033 43.214 L 202.033 42.345 L 201.799 42.128 L 201.799 41.694 L 202.733 40.608 L 202.966 39.957 L 203.432 39.739 L 204.366 39.305 L 205.532 39.305 L 207.398 39.739 L 208.332 39.739 L 216.73 37.568 L 216.73 41.477 C 217.083 41.646 217.319 41.947 217.663 42.128 L 217.663 42.128 L 217.663 42.128 L 217.663 42.128 L 217.897 41.911 L 217.663 40.825 L 217.663 39.957 L 217.43 39.739 L 217.43 39.305 L 218.13 38.654 L 218.597 38.654 L 218.597 38.436 C 218.99 38.644 218.847 37.971 218.83 37.785 L 218.83 37.785 L 218.83 37.785 L 218.83 37.785 L 219.063 37.785 L 218.83 37.568 L 218.363 37.351 L 218.363 36.916 L 218.597 36.482 C 219.393 36.016 219.843 35.303 220.23 34.528 L 220.23 34.528 L 220.23 34.528 L 220.23 34.528 L 222.563 33.225 L 225.362 31.053 L 226.062 31.922 L 226.062 32.573 L 225.595 33.008 C 226.488 33.516 227.432 33.93 228.395 34.311 L 228.395 34.311 L 228.395 34.311 L 228.395 34.311 L 230.028 33.442 L 229.795 33.008 L 229.328 33.225 L 227.928 33.008 L 227.928 31.922 L 229.795 30.619 L 229.795 29.533 L 235.86 26.493 L 235.627 27.796 L 236.794 27.144 L 236.794 26.493 L 237.493 26.71 L 238.193 27.144 L 239.36 26.71 L 240.06 27.579 L 240.76 28.23 L 240.993 28.013 L 242.393 28.013 L 243.792 25.624 L 245.659 24.104 L 246.825 23.67 L 247.058 24.539 L 247.058 25.407 L 248.225 26.493 L 249.391 26.493 L 248.925 27.796 L 249.158 28.447 L 249.858 30.185 L 250.325 31.488 L 251.258 32.356 L 253.124 32.79 L 255.924 33.659 L 257.79 36.699 L 257.09 37.134 L 258.956 37.351 L 259.89 36.699 L 259.656 38.002 L 260.123 38.654 L 260.59 38.219 L 260.823 38.219 L 261.523 39.739 C 262.156 40.354 262.71 41.017 263.622 41.26 L 263.622 41.26 L 263.622 41.26 L 263.622 41.26 L 264.089 41.042 L 264.322 40.391 C 263.735 39.842 263.062 39.237 264.322 39.305 L 264.322 39.305 L 264.322 39.305 L 264.322 39.305 L 266.189 38.871 L 268.288 38.002 L 269.455 37.134 C 269.818 37.453 270.19 37.762 270.621 38.002 L 270.621 38.002 L 270.621 38.002 L 270.621 38.002 L 273.654 39.957 L 273.187 41.26 L 272.954 42.345 C 270.879 43.464 272.644 44.799 273.887 45.82 L 273.887 45.82 L 273.887 45.82 L 273.887 45.82 L 275.054 46.254 L 275.287 46.906 L 275.287 47.774 L 276.454 47.991 L 277.387 48.426 L 277.153 49.294 L 275.52 50.814 L 275.054 51.031 L 274.354 51.9 L 274.354 52.552 C 273.925 52.798 275.95 53.764 276.22 53.855 L 276.22 53.855 L 276.22 53.855 L 276.22 53.855 L 276.92 54.723 L 278.32 55.809 L 282.519 57.98 L 284.619 58.632 L 286.952 58.632 L 289.051 57.546 L 289.985 57.763 L 289.985 58.632 L 287.885 60.152 L 289.518 60.586 L 290.218 61.889 L 291.618 66.015 L 291.618 69.055 L 293.717 72.53 C 294.567 76.361 294.874 80.452 297.217 83.822 L 297.217 83.822 L 297.217 83.822 L 297.217 83.822 L 296.284 85.342 L 295.35 86.428 L 295.817 89.468 L 294.884 93.594 L 293.017 95.765 L 290.218 97.72 L 288.118 99.457 L 288.818 102.714 L 288.585 104.669 C 286.402 104.58 288.626 106.133 289.285 106.623 L 289.285 106.623 L 289.285 106.623 L 289.285 106.623 L 290.918 106.84 L 293.717 109.012 L 297.45 110.966 L 298.85 113.572 L 302.116 115.744 L 306.315 118.567 L 305.149 121.824 L 306.082 123.127 L 303.282 126.602 L 303.516 129.859 L 305.382 132.682 L 305.382 133.55 L 306.082 134.636 L 307.948 135.288 L 309.815 136.156 L 309.581 137.242 L 309.115 138.328 L 309.581 139.414 L 309.348 142.671 L 309.815 143.322 L 311.681 144.625 L 311.214 145.494 L 310.981 147.014 L 310.048 148.751 L 310.048 152.66 L 309.581 153.746 L 308.648 155.266 L 307.248 156.569 L 306.548 157.438 L 306.782 159.175 L 308.182 160.695 C 308.659 161.192 308.629 161.804 308.648 162.432 L 308.648 162.432 L 308.648 162.432 L 308.648 162.432 L 308.881 163.301 L 309.581 164.169 L 310.748 165.038 C 311.326 165.291 311.806 165.612 312.148 166.124 L 312.148 166.124 L 312.148 166.124 L 312.148 166.124 L 312.381 166.775 L 312.614 167.427 L 313.081 168.947 L 312.381 170.467 L 311.914 171.553 L 311.681 172.856 L 312.381 173.724 L 314.247 174.81 L 315.414 174.81 L 317.513 175.679 L 320.08 176.764 L 320.779 177.85 L 320.779 179.37 L 321.246 181.976 L 321.479 183.279 L 322.179 184.365 L 323.579 186.102 L 323.579 188.274 L 322.879 190.445 L 322.879 193.268 L 322.179 194.571 C 322.14 195.742 322.208 196.944 321.713 198.046 L 321.713 198.046 L 321.713 198.046 L 321.713 198.046 L 320.779 200.434 L 319.846 203.692 L 318.913 205.212 L 317.747 206.732 L 317.513 208.252 L 316.813 210.206 L 314.714 210.423 L 311.681 208.903 L 311.214 208.686 L 311.214 207.6 L 311.681 206.515 L 311.914 205.646 L 310.981 204.56 L 310.048 205.429 L 309.348 205.646 L 309.115 204.995 L 309.815 203.909 L 309.581 202.606 L 308.415 201.086 L 307.015 200.869 L 306.082 199.783 L 305.849 198.697 L 305.382 198.914 L 305.382 199.783 L 303.749 200 L 303.049 200.434 L 302.349 200.434 L 301.883 200 L 301.183 199.566 L 300.25 199.349 L 298.85 199.349 L 297.917 200.217 L 297.45 201.303 L 296.75 202.823 L 297.683 203.257 L 298.85 203.257 L 298.85 203.909 L 299.55 204.777 L 301.416 205.646 L 302.116 205.646 L 302.116 206.732 L 301.416 207.383 L 299.783 207.6 L 298.616 207.6 L 296.983 208.035 L 295.584 209.338 L 293.484 210.641 L 291.151 211.726 L 289.985 212.161 L 287.652 212.161 L 286.952 212.812 L 286.485 213.464 L 285.552 213.464 L 284.852 213.898 L 284.852 215.852 L 283.686 216.504 L 282.286 216.721 L 280.886 216.504 L 278.786 217.372 L 275.754 217.59 L 273.421 217.807 L 271.788 219.11 L 272.488 219.978 L 272.254 220.63 L 271.321 221.498 L 271.554 222.15 L 271.088 222.801 L 269.688 223.887 L 268.055 222.801 L 266.888 222.367 L 265.489 223.236 L 264.322 225.624 L 262.456 224.756 L 261.756 225.624 L 260.823 228.23 L 259.89 229.099 L 257.79 229.533 L 256.157 229.75 L 254.524 229.75 L 254.291 231.053 L 254.057 233.008 L 252.424 234.311 L 251.258 234.311 L 248.458 232.573 L 247.292 232.573 L 247.058 233.008 L 245.192 233.008 L 243.092 235.396 L 240.993 235.179 L 238.193 235.613 L 237.26 235.613 L 235.16 236.916 L 234.694 238.219 L 233.994 239.088 L 232.594 239.739 L 231.661 241.26 L 230.728 242.562 L 229.795 244.3 L 229.328 245.82 L 229.795 247.34 L 229.795 247.991 L 228.862 247.557 L 228.395 246.037 L 227.228 244.3 L 227.695 243.648 L 227.462 242.997 L 225.595 242.78 L 225.129 241.911 L 225.129 240.825 L 223.729 239.957 L 220.463 239.522 L 220.463 240.174 L 221.163 240.608 L 222.329 242.128 L 222.096 242.78 L 221.163 244.083 L 221.396 244.734 L 222.329 245.385 L 223.262 246.037 C 224.978 246.212 225.133 248.526 224.896 249.729 L 224.896 249.729 L 224.896 249.729 L 224.896 249.729 L 224.896 250.814 L 225.829 251.683 L 227.228 253.203 L 227.462 254.723 L 233.061 257.329 L 233.994 257.98 L 235.627 257.98 L 235.627 260.369 L 237.727 261.672 L 237.727 262.324 L 237.26 263.409 L 236.56 264.929 L 235.627 264.929 L 235.16 266.232 L 235.394 267.752 L 234.694 268.621 L 233.761 268.621 L 232.594 269.924 L 233.294 270.793 L 233.761 271.878 L 235.394 273.398 L 237.493 274.484 L 237.493 275.136 L 237.26 276.004 L 237.493 276.873 L 239.593 278.176 L 239.36 279.479 L 240.293 280.999 L 240.993 282.085 L 242.393 282.302 L 242.159 284.691 L 242.859 286.428 L 246.125 288.382 L 246.592 289.251 L 247.525 290.771 L 248.925 291.64 L 252.191 291.857 L 252.191 291.205 L 253.124 290.988 L 253.824 291.422 L 254.757 292.074 L 256.39 293.16 L 256.39 294.028 L 257.09 294.68 L 258.49 296.2 L 259.656 297.503 L 261.523 299.457 L 263.156 302.063 L 264.322 302.497 L 265.955 302.714 L 267.122 302.714 L 268.288 303.8 L 270.155 305.755 L 271.088 306.84 L 271.088 307.926 L 271.321 308.795 L 272.254 309.663 L 273.421 310.532 L 275.054 311.401 L 275.52 311.183 L 275.754 309.881 L 276.454 309.446 L 277.387 309.881 L 278.786 310.532 L 279.486 310.966 L 279.953 312.052 L 280.653 313.138 L 281.586 314.007 L 282.986 314.224 L 283.919 314.224 L 286.718 318.784 L 287.418 319.653 L 287.185 320.738 L 286.485 321.607 L 286.485 322.693 L 287.418 323.127 L 287.185 323.996 L 287.418 325.081 L 287.652 326.602 L 287.185 328.339 L 286.485 329.859 L 285.319 330.076 L 284.619 330.945 L 284.619 331.596 L 283.919 331.813 L 283.219 331.162 L 281.819 330.076 L 279.486 329.425 L 277.153 328.99 L 275.754 329.425 L 274.587 330.076 L 274.121 330.727 L 274.354 331.379 L 274.587 332.465 L 274.82 333.333 L 274.354 334.202 L 274.121 334.853 L 274.121 336.374 L 274.121 337.459 L 273.887 338.111 L 273.654 339.631 L 272.954 340.282 L 269.455 343.322 L 268.522 343.974 L 267.588 344.191 L 266.189 344.408 L 264.322 344.625 L 262.922 345.06 L 261.289 345.711 L 260.356 346.145 L 258.956 346.58 L 257.09 348.317 L 253.357 350.489 L 248.458 355.266 L 248.692 357.655 L 252.658 360.043 L 253.124 363.301 L 255.924 365.255 L 258.49 368.73 L 256.857 372.421 L 255.69 374.81 L 256.624 376.764 L 259.19 376.547 L 260.356 375.679 L 262.223 379.587 L 261.056 382.845 L 260.59 385.668 L 261.523 387.405 L 260.59 388.056 L 258.257 388.056 L 254.99 386.536 L 253.824 385.016 L 251.724 383.496 L 252.891 380.89 L 250.558 379.153 L 251.024 377.85 L 250.325 378.067 L 248.925 378.067 L 247.758 377.633 L 246.125 377.633 L 244.959 377.85 L 244.026 378.502 L 243.092 379.37 L 242.159 380.022 L 240.293 380.239 L 239.36 379.37 L 238.66 378.936 L 238.66 378.284 L 238.193 377.633 L 237.493 376.982 L 236.794 376.982 L 235.86 377.416 L 235.627 377.633 L 233.994 377.633 L 232.594 377.199 L 231.428 377.633 L 230.728 377.85 L 230.495 377.199 L 230.495 376.764 L 230.961 376.33 L 230.961 375.679 L 231.194 375.461 L 231.194 375.244 L 230.261 375.244 L 229.095 376.113 L 228.395 376.547 L 227.928 376.547 L 227.928 377.416 L 228.862 378.719 L 229.095 379.587 L 229.095 380.673 L 228.162 381.542 L 228.162 381.976 L 225.595 381.976 L 225.595 381.759 L 218.597 381.759 L 218.597 381.976 L 217.43 381.976 L 216.264 382.41 L 215.33 382.628 L 215.097 383.496 L 214.864 383.713 L 214.164 383.496 L 212.764 383.279 L 208.798 383.279 L 206.932 383.062 L 206.232 383.713 L 205.532 384.799 L 205.066 386.102 L 204.366 386.971 L 203.666 387.405 L 202.733 387.622 L 201.333 387.405 L 199.7 387.405 L 198.767 387.839 L 198.533 388.274 L 197.6 389.359 L 197.134 389.794 L 197.6 390.228 L 198.3 390.228 L 198.067 390.662 L 197.833 390.879 L 196.667 390.879 L 196.2 390.879 L 195.734 391.097 L 195.5 391.097 L 195.034 391.531 L 193.867 392.617 L 193.168 393.268 L 192.468 393.485 L 192.234 393.485 L 192.234 391.965 L 191.534 391.748 L 190.835 391.531 L 189.901 391.965 L 188.735 392.4 L 187.335 393.702 C 186.571 393.722 182.817 394.852 182.669 393.268 L 182.669 393.268 L 182.669 393.268 L 182.669 393.268 L 182.436 392.617 L 182.669 391.748 L 179.87 389.577 L 179.17 389.142 L 178.47 388.925 L 178.703 388.491 L 179.17 388.274 L 179.87 387.839 L 179.87 387.188 L 178.237 386.319 L 177.537 386.319 L 176.604 386.754 L 175.67 387.188 L 174.737 387.405 L 174.504 387.405 L 174.037 386.754 L 169.372 385.016 L 168.905 384.799 L 167.738 384.799 L 167.039 385.016 L 166.805 385.451 L 166.105 386.319 L 165.872 386.536 L 164.706 386.536 L 163.539 386.102 L 163.073 385.668 L 163.306 385.016 L 163.073 383.931 L 162.606 383.931 L 161.906 383.931 L 161.206 384.365 L 160.973 384.799 L 161.206 385.451 L 161.44 385.885 L 161.673 386.536 L 161.44 388.056 L 161.206 388.925 L 161.673 389.142 C 162.214 389.394 162.174 389.982 162.373 390.445 L 162.373 390.445 L 162.373 390.445 L 162.373 390.445 L 162.139 391.748 L 162.139 392.834 L 161.673 393.051 L 161.44 393.702 L 160.973 394.354 L 160.273 394.788 L 159.573 395.005 L 159.107 395.657 L 158.64 396.526 L 157.707 397.611 L 156.54 398.697 L 155.607 399.131 L 154.207 399.783 L 152.108 400 L 151.874 400 L 151.874 399.783 L 153.041 398.914 L 153.274 397.828 L 153.508 396.743 L 153.741 396.091 L 153.741 394.788 L 153.041 394.354 L 152.341 394.354 L 151.874 394.571 L 150.941 394.571 L 150.241 395.223 L 149.775 395.005 L 149.308 395.005 L 148.608 395.223 L 148.375 393.92 L 148.142 393.051 L 148.842 392.617 L 148.842 391.748 L 147.675 390.228 L 146.742 388.708 L 146.042 388.708 L 145.809 388.925 L 145.576 389.142 L 145.109 389.142 L 145.109 388.491 L 144.642 387.622 L 143.942 386.971 L 143.709 386.102 L 143.476 385.885 L 143.009 385.885 L 142.543 386.319 L 141.61 386.319 L 140.676 386.102 L 139.976 385.885 L 139.277 386.102 L 138.577 385.668 L 138.577 384.148 L 137.877 383.713 L 137.177 383.279 L 136.477 383.279 L 136.01 383.931 L 135.777 383.931 L 135.311 384.365 L 134.844 385.016 L 133.678 386.536 L 133.211 386.754 L 130.411 386.754 L 129.478 386.536 L 119.447 380.89 L 118.28 379.805 L 116.647 379.587 L 115.481 379.587 L 115.014 379.153 L 114.314 378.719 L 111.048 378.502 L 109.648 378.502 L 108.482 378.284 L 108.015 378.284 L 107.082 378.719 L 106.382 379.37 L 105.449 379.37 L 104.516 379.587 L 103.583 379.587 L 101.95 378.284 L 101.716 378.067 L 102.416 378.067 L 102.416 377.416 L 101.483 376.764 L 99.85 375.896 L 98.683 375.896 L 98.217 376.547 L 98.217 377.199 L 97.517 376.982 L 97.05 377.416 L 96.817 376.547 L 96.584 375.896 L 97.05 375.244 L 97.284 374.159 L 96.35 373.724 L 96.117 373.724 L 95.417 373.29 L 95.417 372.856 L 94.484 371.987 L 94.018 371.987 L 93.784 372.421 L 93.318 372.856 L 93.318 373.724 L 92.851 373.29 L 92.851 372.204 L 92.151 371.553 L 91.218 371.553 L 90.518 371.553 L 89.818 371.987 L 90.052 372.204 L 90.052 372.856 L 89.352 372.856 L 89.118 373.073 L 87.952 373.073 L 87.485 373.073 L 86.785 373.724 L 86.319 374.376 L 86.086 375.027 L 85.619 375.679 L 85.152 375.896 L 84.452 376.113 L 83.986 376.547 L 83.986 377.199 L 84.219 378.067 L 83.986 378.719 L 84.686 379.153 L 85.619 379.587 L 86.319 380.239 L 87.252 380.456 L 88.418 380.239 L 89.585 379.37 C 90.151 379.335 92.228 378.869 91.918 380.022 L 91.918 380.022 L 91.918 380.022 L 91.918 380.022 L 91.451 380.022 L 91.218 380.456 L 91.218 380.89 L 91.218 381.759 L 90.985 382.41 L 90.518 382.193 L 90.052 381.325 L 89.352 380.673 L 88.885 380.673 L 88.185 380.89 L 87.719 381.107 L 86.785 381.542 L 86.552 381.759 L 86.319 382.193 L 85.852 382.628 L 85.386 382.845 L 83.519 382.845 L 83.286 382.628 L 82.12 382.628 L 81.186 382.41 L 80.953 381.759 L 80.953 381.107 L 80.253 380.673 L 79.087 380.456 L 77.22 380.456 L 75.821 380.89 L 75.354 381.325 L 73.721 381.976 L 72.554 383.279 C 70.755 383.341 67.145 384.717 66.022 382.628 L 66.022 382.628 L 66.022 382.628 L 66.022 382.628 L 65.556 381.976 L 64.389 381.759 L 63.223 381.759 L 62.523 381.325 L 62.056 381.759 L 61.356 382.628 L 60.89 383.062 L 60.19 383.713 L 59.257 383.713 L 57.624 383.931 C 56.864 383.908 56.218 383.521 55.524 383.279 L 55.524 383.279 L 55.524 383.279 L 55.524 383.279 L 56.224 382.628 L 56.457 381.976 L 56.924 381.325 L 56.69 380.89 L 55.524 381.325 L 54.124 381.325 L 54.124 380.456 L 53.191 379.805 L 53.191 379.153 L 52.724 378.502 L 52.724 378.067 L 52.025 377.199 L 51.558 376.764 L 51.325 375.461 L 52.491 374.593 L 52.491 373.073 L 52.258 371.77 L 52.025 371.336 L 52.258 370.901 L 52.258 370.25 L 52.724 369.598 L 53.424 368.947 L 53.658 368.73 L 53.424 366.341 L 53.891 365.907 L 54.358 365.038 L 54.358 363.952 L 54.824 363.301 L 55.991 362.215 L 55.991 360.043 L 55.291 358.74 L 54.591 357.438 L 54.591 354.397 L 55.057 353.529 L 55.991 352.443 L 55.991 351.14 L 57.39 349.837 L 58.09 348.751 L 59.023 347.448 L 59.49 346.363 L 59.49 345.06 L 59.723 344.191 L 60.656 343.757 L 61.356 343.105 L 61.823 342.237 L 61.823 341.585 L 61.356 340.717 L 61.356 338.545 L 61.823 337.676 L 62.756 336.156 L 62.756 334.636 L 63.456 333.985 L 64.389 333.55 L 64.389 332.682 L 63.923 331.813 L 64.156 330.076 L 64.622 328.122 L 65.789 327.036 L 66.489 325.95 L 67.189 325.95 L 67.422 325.516 L 67.889 325.516 L 69.055 324.213 L 70.455 322.91 L 70.455 321.173 L 72.788 321.173 L 73.254 319.653 L 74.421 319.218 L 74.887 319.001 L 76.287 316.83 L 77.454 314.224 L 78.387 312.704 L 79.553 310.966 L 79.32 310.532 L 78.853 310.098 L 78.154 309.663 L 77.454 309.881 L 76.287 309.446 L 73.954 308.578 L 71.621 307.275 C 70.801 306.664 69.839 306.378 68.822 306.189 L 68.822 306.189 L 68.822 306.189 L 68.822 306.189 L 66.256 306.189 C 65.378 305.956 64.548 305.603 63.689 305.32 L 63.689 305.32 L 63.689 305.32 L 63.689 305.32 L 62.989 305.32 L 61.823 305.972 L 60.89 305.537 L 59.49 305.537 L 59.257 305.755 L 58.79 305.755 L 58.324 305.537 L 58.324 305.103 L 57.624 304.235 L 56.224 303.8 L 54.591 303.366 L 53.424 301.412 L 53.191 300.543 L 53.191 299.457 L 52.025 299.24 L 51.091 299.24 L 50.392 298.371 L 49.225 298.371 L 48.758 298.588 L 47.825 298.806 L 47.359 299.891 L 47.359 300.326 L 46.426 300.326 L 45.492 300.977 L 45.259 301.412 L 44.093 301.194 L 43.626 300.977 L 40.826 300.977 L 38.494 299.457 L 37.794 299.24 L 37.56 299.674 L 37.56 300.76 L 36.86 300.977 L 36.394 300.543 L 35.927 299.674 L 35.927 297.72 L 36.161 297.286 L 34.994 297.286 L 32.428 295.765 L 30.562 295.765 L 29.395 295.331 L 28.928 295.548 L 28.928 296.417 L 28.928 297.937 L 28.928 298.371 L 28.462 298.806 L 26.829 298.154 L 25.196 298.154 L 24.729 297.72 L 24.729 296.851 L 24.962 295.548 L 24.496 294.897 L 24.029 295.114 L 23.796 294.897 L 23.563 293.377 L 22.863 293.16 L 22.63 292.074 L 21.463 290.988 L 20.53 289.902 L 19.597 289.034 L 19.597 288.165 L 20.53 288.382 L 20.53 287.296 L 20.063 286.645 L 18.664 285.125 L 18.43 283.822 L 17.497 282.953 L 15.864 282.085 L 14.464 281.65 L 14.231 281.216 L 13.298 281.216 L 12.365 282.085 L 12.365 279.696 L 13.064 277.524 L 13.298 275.57 L 14.698 274.267 L 15.631 272.747 L 15.631 270.793 L 16.331 271.01 L 17.264 270.575 L 18.43 269.707 L 19.13 269.49 L 18.664 267.97 L 18.43 267.318 L 18.897 266.884 L 18.897 265.581 L 19.363 264.495 L 18.43 264.061 L 17.497 263.409 L 16.097 263.626 L 15.164 263.192 L 14.231 262.758 L 13.764 262.106 L 12.598 261.455 L 12.365 261.672 L 11.898 261.672 L 11.898 261.238 L 11.431 260.586 L 10.965 260.152 L 9.798 259.501 L 8.865 257.98 L 8.165 256.026 L 7.232 254.94 L 6.766 255.375 L 6.766 254.506 L 6.066 252.986 L 5.832 251.249 L 5.366 250.38 L 6.066 249.729 L 6.066 249.294 L 5.599 249.294 L 6.066 247.34 L 6.999 246.254 L 6.532 246.037 L 6.766 244.734 L 6.999 244.517 L 7.699 244.517 L 8.165 243.865 L 8.165 242.78 L 7.699 241.911 L 8.632 241.26 L 9.798 240.391 L 10.732 240.391 L 11.665 239.957 L 12.365 239.522 L 12.131 238.871 L 12.365 238.002 L 13.298 237.568 L 13.531 237.785 L 15.631 237.785 L 16.097 237.351 L 16.097 235.831 L 14.931 233.659 L 15.397 233.008 L 15.631 231.705 L 15.631 230.402 L 14.931 229.75 L 14.931 228.664 L 15.397 228.23 L 14.931 228.013 L 14.231 227.796 L 13.064 227.796 L 12.131 226.927 L 11.665 227.144 L 11.431 227.362 L 10.498 227.362 L 10.032 226.493 L 10.265 225.841 L 9.565 225.841 L 9.798 225.19 L 9.332 224.321 L 10.965 223.236 L 12.131 222.584 L 12.598 221.716 L 12.365 221.064 L 11.898 220.847 L 9.565 220.413 L 9.332 219.761 L 9.332 219.327 L 8.165 217.372 L 7.232 216.069 L 6.066 215.201 L 5.599 215.201 L 4.433 215.635 L 4.433 214.115 L 3.966 213.681 L 3.966 212.595 L 3.266 211.509 L 4.433 210.858 L 4.433 209.338 L 5.132 208.903 L 5.366 209.121 L 5.832 209.121 L 6.766 208.252 L 6.766 206.732 L 6.766 205.646 L 6.532 204.995 L 5.832 204.995 L 4.899 204.343 L 4.666 203.909 L 4.666 202.606 L 5.132 201.954 L 4.666 201.52 L 3.499 201.52 L 2.333 201.303 L 1.4 201.303 L 0.7 201.737 L 0.467 200.434 L 0 199.349 L 0 198.046 L 0.933 198.046 L 1.166 198.48 L 1.4 198.914 L 2.333 198.914 L 3.033 198.914 L 3.733 198.046 L 4.199 197.177 L 4.899 196.526 L 6.066 195.874 L 7.465 195.005 L 8.399 194.571 L 10.732 193.268 L 10.732 192.834 L 10.265 192.182 L 11.198 191.531 L 11.431 191.314 L 10.732 191.097 L 10.032 190.662 L 9.098 191.314 L 8.399 191.748 L 7.932 191.748 L 7.699 190.879 L 7.699 189.142 L 8.399 188.274 L 9.565 187.188 L 10.498 185.668 L 11.198 184.365 L 12.131 183.931 L 12.831 183.062 L 13.298 182.193 L 13.531 181.107 L 13.298 180.239 L 13.298 179.153 L 13.764 177.633 L 13.531 175.896 L 13.531 173.724 L 11.898 171.987 L 10.265 169.598 L 10.032 168.512 L 10.498 166.992 L 9.798 166.124 L 8.165 165.472 L 7.699 165.038 L 7.699 164.387 L 8.165 163.735 L 8.165 163.084 L 7.465 162.432 L 6.532 161.998 L 5.366 161.998 L 5.366 161.564 L 6.066 161.129 L 6.299 160.912 L 6.299 159.175 L 5.832 158.523 L 5.366 158.089 L 5.832 157.655 L 6.299 157.438 L 7.699 157.438 L 8.632 156.786 L 10.265 156.352 L 11.198 156.569 L 12.131 156.786 L 13.064 157.22 L 13.298 156.352 L 12.831 155.917 L 11.898 154.832 L 11.898 154.397 L 12.131 154.18 L 12.831 154.615 L 13.764 155.483 L 14.231 155.7 L 15.164 156.135 L 16.097 156.135 L 16.564 155.917 L 17.03 156.786 L 17.497 157.22 L 18.664 157.438 L 19.13 157.655 L 19.13 158.523 L 19.83 158.306 C 20.604 158.458 20.942 158.369 21.23 157.655 L 21.23 157.655 L 21.23 157.655 L 21.23 157.655 L 21.23 156.786 L 21.696 156.786 L 21.93 157.003 L 22.63 157.22 L 24.263 157.22 L 25.662 156.135 L 27.529 155.483 L 29.162 155.049 L 32.661 155.049 L 34.294 154.18 L 35.227 153.094 L 35.461 152.443 L 36.394 151.792 L 36.394 150.489 L 35.694 149.62 L 34.994 148.969 L 34.061 148.534 L 33.128 147.883 L 32.195 147.666 L 32.195 146.58 L 33.361 146.145 L 33.828 145.06 L 35.227 144.191 L 36.161 143.974 L 37.56 143.974 L 38.494 142.671 L 40.127 141.368 L 41.293 140.934 L 42.226 139.631 L 43.626 138.545 L 44.792 137.894 L 44.792 137.242 L 44.559 136.591 L 44.326 134.853 L 45.492 132.899 L 45.726 131.596 L 45.726 130.51 L 45.259 129.425 L 44.792 128.556 L 43.859 127.253 L 43.393 125.95 L 42.693 125.95 L 41.76 126.602 L 40.127 126.819 C 38.967 126.664 37.938 126.125 36.86 125.733 L 36.86 125.733 L 36.86 125.733 L 36.86 125.733 L 35.461 125.733 L 34.761 125.299 L 34.061 124.647 L 33.594 123.561 L 33.594 121.173 L 34.061 121.173 L 34.994 120.738 L 35.927 120.304 L 34.761 118.784 L 34.761 118.132 L 34.761 117.047 L 35.927 116.395 L 37.327 116.178 L 38.727 116.178 L 40.127 116.395 L 41.293 117.047 L 41.993 117.047 L 43.626 116.83 L 44.326 117.264 L 45.259 117.481 L 45.959 116.395 L 46.426 115.309 L 46.659 113.138 L 46.892 110.749 L 47.359 107.492 L 48.292 104.886 L 50.158 103.149 L 51.558 100.326 L 52.724 97.503 L 52.958 93.16 L 51.791 90.771 L 53.191 88.165 L 52.958 84.691 L 54.358 83.388 L 54.358 82.085 L 55.524 81.433 L 56.924 81.65 L 58.324 82.736 L 59.023 82.519 L 58.557 80.999 L 56.69 80.13 L 54.591 79.913 L 52.491 79.696 L 49.458 79.479 L 48.292 79.262 L 47.825 77.742 L 47.592 75.136 L 49.458 70.358 L 51.091 71.01 L 52.258 69.49 L 51.325 67.97 L 50.392 67.535 L 51.325 66.232 L 52.958 65.147 L 55.291 63.409 L 57.857 62.106 L 60.19 62.324 L 62.989 62.106 L 64.156 62.975 L 66.489 62.758 L 78.387 61.238 L 80.253 61.455 L 81.653 62.106 L 81.42 62.975 L 80.953 63.844 L 81.653 64.712 L 83.053 67.101 L 84.686 68.404 L 84.219 69.055 L 85.619 69.924 L 85.619 71.227 L 84.452 71.878 L 82.819 71.878 L 82.12 72.53 L 82.12 73.181 L 82.586 74.267 L 83.286 75.787 L 84.919 75.57 L 85.852 76.221 L 86.552 77.307 L 87.719 77.959 L 89.585 77.742 L 90.518 76.439 L 91.218 74.919 L 91.451 73.398 L 91.451 72.313 L 90.285 71.01 L 88.652 71.227 L 88.652 69.924 L 89.352 68.404 L 89.585 67.101 L 91.685 67.318 L 92.618 68.404 L 94.484 69.924 L 97.517 70.575 L 98.45 71.01 L 97.75 71.878 L 96.817 72.747 L 96.35 74.267 L 96.117 77.09 L 96.35 79.479 L 97.284 81.433 L 97.984 77.524 L 97.517 76.439 L 97.517 74.701 L 98.217 73.616 L 99.383 72.313 L 100.083 70.793 L 99.15 68.838 L 97.984 66.015 L 97.517 64.061 L 97.284 62.324 L 98.683 59.718 L 99.383 57.546 L 99.85 56.026 L 100.783 54.072 L 102.183 53.203 L 103.583 52.986 L 104.749 54.072 L 106.149 55.375 L 108.482 55.809 L 109.648 56.243 L 111.515 56.243 L 114.081 55.809 L 115.014 55.809 L 117.114 54.723 L 123.413 54.723 L 124.112 55.157 L 124.579 56.243 L 125.279 57.763 L 126.445 59.501 L 127.845 61.672 L 129.245 63.409 L 130.178 63.844 L 130.411 65.147 L 130.645 65.798 L 131.578 66.884 L 132.511 68.187 L 133.444 69.49 L 135.077 69.707 L 136.01 70.358 L 137.644 71.227 L 139.51 71.444 L 141.376 71.878 L 142.543 71.661 L 142.309 71.01 L 141.143 70.141 L 139.976 69.49 L 138.577 69.49 L 137.877 69.49 L 136.944 69.273 L 136.477 69.055 L 135.544 68.404 L 134.144 67.752 L 132.978 66.667 L 132.744 65.364 L 132.511 63.409 L 132.278 62.106 L 130.878 61.455 L 129.945 61.021 L 128.778 59.935 L 128.312 58.632 L 128.078 57.112 L 127.845 56.026 L 126.445 55.157 L 124.812 54.289 L 123.179 52.986 L 120.846 52.552 L 119.68 52.334 L 117.347 52.552 L 116.18 52.117 L 114.781 51.9 L 114.314 52.552 L 113.848 52.117 L 112.681 51.249 L 110.348 46.906 L 109.882 46.037 L 109.648 45.385 L 110.581 44.734 L 111.515 44.951 L 112.214 45.603 L 113.148 46.037 L 114.081 46.254 L 115.247 45.385 L 115.481 43.648 L 115.481 41.694 L 114.547 40.825 L 114.081 39.305 L 112.448 39.088 L 111.515 39.305 L 110.115 40.391 L 109.882 38.871 L 108.948 37.785 L 109.182 37.134 L 110.348 34.962 L 109.882 34.093 L 110.348 33.442 L 111.281 33.225 L 112.448 33.442 L 112.914 32.573 L 114.081 30.836 L 113.848 30.185 L 113.381 30.185 L 111.748 31.053 L 110.815 30.836 L 110.581 31.053 L 109.415 31.053 L 108.715 31.705 L 106.382 31.053 L 105.449 31.705 L 104.282 32.356 L 103.116 31.705 L 102.416 30.402 L 102.183 28.882 L 103.349 28.447 L 104.749 28.447 L 105.216 28.664 L 105.216 27.579 L 103.816 26.927 L 103.349 26.71 L 103.583 26.059 L 104.516 26.276 L 105.916 25.841 L 107.082 25.624 L 111.515 25.624 L 113.381 24.321 L 115.947 22.801 L 115.714 20.195 L 115.014 19.11 L 113.381 17.372 L 111.748 15.635 L 110.815 14.767 L 110.115 13.029 L 109.415 10.858 L 108.015 9.989 L 106.382 8.686 L 105.682 8.469 L 105.916 6.949 L 105.682 5.646 L 104.749 4.343 L 104.516 3.692 L 104.516 1.52 L 105.216 0.651 L 107.082 0.651 L 107.782 0.651 L 108.948 0 L 111.281 0 L 112.448 0.434 L 114.547 1.086 L 115.947 1.954 L 117.114 2.172 L 118.513 2.389 L 120.38 2.606 L 121.78 3.04 L 122.246 3.692 L 122.479 4.777 L 123.179 5.646 L 126.679 5.646 L 127.845 4.777 L 128.778 5.429 L 129.478 5.429 L 131.111 4.995 C 132.115 4.225 133.291 3.696 134.377 3.04 L 134.377 3.04 L 134.377 3.04 L 134.377 3.04 L 134.144 3.909 L 135.077 4.56 L 136.944 4.995 L 138.577 4.995 C 139.283 5.755 140.342 6.08 141.143 6.732 L 141.143 6.732 L 141.143 6.732 L 141.143 6.732 L 141.843 8.252 L 143.009 8.252 L 144.409 7.818 L 144.876 7.6 L 144.876 6.732 L 145.342 6.515 L 146.275 6.949 L 146.975 8.035 L 146.975 9.121 L 147.675 10.206 L 147.675 10.641 L 146.742 10.858 L 146.042 11.292 L 145.342 11.726 L 145.109 12.595 L 146.742 12.378 L 147.908 12.595 L 148.842 13.246 L 149.075 14.767 L 148.842 16.504 L 148.375 18.241 L 148.375 19.11 L 147.675 19.978 L 146.742 20.847 L 144.642 21.716 L 144.176 21.933 L 142.309 21.933 L 142.309 22.801 L 143.942 23.67 L 145.109 23.67 L 147.209 23.018 L 150.475 22.584 L 151.874 21.933 L 152.574 21.933 L 152.808 22.584 L 153.974 23.236 L 153.741 25.19 L 154.207 26.276 L 153.508 27.144 L 152.808 27.796 L 152.341 28.013 L 152.108 28.664 L 152.108 29.099 L 152.574 29.316 L 152.341 29.967 L 152.108 30.836 L 153.041 30.836 L 154.907 28.447 L 155.374 27.579 L 155.607 26.276 L 156.774 25.841 L 157.474 25.407 L 158.173 24.756 L 159.573 24.973 L 160.273 25.19 L 161.206 26.059 L 162.606 26.927 L 165.406 27.796 L 166.805 28.447 L 167.738 29.099 L 169.138 30.185 L 170.071 31.053 L 171.471 31.488 L 172.171 31.705 L 173.804 31.488 L 174.504 30.836 L 175.904 29.967 L 177.07 28.882 L 178.937 28.013 L 180.803 28.23 L 182.669 28.882 L 183.369 30.402 L 183.369 32.356 L 183.369 34.311 L 183.602 36.048 L 182.903 36.916 L 182.669 37.785 L 181.736 38.436 L 180.57 38.871 L 179.17 39.957 L 178.003 41.042 L 177.07 41.911 L 176.137 42.345 L 175.437 42.562 L 174.737 42.128 L 174.037 42.997 L 173.571 43.648 L 172.404 45.168 L 172.871 46.688 L 174.037 47.991 L 175.67 48.426 L 176.604 48.208 L 176.604 49.729 L 177.304 49.946 Z " fill="rgb(174,174,174)"/></g></svg>