<?xml version="1.0" standalone="no"?><!-- Generator: Gravit.io --><svg xmlns="http://www.w3.org/2000/svg" xmlns:xlink="http://www.w3.org/1999/xlink" style="isolation:isolate" viewBox="1066 1112 45 33" width="45" height="33"><clipPath id="_clipPath_hRbOJi2PD3rON5LYbfa3dxCUmQAWGuUF"><rect x="1066" y="1112" width="45" height="33" transform="matrix(1,0,0,1,0,0)" fill="rgb(255,255,255)"/></clipPath><g clip-path="url(#_clipPath_hRbOJi2PD3rON5LYbfa3dxCUmQAWGuUF)"><g><g><path d=" M 1069 1145 L 1108 1145 C 1109.655 1145 1111 1143.655 1111 1142 L 1111 1115 C 1111 1113.345 1109.655 1112 1108 1112 L 1069 1112 C 1067.345 1112 1066 1113.345 1066 1115 L 1066 1142 C 1066 1143.655 1067.345 1145 1069 1145 Z " fill="rgb(255,255,255)"/></g><path d=" M 1084.487 1132.395 L 1087.263 1135.193 C 1087.945 1135.883 1089.055 1135.883 1089.737 1135.193 L 1092.513 1132.395 C 1093.195 1131.706 1094.305 1131.706 1094.987 1132.395 L 1104.763 1142.252 C 1105.446 1142.941 1106.392 1143.105 1106.875 1142.618 L 1106.875 1142.618 C 1107.358 1142.131 1107.195 1141.176 1106.512 1140.488 L 1096.738 1130.63 C 1096.055 1129.941 1096.055 1128.823 1096.738 1128.135 L 1108.263 1116.512 C 1108.945 1115.824 1109.107 1114.869 1108.625 1114.382 L 1108.625 1114.382 C 1108.142 1113.895 1107.195 1114.059 1106.512 1114.748 L 1094.987 1126.37 C 1094.305 1127.059 1093.195 1128.177 1092.513 1128.865 L 1089.737 1131.664 C 1089.055 1132.352 1087.945 1132.352 1087.263 1131.664 L 1070.488 1114.748 C 1069.805 1114.059 1068.858 1113.895 1068.375 1114.382 L 1068.375 1114.382 C 1067.893 1114.869 1068.055 1115.824 1068.737 1116.512 L 1080.262 1128.135 C 1080.945 1128.823 1080.945 1129.941 1080.262 1130.63 L 1070.488 1140.488 C 1069.805 1141.176 1069.642 1142.131 1070.125 1142.618 L 1070.125 1142.618 C 1070.608 1143.105 1071.554 1142.941 1072.237 1142.252 L 1082.013 1132.395 C 1082.695 1131.706 1083.805 1131.706 1084.487 1132.395 Z " fill="rgb(62,57,57)"/></g></g></svg>