<?xml version="1.0" standalone="no"?><!-- Generator: Gravit.io --><svg xmlns="http://www.w3.org/2000/svg" xmlns:xlink="http://www.w3.org/1999/xlink" style="isolation:isolate" viewBox="0 0 35 34.915" width="35" height="34.915"><g><path d=" M 33.761 20.372 C 33.75 20.434 33.731 20.317 33.761 20.372 C 33.942 19.389 34.036 18.382 34.036 17.376 C 34.036 15.146 33.6 12.981 32.737 10.944 C 31.905 8.975 30.713 7.208 29.194 5.69 C 27.678 4.172 25.909 2.982 23.942 2.149 C 21.905 1.287 19.741 0.851 17.51 0.851 C 16.926 0.851 16.103 0.919 15.041 1.056 C 14.721 1.097 14.029 1.015 13.705 0.899 C 12.036 0.3 10.729 0 9.785 0 C 7.171 0 4.714 1.017 2.866 2.866 C 1.018 4.714 0 7.171 0 9.785 C 0 11.34 0.374 12.87 1.079 14.244 C 1.128 14.339 1.199 14.736 1.183 14.855 C 1.087 15.547 0.982 16.562 0.982 17.376 C 0.982 19.608 1.419 21.772 2.282 23.811 C 3.113 25.779 4.305 27.546 5.822 29.063 C 7.341 30.581 9.107 31.773 11.077 32.604 C 13.114 33.467 15.279 33.904 17.51 33.904 C 18.192 33.904 18.876 33.861 19.551 33.777 C 19.837 33.741 20.122 33.698 20.404 33.647 C 20.349 33.616 20.466 33.637 20.404 33.647 C 20.579 33.747 20.757 33.84 20.937 33.928 C 22.265 34.574 23.728 34.915 25.218 34.915 C 27.831 34.915 30.286 33.9 32.134 32.051 C 33.983 30.204 35 27.746 35 25.132 C 35 23.464 34.57 21.823 33.761 20.372 L 33.761 20.372 Z " fill="rgb(255,255,255)"/><path d=" M 17.585 29.871 C 10.617 29.871 7.5 26.445 7.5 23.877 C 7.5 22.561 8.473 21.638 9.812 21.638 C 12.794 21.638 12.022 25.919 17.585 25.919 C 20.434 25.919 22.007 24.373 22.007 22.791 C 22.007 21.838 21.537 20.783 19.661 20.321 L 13.464 18.774 C 8.473 17.522 7.567 14.824 7.567 12.288 C 7.567 7.022 12.525 5.044 17.182 5.044 C 21.471 5.044 26.527 7.415 26.527 10.574 C 26.527 11.928 25.356 12.715 24.016 12.715 C 21.471 12.715 21.939 9.193 16.813 9.193 C 14.269 9.193 12.861 10.344 12.861 11.993 C 12.861 13.638 14.869 14.164 16.614 14.561 L 21.201 15.579 C 26.226 16.698 27.5 19.632 27.5 22.396 C 27.5 26.676 24.215 29.871 17.585 29.871 Z " fill="rgb(62,57,57)"/></g></svg>