<?xml version="1.0" standalone="no"?><!-- Generator: Gravit.io --><svg xmlns="http://www.w3.org/2000/svg" xmlns:xlink="http://www.w3.org/1999/xlink" style="isolation:isolate" viewBox="0 0 35 36.75" width="35" height="36.75"><path d=" M 0 12.687 L 0 17.062 C 0 17.305 0.19 17.547 0.425 17.607 L 17.5 21.875 L 17.5 21.875 L 17.5 21.875 L 17.5 13.125 L 8.75 10.938 L 17.5 8.75 L 17.5 8.75 L 35 13.127 L 35 4.375 L 17.5 0 L 17.5 0 L 0.425 4.27 C 0.19 4.327 0 4.572 0 4.812 L 0 9.187 L 0 12.687 L 0 12.687 Z  M 35 26.25 L 35 32.375 L 17.5 36.75 L 17.5 36.75 L 17.5 28.875 L 2.122 25.03 C 0.95 24.737 0 25.48 0 26.687 L 0 31.062 C 0 32.27 0.96 33.442 2.145 33.68 L 17.5 36.75 L 17.5 28.875 L 31.5 25.375 L 17.5 21.875 L 17.5 13.125 L 35 17.5 L 35 24.5 L 35 24.5 L 35 26.25 L 35 26.25 Z " fill-rule="evenodd" fill="rgb(255,255,255)"/></svg>