<svg xmlns="http://www.w3.org/2000/svg" xmlns:xlink="http://www.w3.org/1999/xlink" style="isolation:isolate" viewBox="-25 -106.815 200 106.815" width="200" height="106.815"><path d=" M 170.434 -45.649 L 121.322 -4.686 C 117.754 -1.711 112.897 -2.317 110.482 -6.037 L 110.482 -6.037 L 110.482 -6.037 C 108.066 -9.758 108.999 -15.194 112.565 -18.169 L 154.59 -53.222 L 112.405 -88.373 C 108.721 -91.443 107.821 -97.153 110.396 -101.121 L 110.396 -101.121 C 112.971 -105.087 118.051 -105.819 121.735 -102.748 L 171.581 -61.213 C 172.413 -60.52 173.104 -59.691 173.626 -58.769 C 173.636 -58.756 173.645 -58.742 173.654 -58.728 L 173.654 -58.728 C 173.861 -58.41 174.044 -58.078 174.192 -57.733 C 174.222 -57.694 174.241 -57.652 174.242 -57.603 C 174.472 -57.13 174.638 -56.632 174.744 -56.12 C 174.804 -55.924 174.844 -55.725 174.854 -55.519 C 174.918 -55.273 174.948 -55.019 174.972 -54.766 C 175.203 -51.78 173.994 -48.62 171.57 -46.597 L 170.434 -45.649 L 170.434 -45.649 Z  M -20.384 -45.648 L 28.727 -4.686 C 32.293 -1.711 37.15 -2.317 39.567 -6.037 L 39.567 -6.037 C 41.983 -9.758 41.052 -15.194 37.484 -18.169 L -4.541 -53.222 L 37.644 -88.373 C 41.328 -91.443 42.227 -97.153 39.653 -101.121 L 39.653 -101.121 C 37.078 -105.087 31.997 -105.819 28.316 -102.748 L -21.532 -61.213 C -22.364 -60.52 -23.054 -59.692 -23.576 -58.77 C -23.587 -58.757 -23.596 -58.743 -23.606 -58.728 L -23.606 -58.728 C -23.813 -58.409 -23.996 -58.077 -24.144 -57.731 C -24.173 -57.695 -24.191 -57.656 -24.191 -57.61 C -24.422 -57.134 -24.589 -56.632 -24.696 -56.116 C -24.754 -55.93 -24.792 -55.74 -24.8 -55.544 C -24.867 -55.288 -24.899 -55.025 -24.924 -54.761 C -25.194 -52.583 -24.751 -50.331 -23.541 -48.465 L -23.541 -48.465 C -22.707 -47.18 -21.611 -46.235 -20.384 -45.648 L -20.384 -45.648 L -20.384 -45.648 Z  M 89.836 -106.195 L 89.836 -106.195 C 93.823 -104.24 95.388 -98.262 93.323 -92.852 L 60.531 -6.883 C 58.469 -1.473 53.556 1.331 49.566 -0.621 L 49.566 -0.621 C 45.577 -2.575 44.015 -8.554 46.076 -13.963 L 78.868 -99.933 C 80.933 -105.342 85.847 -108.145 89.836 -106.195 Z " fill-rule="evenodd" fill="rgb(0,0,0)"/></svg>