<svg xmlns="http://www.w3.org/2000/svg" xmlns:xlink="http://www.w3.org/1999/xlink" style="isolation:isolate" viewBox="0 0 220 180" width="220" height="180"><defs><clipPath id="_clipPath_2m53RIoSe8jhkuOFtfFF5vmfoDgskVaj"><rect width="220" height="180"/></clipPath></defs><g clip-path="url(#_clipPath_2m53RIoSe8jhkuOFtfFF5vmfoDgskVaj)"><g><rect x="0" y="0" width="220" height="180" transform="matrix(1,0,0,1,0,0)" fill="none"/><path d=" M 40.376 64.167 C 40.323 64.378 40.269 64.592 40.225 64.805 L 40 64.805 L 40 66.907 L 40 81.913 L 40 82.816 L 40.042 82.816 C 41.317 96.812 72.174 108.03 110 108.03 C 147.826 108.03 178.685 96.812 179.96 82.816 L 180 82.816 L 180 81.913 L 180 66.907 L 180 64.805 L 179.778 64.805 C 179.731 64.592 179.677 64.378 179.624 64.167 C 176.056 77.331 146.222 87.619 110 87.619 C 73.778 87.619 43.944 77.331 40.376 64.167 L 40.376 64.167 L 40.376 64.167 Z  M 40.376 95.947 C 40.323 96.158 40.269 96.372 40.225 96.585 L 40 96.585 L 40 98.685 L 40 113.696 L 40 114.596 L 40.042 114.596 C 41.317 128.592 72.174 139.81 110 139.81 C 147.826 139.81 178.685 128.592 179.96 114.596 L 180 114.596 L 180 113.696 L 180 98.685 L 180 96.585 L 179.778 96.585 C 179.731 96.372 179.677 96.158 179.624 95.947 C 176.056 109.111 146.222 119.399 110 119.399 C 73.778 119.399 43.944 109.111 40.376 95.947 L 40.376 95.947 L 40.376 95.947 Z  M 40.376 127.202 C 40.323 127.416 40.269 127.627 40.225 127.841 L 40 127.841 L 40 129.943 L 40 144.951 L 40 145.852 L 40.042 145.852 C 41.317 159.848 72.174 171.065 110 171.065 C 147.826 171.065 178.685 159.848 179.96 145.852 L 180 145.852 L 180 144.951 L 180 129.943 L 180 127.841 L 179.778 127.841 C 179.731 127.627 179.677 127.416 179.624 127.202 C 176.056 140.368 146.222 150.654 110 150.654 C 73.778 150.654 43.944 140.368 40.376 127.202 L 40.376 127.202 Z  M 40.042 50.958 L 40 50.958 L 40 50.06 L 40 35.049 L 40 32.949 L 40.225 32.949 C 43.096 19.516 73.264 8.935 110 8.935 C 146.738 8.935 176.906 19.516 179.778 32.949 L 180 32.949 L 180 35.049 L 180 50.06 L 180 50.958 L 179.96 50.958 C 178.685 64.954 147.826 76.174 110 76.174 C 72.174 76.174 41.317 64.954 40.042 50.958 Z " fill-rule="evenodd" fill="rgb(162,162,162)"/></g></g></svg>