<?xml version="1.0" standalone="no"?><!-- Generator: Gravit.io --><svg xmlns="http://www.w3.org/2000/svg" xmlns:xlink="http://www.w3.org/1999/xlink" style="isolation:isolate" viewBox="0 46.289 140 162.131" width="140" height="162.131"><path d=" M 0.376 101.521 C 0.323 101.732 0.269 101.946 0.225 102.159 L 0 102.159 L 0 104.261 L 0 119.267 L 0 120.17 L 0.042 120.17 C 1.317 134.166 32.174 145.384 70 145.384 C 107.826 145.384 138.685 134.166 139.96 120.17 L 140 120.17 L 140 119.267 L 140 104.261 L 140 102.159 L 139.778 102.159 C 139.731 101.946 139.677 101.732 139.624 101.521 C 136.056 114.685 106.222 124.973 70 124.973 C 33.778 124.973 3.944 114.685 0.376 101.521 L 0.376 101.521 L 0.376 101.521 Z  M 0.376 133.301 C 0.323 133.512 0.269 133.726 0.225 133.939 L 0 133.939 L 0 136.039 L 0 151.049 L 0 151.95 L 0.042 151.95 C 1.317 165.946 32.174 177.164 70 177.164 C 107.826 177.164 138.685 165.946 139.96 151.95 L 140 151.95 L 140 151.049 L 140 136.039 L 140 133.939 L 139.778 133.939 C 139.731 133.726 139.677 133.512 139.624 133.301 C 136.056 146.465 106.222 156.753 70 156.753 C 33.778 156.753 3.944 146.465 0.376 133.301 L 0.376 133.301 L 0.376 133.301 Z  M 0.376 164.556 C 0.323 164.77 0.269 164.981 0.225 165.194 L 0 165.194 L 0 167.297 L 0 182.305 L 0 183.206 L 0.042 183.206 C 1.317 197.202 32.174 208.419 70 208.419 C 107.826 208.419 138.685 197.202 139.96 183.206 L 140 183.206 L 140 182.305 L 140 167.297 L 140 165.194 L 139.778 165.194 C 139.731 164.981 139.677 164.77 139.624 164.556 C 136.056 177.722 106.222 188.008 70 188.008 C 33.778 188.008 3.944 177.722 0.376 164.556 L 0.376 164.556 Z  M 0.042 88.312 L 0 88.312 L 0 87.413 L 0 72.403 L 0 70.303 L 0.225 70.303 C 3.096 56.87 33.264 46.289 70 46.289 C 106.738 46.289 136.906 56.87 139.778 70.303 L 140 70.303 L 140 72.403 L 140 87.413 L 140 88.312 L 139.96 88.312 C 138.685 102.308 107.826 113.528 70 113.528 C 32.174 113.528 1.317 102.308 0.042 88.312 Z " fill-rule="evenodd" fill="rgb(0,0,0)"/></svg>