<?xml version="1.0" standalone="no"?><!-- Generator: Gravit.io --><svg xmlns="http://www.w3.org/2000/svg" xmlns:xlink="http://www.w3.org/1999/xlink" style="isolation:isolate" viewBox="150 0 150 130" width="150" height="130"><g><rect x="150" y="0" width="150" height="130" transform="matrix(1,0,0,1,0,0)" fill="none"/><path d=" M 193.702 53.08 C 193.678 53.175 193.654 53.271 193.634 53.367 L 193.533 53.367 L 193.533 54.312 L 193.533 61.058 L 193.533 61.464 L 193.552 61.464 C 194.125 67.756 207.997 72.799 225.002 72.799 C 242.007 72.799 255.88 67.756 256.453 61.464 L 256.471 61.464 L 256.471 61.058 L 256.471 54.312 L 256.471 53.367 L 256.371 53.367 C 256.35 53.271 256.326 53.175 256.302 53.08 C 254.698 58.998 241.286 63.623 225.002 63.623 C 208.718 63.623 195.306 58.998 193.702 53.08 L 193.702 53.08 L 193.702 53.08 Z  M 193.702 67.367 C 193.678 67.462 193.654 67.558 193.634 67.654 L 193.533 67.654 L 193.533 68.598 L 193.533 75.346 L 193.533 75.751 L 193.552 75.751 C 194.125 82.043 207.997 87.086 225.002 87.086 C 242.007 87.086 255.88 82.043 256.453 75.751 L 256.471 75.751 L 256.471 75.346 L 256.471 68.598 L 256.471 67.654 L 256.371 67.654 C 256.35 67.558 256.326 67.462 256.302 67.367 C 254.698 73.285 241.286 77.91 225.002 77.91 C 208.718 77.91 195.306 73.285 193.702 67.367 L 193.702 67.367 L 193.702 67.367 Z  M 193.702 81.418 C 193.678 81.514 193.654 81.609 193.634 81.705 L 193.533 81.705 L 193.533 82.65 L 193.533 89.397 L 193.533 89.802 L 193.552 89.802 C 194.125 96.094 207.997 101.137 225.002 101.137 C 242.007 101.137 255.88 96.094 256.453 89.802 L 256.471 89.802 L 256.471 89.397 L 256.471 82.65 L 256.471 81.705 L 256.371 81.705 C 256.35 81.609 256.326 81.514 256.302 81.418 C 254.698 87.337 241.286 91.961 225.002 91.961 C 208.718 91.961 195.306 87.337 193.702 81.418 L 193.702 81.418 Z  M 193.552 47.142 L 193.533 47.142 L 193.533 46.738 L 193.533 39.99 L 193.533 39.046 L 193.634 39.046 C 194.925 33.007 208.487 28.25 225.002 28.25 C 241.518 28.25 255.08 33.007 256.371 39.046 L 256.471 39.046 L 256.471 39.99 L 256.471 46.738 L 256.471 47.142 L 256.453 47.142 C 255.88 53.434 242.007 58.478 225.002 58.478 C 207.997 58.478 194.125 53.434 193.552 47.142 Z " fill-rule="evenodd" fill="rgb(0,0,0)"/></g></svg>