<?xml version="1.0" standalone="no"?><!-- Generator: Gravit.io --><svg xmlns="http://www.w3.org/2000/svg" xmlns:xlink="http://www.w3.org/1999/xlink" style="isolation:isolate" viewBox="445 1030 150 130" width="150" height="130"><g><rect x="445" y="1030" width="150" height="130" transform="matrix(1,0,0,1,0,0)" fill="none"/><path d=" M 488.702 1083.08 C 488.678 1083.175 488.654 1083.271 488.634 1083.367 L 488.533 1083.367 L 488.533 1084.312 L 488.533 1091.058 L 488.533 1091.464 L 488.552 1091.464 C 489.125 1097.756 502.997 1102.799 520.002 1102.799 C 537.007 1102.799 550.88 1097.756 551.453 1091.464 L 551.471 1091.464 L 551.471 1091.058 L 551.471 1084.312 L 551.471 1083.367 L 551.371 1083.367 C 551.35 1083.271 551.326 1083.175 551.302 1083.08 C 549.698 1088.998 536.286 1093.623 520.002 1093.623 C 503.718 1093.623 490.306 1088.998 488.702 1083.08 L 488.702 1083.08 L 488.702 1083.08 Z  M 488.702 1097.367 C 488.678 1097.462 488.654 1097.558 488.634 1097.654 L 488.533 1097.654 L 488.533 1098.598 L 488.533 1105.346 L 488.533 1105.751 L 488.552 1105.751 C 489.125 1112.043 502.997 1117.086 520.002 1117.086 C 537.007 1117.086 550.88 1112.043 551.453 1105.751 L 551.471 1105.751 L 551.471 1105.346 L 551.471 1098.598 L 551.471 1097.654 L 551.371 1097.654 C 551.35 1097.558 551.326 1097.462 551.302 1097.367 C 549.698 1103.285 536.286 1107.91 520.002 1107.91 C 503.718 1107.91 490.306 1103.285 488.702 1097.367 L 488.702 1097.367 L 488.702 1097.367 Z  M 488.702 1111.418 C 488.678 1111.514 488.654 1111.609 488.634 1111.705 L 488.533 1111.705 L 488.533 1112.65 L 488.533 1119.397 L 488.533 1119.802 L 488.552 1119.802 C 489.125 1126.094 502.997 1131.137 520.002 1131.137 C 537.007 1131.137 550.88 1126.094 551.453 1119.802 L 551.471 1119.802 L 551.471 1119.397 L 551.471 1112.65 L 551.471 1111.705 L 551.371 1111.705 C 551.35 1111.609 551.326 1111.514 551.302 1111.418 C 549.698 1117.337 536.286 1121.961 520.002 1121.961 C 503.718 1121.961 490.306 1117.337 488.702 1111.418 L 488.702 1111.418 Z  M 488.552 1077.142 L 488.533 1077.142 L 488.533 1076.738 L 488.533 1069.99 L 488.533 1069.046 L 488.634 1069.046 C 489.925 1063.007 503.487 1058.25 520.002 1058.25 C 536.518 1058.25 550.08 1063.007 551.371 1069.046 L 551.471 1069.046 L 551.471 1069.99 L 551.471 1076.738 L 551.471 1077.142 L 551.453 1077.142 C 550.88 1083.434 537.007 1088.478 520.002 1088.478 C 502.997 1088.478 489.125 1083.434 488.552 1077.142 Z " fill-rule="evenodd" fill="rgb(32,32,32)"/></g></svg>