<?xml version="1.0" standalone="no"?><!-- Generator: Gravit.io --><svg xmlns="http://www.w3.org/2000/svg" xmlns:xlink="http://www.w3.org/1999/xlink" style="isolation:isolate" viewBox="765 1030 150 130" width="150" height="130"><g><rect x="765" y="1030" width="150" height="130" transform="matrix(1,0,0,1,0,0)" fill="none"/><path d=" M 838.237 1059.571 Q 856.14 1060.7 864.527 1071.345 Q 867.415 1074.587 869.526 1078.604 Q 879.935 1080.023 885.387 1086.399 Q 892.026 1092.556 892.376 1105.001 Q 891.195 1117.261 883.721 1123.227 Q 877.668 1129.379 865.656 1129.571 L 849.172 1129.571 L 849.172 1100.141 L 854.21 1100.141 C 855.955 1100.141 857.778 1099.896 858.277 1099.593 L 858.277 1099.593 C 858.777 1099.291 858.947 1098.7 858.656 1098.274 L 858.656 1098.274 C 858.365 1097.848 857.228 1096.409 856.117 1095.064 L 847.449 1084.56 C 843.747 1080.073 840.506 1076.316 840.215 1076.174 L 840.215 1076.174 C 839.924 1076.031 839.452 1076.031 839.161 1076.174 L 839.161 1076.174 C 838.87 1076.316 835.629 1080.073 831.927 1084.56 L 823.259 1095.064 C 822.149 1096.409 821.011 1097.848 820.72 1098.274 L 820.72 1098.274 C 820.43 1098.7 820.548 1099.291 820.984 1099.593 L 820.984 1099.593 C 821.42 1099.896 823.19 1100.141 824.935 1100.141 L 830.204 1100.141 L 830.204 1129.571 L 811.678 1129.571 Q 798.83 1129.623 793.129 1122.528 Q 787.115 1117.037 787 1105.647 Q 788.183 1095.27 794.581 1090.109 Q 798.597 1086.437 804.742 1084.894 Q 807.87 1074.581 815.119 1068.389 Q 823.149 1060.452 838.237 1059.571 Z " fill="rgb(32,32,32)"/></g></svg>