<?xml version="1.0" standalone="no"?><!-- Generator: Gravit.io --><svg xmlns="http://www.w3.org/2000/svg" xmlns:xlink="http://www.w3.org/1999/xlink" style="isolation:isolate" viewBox="-10 253.571 160 106.287" width="160" height="106.287"><path d=" M 67.797 253.571 Q 94.98 255.285 107.715 271.448 Q 112.1 276.371 115.305 282.47 Q 131.11 284.625 139.388 294.306 Q 149.469 303.654 150 322.551 Q 148.207 341.166 136.858 350.224 Q 127.668 359.565 109.429 359.857 L 84.4 359.857 L 84.4 315.171 L 92.05 315.171 C 94.699 315.171 97.467 314.799 98.225 314.339 L 98.225 314.339 C 98.984 313.881 99.242 312.983 98.8 312.336 L 98.8 312.336 C 98.359 311.69 96.632 309.505 94.945 307.462 L 81.784 291.513 C 76.163 284.701 71.242 278.996 70.8 278.78 L 70.8 278.78 C 70.358 278.563 69.642 278.563 69.2 278.78 L 69.2 278.78 C 68.758 278.996 63.837 284.701 58.216 291.513 L 45.055 307.462 C 43.369 309.505 41.641 311.69 41.2 312.336 L 41.2 312.336 C 40.759 312.983 40.938 313.881 41.6 314.339 L 41.6 314.339 C 42.262 314.799 44.95 315.171 47.599 315.171 L 55.6 315.171 L 55.6 359.857 L 27.47 359.857 Q 7.962 359.936 -0.694 349.163 Q -9.825 340.826 -10 323.531 Q -8.204 307.775 1.511 299.939 Q 7.609 294.363 16.939 292.021 Q 21.688 276.362 32.695 266.96 Q 44.888 254.909 67.797 253.571 Z " fill="rgb(0,0,0)"/></svg>