<?xml version="1.0" standalone="no"?><!-- Generator: Gravit.io --><svg xmlns="http://www.w3.org/2000/svg" xmlns:xlink="http://www.w3.org/1999/xlink" style="isolation:isolate" viewBox="450 0 150 130" width="150" height="130"><g><rect x="450" y="0" width="150" height="130" transform="matrix(1,0,0,1,0,0)" fill="none"/><path d=" M 499.04 30.125 C 499.04 28.045 500.919 26.355 503.233 26.355 C 505.546 26.355 507.424 28.045 507.424 30.125 C 507.424 32.206 505.546 33.895 503.233 33.895 C 500.919 33.895 499.04 32.206 499.04 30.125 L 499.04 30.125 L 499.04 30.125 L 499.04 30.125 L 499.04 30.125 L 499.04 30.125 L 499.04 30.125 L 499.04 30.125 L 499.04 30.125 Z  M 539.437 36.98 C 539.437 34.899 541.315 33.21 543.629 33.21 C 545.943 33.21 547.821 34.899 547.821 36.98 C 547.821 39.061 545.943 40.75 543.629 40.75 C 541.315 40.75 539.437 39.061 539.437 36.98 L 539.437 36.98 L 539.437 36.98 L 539.437 36.98 L 539.437 36.98 L 539.437 36.98 L 539.437 36.98 Z  M 509.457 85.106 L 509.457 80.365 L 509.457 80.365 C 510.621 78.45 514.6 76.362 521.398 74.109 L 524.193 73.31 L 525.717 72.853 L 528.004 72.168 C 531.061 71.205 533.938 69.985 536.642 68.512 L 537.912 67.827 L 539.691 66.684 L 541.978 64.856 L 543.756 63.028 L 544.519 62.114 L 545.281 61.2 L 546.297 59.601 L 547.059 58.23 L 547.821 56.63 C 548.413 55.298 548.919 53.468 549.346 51.147 L 549.6 49.09 L 549.854 46.12 L 549.854 45.604 C 552.988 43.77 555.062 40.591 555.062 36.98 C 555.062 31.305 549.939 26.698 543.629 26.698 C 537.319 26.698 532.196 31.305 532.196 36.98 L 532.196 36.98 L 532.196 36.98 L 532.196 36.98 L 532.196 36.98 C 532.196 40.688 534.383 43.939 537.659 45.749 L 537.659 46.348 L 537.635 47.241 C 537.602 49.263 537.184 51.125 536.388 52.835 L 535.88 53.888 L 535.88 53.888 L 535.88 53.888 L 535.88 53.888 C 535.553 54.552 535.126 55.159 534.61 55.716 L 533.339 57.087 L 532.323 58.001 L 531.307 58.687 L 529.782 59.601 L 525.463 61.429 L 521.906 62.571 L 509.457 66.456 L 509.457 63.714 L 509.457 38.808 L 509.356 38.808 L 509.356 38.808 C 512.546 36.983 514.665 33.775 514.665 30.125 C 514.665 24.451 509.543 19.843 503.233 19.843 C 496.922 19.843 491.799 24.451 491.799 30.125 L 491.799 30.125 L 491.799 30.125 L 491.799 30.125 L 491.799 30.125 C 491.799 33.833 493.986 37.085 497.262 38.894 L 497.262 44.977 L 497.262 52.289 L 497.262 58.23 L 497.262 85.192 L 497.363 85.192 C 494.172 87.017 492.054 90.225 492.054 93.875 C 492.054 99.549 497.176 104.157 503.486 104.157 C 509.796 104.157 514.92 99.549 514.92 93.875 C 514.92 90.167 512.733 86.915 509.457 85.106 L 509.457 85.106 L 509.457 85.106 Z  M 499.421 93.989 C 499.421 91.908 501.3 90.219 503.613 90.219 C 505.927 90.219 507.806 91.908 507.806 93.989 C 507.806 96.069 505.927 97.759 503.613 97.759 C 501.3 97.759 499.421 96.069 499.421 93.989 Z " fill-rule="evenodd" fill="rgb(0,0,0)"/></g></svg>