<svg xmlns="http://www.w3.org/2000/svg" xmlns:xlink="http://www.w3.org/1999/xlink" style="isolation:isolate" viewBox="390 -10 220 180" width="220" height="180"><g><rect x="390" y="-10" width="220" height="180" transform="matrix(1,0,0,1,0,0)" fill="none"/><path d=" M 595.434 87.559 L 546.322 127.473 C 542.754 130.372 537.897 129.781 535.482 126.156 L 535.482 126.156 L 535.482 126.156 C 533.066 122.531 533.999 117.234 537.565 114.335 L 579.59 80.181 L 537.405 45.931 C 533.721 42.94 532.821 37.376 535.396 33.51 L 535.396 33.51 C 537.971 29.645 543.051 28.933 546.735 31.924 L 596.581 72.394 C 597.413 73.07 598.104 73.877 598.626 74.776 C 598.636 74.788 598.645 74.802 598.654 74.815 L 598.654 74.815 C 598.861 75.126 599.044 75.449 599.192 75.785 C 599.222 75.823 599.241 75.864 599.242 75.912 C 599.472 76.373 599.638 76.858 599.744 77.357 C 599.804 77.548 599.844 77.742 599.854 77.943 C 599.918 78.183 599.948 78.429 599.972 78.677 C 600.203 81.586 598.994 84.665 596.57 86.636 L 595.434 87.559 L 595.434 87.559 Z  M 404.616 87.56 L 453.727 127.473 C 457.293 130.372 462.15 129.781 464.567 126.156 L 464.567 126.156 C 466.983 122.531 466.052 117.234 462.484 114.335 L 420.459 80.18 L 462.644 45.931 C 466.328 42.94 467.227 37.376 464.653 33.51 L 464.653 33.51 C 462.078 29.645 456.997 28.933 453.316 31.924 L 403.468 72.394 C 402.636 73.07 401.946 73.877 401.424 74.775 C 401.413 74.787 401.404 74.801 401.394 74.815 L 401.394 74.815 C 401.187 75.127 401.004 75.45 400.856 75.787 C 400.827 75.822 400.809 75.86 400.809 75.905 C 400.578 76.369 400.411 76.858 400.304 77.361 C 400.246 77.542 400.208 77.727 400.2 77.918 C 400.133 78.168 400.101 78.424 400.076 78.681 C 399.806 80.804 400.249 82.997 401.459 84.816 L 401.459 84.816 C 402.293 86.067 403.389 86.988 404.616 87.56 L 404.616 87.56 L 404.616 87.56 Z  M 514.836 28.566 L 514.836 28.566 C 518.823 30.47 520.388 36.296 518.323 41.566 L 485.531 125.332 C 483.469 130.603 478.556 133.336 474.566 131.433 L 474.566 131.433 C 470.577 129.529 469.015 123.704 471.076 118.433 L 503.868 34.667 C 505.933 29.397 510.847 26.665 514.836 28.566 Z " fill-rule="evenodd" fill="rgb(0,0,0)"/></g></svg>