<svg xmlns="http://www.w3.org/2000/svg" xmlns:xlink="http://www.w3.org/1999/xlink" style="isolation:isolate" viewBox="25.158 38.296 100 53.407" width="100" height="53.407"><path d=" M 122.875 68.879 L 98.319 89.361 C 96.535 90.848 94.106 90.545 92.899 88.685 L 92.899 88.685 L 92.899 88.685 C 91.691 86.825 92.157 84.107 93.94 82.619 L 114.953 65.093 L 93.86 47.517 C 92.019 45.982 91.569 43.127 92.856 41.143 L 92.856 41.143 C 94.143 39.16 96.684 38.794 98.525 40.33 L 123.448 61.097 C 123.865 61.444 124.21 61.858 124.471 62.319 C 124.476 62.326 124.481 62.333 124.485 62.34 L 124.485 62.34 C 124.589 62.499 124.68 62.665 124.754 62.837 C 124.769 62.857 124.779 62.878 124.779 62.902 C 124.894 63.139 124.977 63.388 125.03 63.644 C 125.06 63.742 125.08 63.841 125.085 63.944 C 125.117 64.067 125.132 64.194 125.144 64.321 C 125.259 65.814 124.655 67.394 123.443 68.405 L 122.875 68.879 L 122.875 68.879 Z  M 27.466 68.88 L 52.021 89.361 C 53.804 90.848 56.233 90.545 57.441 88.685 L 57.441 88.685 C 58.65 86.825 58.184 84.107 56.4 82.619 L 35.387 65.093 L 56.48 47.517 C 58.322 45.982 58.772 43.127 57.484 41.143 L 57.484 41.143 C 56.197 39.16 53.657 38.794 51.816 40.33 L 26.892 61.097 C 26.476 61.444 26.131 61.858 25.87 62.319 C 25.865 62.325 25.86 62.332 25.855 62.34 L 25.855 62.34 C 25.751 62.499 25.66 62.665 25.586 62.838 C 25.572 62.856 25.563 62.876 25.562 62.899 C 25.447 63.137 25.363 63.388 25.31 63.646 C 25.281 63.739 25.262 63.834 25.258 63.932 C 25.224 64.06 25.208 64.191 25.196 64.323 C 25.061 65.412 25.282 66.538 25.888 67.471 L 25.888 67.471 C 26.304 68.114 26.853 68.586 27.466 68.88 L 27.466 68.88 L 27.466 68.88 Z  M 82.576 38.606 L 82.576 38.606 C 84.57 39.584 85.352 42.573 84.319 45.278 L 67.923 88.262 C 66.893 90.967 64.436 92.369 62.441 91.393 L 62.441 91.393 C 60.447 90.416 59.665 87.427 60.696 84.722 L 77.092 41.737 C 78.124 39.033 80.581 37.631 82.576 38.606 Z " fill-rule="evenodd" fill="rgb(0,0,0)"/></svg>