<svg xmlns="http://www.w3.org/2000/svg" xmlns:xlink="http://www.w3.org/1999/xlink" style="isolation:isolate" viewBox="390 170 220 180" width="220" height="180"><g><rect x="390" y="170" width="220" height="180" transform="matrix(1,0,0,1,0,0)" fill="none"/><path d=" M 430.376 234.167 C 430.323 234.378 430.269 234.592 430.225 234.805 L 430 234.805 L 430 236.907 L 430 251.913 L 430 252.816 L 430.042 252.816 C 431.317 266.812 462.174 278.03 500 278.03 C 537.826 278.03 568.685 266.812 569.96 252.816 L 570 252.816 L 570 251.913 L 570 236.907 L 570 234.805 L 569.778 234.805 C 569.731 234.592 569.677 234.378 569.624 234.167 C 566.056 247.331 536.222 257.619 500 257.619 C 463.778 257.619 433.944 247.331 430.376 234.167 L 430.376 234.167 L 430.376 234.167 Z  M 430.376 265.947 C 430.323 266.158 430.269 266.372 430.225 266.585 L 430 266.585 L 430 268.685 L 430 283.696 L 430 284.596 L 430.042 284.596 C 431.317 298.592 462.174 309.81 500 309.81 C 537.826 309.81 568.685 298.592 569.96 284.596 L 570 284.596 L 570 283.696 L 570 268.685 L 570 266.585 L 569.778 266.585 C 569.731 266.372 569.677 266.158 569.624 265.947 C 566.056 279.111 536.222 289.399 500 289.399 C 463.778 289.399 433.944 279.111 430.376 265.947 L 430.376 265.947 L 430.376 265.947 Z  M 430.376 297.202 C 430.323 297.416 430.269 297.627 430.225 297.841 L 430 297.841 L 430 299.943 L 430 314.951 L 430 315.852 L 430.042 315.852 C 431.317 329.848 462.174 341.065 500 341.065 C 537.826 341.065 568.685 329.848 569.96 315.852 L 570 315.852 L 570 314.951 L 570 299.943 L 570 297.841 L 569.778 297.841 C 569.731 297.627 569.677 297.416 569.624 297.202 C 566.056 310.368 536.222 320.654 500 320.654 C 463.778 320.654 433.944 310.368 430.376 297.202 L 430.376 297.202 Z  M 430.042 220.958 L 430 220.958 L 430 220.06 L 430 205.049 L 430 202.949 L 430.225 202.949 C 433.096 189.516 463.264 178.935 500 178.935 C 536.738 178.935 566.906 189.516 569.778 202.949 L 570 202.949 L 570 205.049 L 570 220.06 L 570 220.958 L 569.96 220.958 C 568.685 234.954 537.826 246.174 500 246.174 C 462.174 246.174 431.317 234.954 430.042 220.958 Z " fill-rule="evenodd" fill="rgb(0,0,0)"/></g></svg>