<svg xmlns="http://www.w3.org/2000/svg" xmlns:xlink="http://www.w3.org/1999/xlink" style="isolation:isolate" viewBox="0 0 220 180" width="220" height="180"><g><rect x="0" y="0" width="220" height="180" transform="matrix(1,0,0,1,0,0)" fill="none"/><path d=" M 107.797 37.857 Q 134.98 39.571 147.715 55.734 Q 152.1 60.657 155.305 66.756 Q 171.11 68.91 179.388 78.592 Q 189.469 87.94 190 106.836 Q 188.207 125.452 176.858 134.51 Q 167.668 143.851 149.429 144.143 L 124.4 144.143 L 124.4 99.457 L 132.05 99.457 C 134.699 99.457 137.467 99.085 138.225 98.625 L 138.225 98.625 C 138.984 98.166 139.242 97.269 138.8 96.622 L 138.8 96.622 C 138.359 95.975 136.632 93.79 134.945 91.748 L 121.784 75.799 C 116.163 68.986 111.242 63.282 110.8 63.066 L 110.8 63.066 C 110.358 62.849 109.642 62.849 109.2 63.066 L 109.2 63.066 C 108.758 63.282 103.837 68.986 98.216 75.799 L 85.055 91.748 C 83.369 93.79 81.641 95.975 81.2 96.622 L 81.2 96.622 C 80.759 97.269 80.938 98.166 81.6 98.625 L 81.6 98.625 C 82.262 99.085 84.95 99.457 87.599 99.457 L 95.6 99.457 L 95.6 144.143 L 67.47 144.143 Q 47.962 144.222 39.306 133.449 Q 30.175 125.111 30 107.817 Q 31.796 92.061 41.511 84.225 Q 47.609 78.649 56.939 76.306 Q 61.688 60.647 72.695 51.246 Q 84.888 39.194 107.797 37.857 Z " fill="rgb(38,70,255)"/></g></svg>