<?xml version="1.0" standalone="no"?><!-- Generator: Gravit.io --><svg xmlns="http://www.w3.org/2000/svg" xmlns:xlink="http://www.w3.org/1999/xlink" style="isolation:isolate" viewBox="300 0 150 130" width="150" height="130"><g><rect x="300" y="0" width="150" height="130" transform="matrix(1,0,0,1,0,0)" fill="none"/><path d=" M 378.237 29.571 Q 396.14 30.7 404.527 41.345 Q 407.415 44.587 409.526 48.604 Q 419.935 50.023 425.387 56.399 Q 432.026 62.556 432.376 75.001 Q 431.195 87.261 423.721 93.227 Q 417.668 99.379 405.656 99.571 L 389.172 99.571 L 389.172 70.141 L 394.21 70.141 C 395.955 70.141 397.778 69.896 398.277 69.593 L 398.277 69.593 C 398.777 69.291 398.947 68.7 398.656 68.274 L 398.656 68.274 C 398.365 67.848 397.228 66.409 396.117 65.064 L 387.449 54.56 C 383.747 50.073 380.506 46.316 380.215 46.174 L 380.215 46.174 C 379.924 46.031 379.452 46.031 379.161 46.174 L 379.161 46.174 C 378.87 46.316 375.629 50.073 371.927 54.56 L 363.259 65.064 C 362.149 66.409 361.011 67.848 360.72 68.274 L 360.72 68.274 C 360.43 68.7 360.548 69.291 360.984 69.593 L 360.984 69.593 C 361.42 69.896 363.19 70.141 364.935 70.141 L 370.204 70.141 L 370.204 99.571 L 351.678 99.571 Q 338.83 99.623 333.129 92.528 Q 327.115 87.037 327 75.647 Q 328.183 65.27 334.581 60.109 Q 338.597 56.437 344.742 54.894 Q 347.87 44.581 355.119 38.389 Q 363.149 30.452 378.237 29.571 Z " fill="rgb(0,0,0)"/></g></svg>