<svg xmlns="http://www.w3.org/2000/svg" xmlns:xlink="http://www.w3.org/1999/xlink" style="isolation:isolate" viewBox="390 530 220 180" width="220" height="180"><g><rect x="390" y="530" width="220" height="180" transform="matrix(1,0,0,1,0,0)" fill="none"/><path d=" M 453.735 559.538 C 453.735 555.593 457.299 552.387 461.688 552.387 C 466.076 552.387 469.638 555.593 469.638 559.538 C 469.638 563.485 466.076 566.689 461.688 566.689 C 457.299 566.689 453.735 563.485 453.735 559.538 L 453.735 559.538 L 453.735 559.538 L 453.735 559.538 L 453.735 559.538 L 453.735 559.538 L 453.735 559.538 L 453.735 559.538 Z  M 530.362 572.541 C 530.362 568.594 533.924 565.39 538.313 565.39 C 542.703 565.39 546.265 568.594 546.265 572.541 C 546.265 576.488 542.703 579.692 538.313 579.692 C 533.924 579.692 530.362 576.488 530.362 572.541 L 530.362 572.541 L 530.362 572.541 L 530.362 572.541 L 530.362 572.541 L 530.362 572.541 Z  M 473.494 663.828 L 473.494 654.836 L 473.494 654.836 C 475.702 651.203 483.25 647.242 496.145 642.969 L 501.446 641.453 L 504.337 640.586 L 508.675 639.287 C 514.474 637.46 519.931 635.146 525.06 632.352 L 527.469 631.053 L 530.844 628.885 L 535.182 625.417 L 538.554 621.95 L 540.002 620.216 L 541.447 618.483 L 543.374 615.449 L 544.82 612.849 L 546.265 609.814 C 547.388 607.287 548.348 603.816 549.158 599.414 L 549.639 595.512 L 550.121 589.878 L 550.121 588.899 C 556.066 585.421 560 579.39 560 572.541 C 560 561.776 550.282 553.038 538.313 553.038 C 526.344 553.038 516.627 561.776 516.627 572.541 L 516.627 572.541 L 516.627 572.541 L 516.627 572.541 L 516.627 572.541 C 516.627 579.574 520.775 585.741 526.989 589.174 L 526.989 590.311 L 526.944 592.004 C 526.881 595.84 526.088 599.372 524.578 602.615 L 523.615 604.613 L 523.615 604.613 L 523.615 604.613 L 523.615 604.613 C 522.994 605.872 522.184 607.024 521.206 608.08 L 518.795 610.681 L 516.868 612.415 L 514.94 613.716 L 512.048 615.449 L 503.855 618.917 L 497.108 621.083 L 473.494 628.452 L 473.494 623.251 L 473.494 576.008 L 473.303 576.008 L 473.303 576.008 C 479.354 572.547 483.373 566.462 483.373 559.538 C 483.373 548.775 473.658 540.035 461.688 540.035 C 449.718 540.035 440 548.775 440 559.538 L 440 559.538 L 440 559.538 L 440 559.538 L 440 559.538 C 440 566.572 444.148 572.74 450.362 576.172 L 450.362 587.71 L 450.362 601.58 L 450.362 612.849 L 450.362 663.992 L 450.554 663.992 C 444.501 667.453 440.484 673.538 440.484 680.462 C 440.484 691.225 450.199 699.965 462.168 699.965 C 474.137 699.965 483.857 691.225 483.857 680.462 C 483.857 673.428 479.708 667.26 473.494 663.828 L 473.494 663.828 Z  M 454.458 680.678 C 454.458 676.731 458.022 673.527 462.409 673.527 C 466.799 673.527 470.363 676.731 470.363 680.678 C 470.363 684.624 466.799 687.829 462.409 687.829 C 458.022 687.829 454.458 684.624 454.458 680.678 Z " fill-rule="evenodd" fill="rgb(0,0,0)"/></g></svg>