<?xml version="1.0" standalone="no"?><!-- Generator: Gravit.io --><svg xmlns="http://www.w3.org/2000/svg" xmlns:xlink="http://www.w3.org/1999/xlink" style="isolation:isolate" viewBox="5 406.699 135 179.922" width="135" height="179.922"><path d=" M 20.452 428.64 C 20.452 424.201 24.462 420.595 29.4 420.595 C 34.335 420.595 38.343 424.201 38.343 428.64 C 38.343 433.081 34.335 436.685 29.4 436.685 C 24.462 436.685 20.452 433.081 20.452 428.64 L 20.452 428.64 L 20.452 428.64 L 20.452 428.64 L 20.452 428.64 L 20.452 428.64 L 20.452 428.64 L 20.452 428.64 Z  M 106.657 443.268 C 106.657 438.827 110.665 435.223 115.603 435.223 C 120.54 435.223 124.548 438.827 124.548 443.268 C 124.548 447.709 120.54 451.313 115.603 451.313 C 110.665 451.313 106.657 447.709 106.657 443.268 L 106.657 443.268 L 106.657 443.268 L 106.657 443.268 L 106.657 443.268 L 106.657 443.268 Z  M 42.681 545.966 L 42.681 535.849 L 42.681 535.849 C 45.165 531.763 53.656 527.307 68.163 522.499 L 74.127 520.794 L 77.379 519.819 L 82.26 518.357 C 88.783 516.302 94.922 513.699 100.693 510.556 L 103.403 509.094 L 107.199 506.655 L 112.079 502.754 L 115.874 498.853 L 117.502 496.903 L 119.128 494.952 L 121.296 491.54 L 122.922 488.614 L 124.548 485.2 C 125.811 482.358 126.891 478.453 127.802 473.5 L 128.344 469.11 L 128.886 462.772 L 128.886 461.671 C 135.574 457.758 140 450.974 140 443.268 C 140 431.158 129.068 421.327 115.603 421.327 C 102.137 421.327 91.205 431.158 91.205 443.268 L 91.205 443.268 L 91.205 443.268 L 91.205 443.268 L 91.205 443.268 C 91.205 451.181 95.872 458.118 102.863 461.981 L 102.863 463.259 L 102.812 465.164 C 102.741 469.479 101.849 473.453 100.151 477.102 L 99.067 479.349 L 99.067 479.349 L 99.067 479.349 L 99.067 479.349 C 98.369 480.766 97.458 482.061 96.356 483.25 L 93.644 486.175 L 91.476 488.126 L 89.308 489.59 L 86.054 491.54 L 76.837 495.441 L 69.247 497.878 L 42.681 506.168 L 42.681 500.317 L 42.681 447.169 L 42.466 447.169 L 42.466 447.169 C 49.273 443.274 53.795 436.429 53.795 428.64 C 53.795 416.532 42.865 406.699 29.4 406.699 C 15.932 406.699 5 416.532 5 428.64 L 5 428.64 L 5 428.64 L 5 428.64 L 5 428.64 C 5 436.552 9.667 443.492 16.658 447.352 L 16.658 460.333 L 16.658 475.937 L 16.658 488.614 L 16.658 546.15 L 16.873 546.15 C 10.064 550.044 5.544 556.89 5.544 564.679 C 5.544 576.787 16.474 586.62 29.939 586.62 C 43.405 586.62 54.339 576.787 54.339 564.679 C 54.339 556.766 49.672 549.827 42.681 545.966 L 42.681 545.966 Z  M 21.265 564.922 C 21.265 560.482 25.275 556.877 30.21 556.877 C 35.148 556.877 39.158 560.482 39.158 564.922 C 39.158 569.361 35.148 572.967 30.21 572.967 C 25.275 572.967 21.265 569.361 21.265 564.922 Z " fill-rule="evenodd" fill="rgb(0,0,0)"/></svg>