<svg xmlns="http://www.w3.org/2000/svg" xmlns:xlink="http://www.w3.org/1999/xlink" style="isolation:isolate" viewBox="0 0 220 180" width="220" height="180"><g><rect x="0" y="0" width="220" height="180" transform="matrix(1,0,0,1,0,0)" fill="none"/><path d=" M 63.735 29.538 C 63.735 25.593 67.299 22.387 71.688 22.387 C 76.076 22.387 79.638 25.593 79.638 29.538 C 79.638 33.485 76.076 36.689 71.688 36.689 C 67.299 36.689 63.735 33.485 63.735 29.538 L 63.735 29.538 L 63.735 29.538 L 63.735 29.538 L 63.735 29.538 L 63.735 29.538 L 63.735 29.538 L 63.735 29.538 Z  M 140.362 42.541 C 140.362 38.594 143.924 35.39 148.313 35.39 C 152.703 35.39 156.265 38.594 156.265 42.541 C 156.265 46.488 152.703 49.692 148.313 49.692 C 143.924 49.692 140.362 46.488 140.362 42.541 L 140.362 42.541 L 140.362 42.541 L 140.362 42.541 L 140.362 42.541 L 140.362 42.541 Z  M 83.494 133.828 L 83.494 124.836 L 83.494 124.836 C 85.702 121.203 93.25 117.242 106.145 112.969 L 111.446 111.453 L 114.337 110.586 L 118.675 109.287 C 124.474 107.46 129.931 105.146 135.06 102.352 L 137.469 101.053 L 140.844 98.885 L 145.182 95.417 L 148.554 91.95 L 150.002 90.216 L 151.447 88.483 L 153.374 85.449 L 154.82 82.849 L 156.265 79.814 C 157.388 77.287 158.348 73.816 159.158 69.414 L 159.639 65.512 L 160.121 59.878 L 160.121 58.899 C 166.066 55.421 170 49.39 170 42.541 C 170 31.776 160.282 23.038 148.313 23.038 C 136.344 23.038 126.627 31.776 126.627 42.541 L 126.627 42.541 L 126.627 42.541 L 126.627 42.541 L 126.627 42.541 C 126.627 49.574 130.775 55.741 136.989 59.174 L 136.989 60.311 L 136.944 62.004 C 136.881 65.84 136.088 69.372 134.578 72.615 L 133.615 74.613 L 133.615 74.613 L 133.615 74.613 L 133.615 74.613 C 132.994 75.872 132.184 77.024 131.206 78.08 L 128.795 80.681 L 126.868 82.415 L 124.94 83.716 L 122.048 85.449 L 113.855 88.917 L 107.108 91.083 L 83.494 98.452 L 83.494 93.251 L 83.494 46.008 L 83.303 46.008 L 83.303 46.008 C 89.354 42.547 93.373 36.462 93.373 29.538 C 93.373 18.775 83.658 10.035 71.688 10.035 C 59.718 10.035 50 18.775 50 29.538 L 50 29.538 L 50 29.538 L 50 29.538 L 50 29.538 C 50 36.572 54.148 42.74 60.362 46.172 L 60.362 57.71 L 60.362 71.58 L 60.362 82.849 L 60.362 133.992 L 60.554 133.992 C 54.501 137.453 50.484 143.538 50.484 150.462 C 50.484 161.225 60.199 169.965 72.168 169.965 C 84.137 169.965 93.857 161.225 93.857 150.462 C 93.857 143.428 89.708 137.26 83.494 133.828 L 83.494 133.828 Z  M 64.458 150.678 C 64.458 146.731 68.022 143.527 72.409 143.527 C 76.799 143.527 80.363 146.731 80.363 150.678 C 80.363 154.624 76.799 157.829 72.409 157.829 C 68.022 157.829 64.458 154.624 64.458 150.678 Z " fill-rule="evenodd" fill="rgb(38,70,255)"/></g></svg>