<?xml version="1.0" standalone="no"?><!-- Generator: Gravit.io --><svg xmlns="http://www.w3.org/2000/svg" xmlns:xlink="http://www.w3.org/1999/xlink" style="isolation:isolate" viewBox="1085 1030 150 130" width="150" height="130"><g><rect x="1085" y="1030" width="150" height="130" transform="matrix(1,0,0,1,0,0)" fill="none"/><path d=" M 1134.04 1060.125 C 1134.04 1058.045 1135.919 1056.355 1138.233 1056.355 C 1140.546 1056.355 1142.424 1058.045 1142.424 1060.125 C 1142.424 1062.206 1140.546 1063.895 1138.233 1063.895 C 1135.919 1063.895 1134.04 1062.206 1134.04 1060.125 L 1134.04 1060.125 L 1134.04 1060.125 L 1134.04 1060.125 L 1134.04 1060.125 L 1134.04 1060.125 L 1134.04 1060.125 L 1134.04 1060.125 L 1134.04 1060.125 Z  M 1174.437 1066.98 C 1174.437 1064.899 1176.315 1063.21 1178.629 1063.21 C 1180.943 1063.21 1182.821 1064.899 1182.821 1066.98 C 1182.821 1069.061 1180.943 1070.75 1178.629 1070.75 C 1176.315 1070.75 1174.437 1069.061 1174.437 1066.98 L 1174.437 1066.98 L 1174.437 1066.98 L 1174.437 1066.98 L 1174.437 1066.98 L 1174.437 1066.98 L 1174.437 1066.98 Z  M 1144.457 1115.106 L 1144.457 1110.365 L 1144.457 1110.365 C 1145.621 1108.45 1149.6 1106.362 1156.398 1104.109 L 1159.193 1103.31 L 1160.717 1102.853 L 1163.004 1102.168 C 1166.061 1101.205 1168.938 1099.985 1171.642 1098.512 L 1172.912 1097.827 L 1174.691 1096.684 L 1176.978 1094.856 L 1178.756 1093.028 L 1179.519 1092.114 L 1180.281 1091.2 L 1181.297 1089.601 L 1182.059 1088.23 L 1182.821 1086.63 C 1183.413 1085.298 1183.919 1083.468 1184.346 1081.147 L 1184.6 1079.09 L 1184.854 1076.12 L 1184.854 1075.604 C 1187.988 1073.77 1190.062 1070.591 1190.062 1066.98 C 1190.062 1061.305 1184.939 1056.698 1178.629 1056.698 C 1172.319 1056.698 1167.196 1061.305 1167.196 1066.98 L 1167.196 1066.98 L 1167.196 1066.98 L 1167.196 1066.98 L 1167.196 1066.98 C 1167.196 1070.688 1169.383 1073.939 1172.659 1075.749 L 1172.659 1076.348 L 1172.635 1077.241 C 1172.602 1079.263 1172.184 1081.125 1171.388 1082.835 L 1170.88 1083.888 L 1170.88 1083.888 L 1170.88 1083.888 L 1170.88 1083.888 C 1170.553 1084.552 1170.126 1085.159 1169.61 1085.716 L 1168.339 1087.087 L 1167.323 1088.001 L 1166.307 1088.687 L 1164.782 1089.601 L 1160.463 1091.429 L 1156.906 1092.571 L 1144.457 1096.456 L 1144.457 1093.714 L 1144.457 1068.808 L 1144.356 1068.808 L 1144.356 1068.808 C 1147.546 1066.983 1149.665 1063.775 1149.665 1060.125 C 1149.665 1054.451 1144.543 1049.843 1138.233 1049.843 C 1131.922 1049.843 1126.799 1054.451 1126.799 1060.125 L 1126.799 1060.125 L 1126.799 1060.125 L 1126.799 1060.125 L 1126.799 1060.125 C 1126.799 1063.833 1128.986 1067.085 1132.262 1068.894 L 1132.262 1074.977 L 1132.262 1082.289 L 1132.262 1088.23 L 1132.262 1115.192 L 1132.363 1115.192 C 1129.172 1117.017 1127.054 1120.225 1127.054 1123.875 C 1127.054 1129.549 1132.176 1134.157 1138.486 1134.157 C 1144.796 1134.157 1149.92 1129.549 1149.92 1123.875 C 1149.92 1120.167 1147.733 1116.915 1144.457 1115.106 L 1144.457 1115.106 L 1144.457 1115.106 Z  M 1134.421 1123.989 C 1134.421 1121.908 1136.3 1120.219 1138.613 1120.219 C 1140.927 1120.219 1142.806 1121.908 1142.806 1123.989 C 1142.806 1126.069 1140.927 1127.759 1138.613 1127.759 C 1136.3 1127.759 1134.421 1126.069 1134.421 1123.989 Z " fill-rule="evenodd" fill="rgb(32,32,32)"/></g></svg>