<?xml version="1.0" standalone="no"?><!-- Generator: Gravit.io --><svg xmlns="http://www.w3.org/2000/svg" xmlns:xlink="http://www.w3.org/1999/xlink" style="isolation:isolate" viewBox="0 0 35 35" width="35" height="35"><g><path d=" M 3.889 0 L 31.111 0 C 33.257 0 35 1.742 35 3.888 L 35 31.111 C 35 33.257 33.257 35 31.111 35 L 3.889 35 C 1.743 35 0 33.257 0 31.111 L 0 3.888 C 0 1.742 1.743 0 3.889 0 Z " fill="rgb(255,255,255)"/><clipPath id="_clipPath_LdADk9YPo3rUVrfK3bJbXiTvAd98Ara6"><path d=" M 3.889 0 L 31.111 0 C 33.257 0 35 1.742 35 3.888 L 35 31.111 C 35 33.257 33.257 35 31.111 35 L 3.889 35 C 1.743 35 0 33.257 0 31.111 L 0 3.888 C 0 1.742 1.743 0 3.889 0 Z " fill="rgb(255,255,255)"/></clipPath><g clip-path="url(#_clipPath_LdADk9YPo3rUVrfK3bJbXiTvAd98Ara6)"><g><path d=" M 25.26 35 L 19.82 35 L 19.82 21.002 L 15.546 21.002 L 15.546 15.634 L 20.015 15.634 C 20.145 11.557 21.15 8.847 23.032 7.506 L 23.032 7.506 C 24.133 6.46 25.725 6.183 27.193 6.193 L 31.438 6.193 L 31.467 12.031 L 27.863 12.059 C 26.434 12.624 25.679 13.815 25.601 15.634 L 31.187 15.634 L 31.187 21.002 L 25.26 21.002 L 25.26 35 Z " fill-rule="evenodd" fill="rgb(62,57,57)"/></g></g></g></svg>