<?xml version="1.0" standalone="no"?><!-- Generator: Gravit.io --><svg xmlns="http://www.w3.org/2000/svg" xmlns:xlink="http://www.w3.org/1999/xlink" style="isolation:isolate" viewBox="0 0 35 25.667" width="35" height="25.667"><clipPath id="_clipPath_Eouy6ytfKc05wtdvNhy9NQxI5VVpR3RG"><rect x="0" y="0" width="35" height="25.667" transform="matrix(1,0,0,1,0,0)" fill="rgb(255,255,255)"/></clipPath><g clip-path="url(#_clipPath_Eouy6ytfKc05wtdvNhy9NQxI5VVpR3RG)"><g><g><g><path d=" M 2.333 25.667 L 32.667 25.667 C 33.954 25.667 35 24.621 35 23.333 L 35 2.333 C 35 1.046 33.954 0 32.667 0 L 2.333 0 C 1.046 0 0 1.046 0 2.333 L 0 23.333 C 0 24.621 1.046 25.667 2.333 25.667 Z " fill="rgb(255,255,255)"/></g><path d=" M 14.156 15.726 L 16.469 18.057 C 17.038 18.632 17.962 18.632 18.531 18.057 L 20.844 15.726 C 21.412 15.152 22.337 15.152 22.905 15.726 L 31.051 23.939 C 31.62 24.513 32.408 24.65 32.811 24.244 L 32.811 24.244 C 33.213 23.838 33.077 23.043 32.508 22.469 L 24.364 14.255 C 23.795 13.681 23.795 12.75 24.364 12.176 L 33.967 2.492 C 34.535 1.918 34.67 1.123 34.269 0.717 L 34.269 0.717 C 33.866 0.311 33.077 0.448 32.508 1.022 L 22.905 10.706 C 22.337 11.28 21.412 12.211 20.844 12.785 L 18.531 15.117 C 17.962 15.69 17.038 15.69 16.469 15.117 L 2.492 1.022 C 1.923 0.448 1.134 0.311 0.731 0.717 L 0.731 0.717 C 0.33 1.123 0.465 1.918 1.033 2.492 L 10.636 12.176 C 11.205 12.75 11.205 13.681 10.636 14.255 L 2.492 22.469 C 1.923 23.043 1.787 23.838 2.189 24.244 L 2.189 24.244 C 2.592 24.65 3.38 24.513 3.949 23.939 L 12.095 15.726 C 12.663 15.152 13.588 15.152 14.156 15.726 Z " fill="rgb(62,57,57)"/></g></g></g></svg>