<?xml version="1.0" standalone="no"?><!-- Generator: Gravit.io --><svg xmlns="http://www.w3.org/2000/svg" xmlns:xlink="http://www.w3.org/1999/xlink" style="isolation:isolate" viewBox="0 0 350 463.212" width="350" height="463.212"><defs><clipPath id="_clipPath_rWexDqY1e8M8yZCas3NMt9l2CfV7tcG9"><rect width="350" height="463.212"/></clipPath></defs><g clip-path="url(#_clipPath_rWexDqY1e8M8yZCas3NMt9l2CfV7tcG9)"><path d=" M 191.781 57.839 L 193.294 57.839 L 194.556 56.33 L 195.061 56.33 L 195.061 56.079 L 196.072 56.079 L 197.837 54.821 L 199.099 54.821 L 199.099 54.569 L 200.864 54.569 L 200.864 54.319 L 202.127 54.319 L 202.884 55.826 L 204.146 56.33 L 204.146 58.593 L 204.651 58.844 L 206.669 58.844 L 207.93 57.839 L 208.183 58.593 L 208.436 58.844 L 209.696 58.844 L 210.706 59.85 L 210.706 60.353 L 211.464 60.857 L 212.726 60.857 L 212.726 59.347 L 212.978 58.342 L 213.231 58.342 L 213.231 57.084 L 212.978 57.084 L 212.978 56.833 L 213.483 56.33 L 214.24 56.33 L 213.986 56.079 L 213.734 54.821 L 215.249 53.313 L 216.509 53.061 L 216.763 52.055 L 217.52 50.797 L 218.275 50.545 L 218.529 50.043 L 218.529 49.037 L 218.275 48.785 L 218.275 48.282 L 219.286 47.025 L 219.54 46.272 L 220.043 46.019 L 221.054 45.516 L 222.314 45.516 L 224.332 46.019 L 225.343 46.019 L 234.426 43.504 L 234.426 48.032 C 234.808 48.228 235.064 48.576 235.436 48.785 L 235.436 48.785 L 235.436 48.785 L 235.436 48.785 L 235.688 48.534 L 235.436 47.277 L 235.436 46.272 L 235.185 46.019 L 235.185 45.516 L 235.941 44.762 L 236.447 44.762 L 236.447 44.51 C 236.871 44.75 236.716 43.972 236.699 43.756 L 236.699 43.756 L 236.699 43.756 L 236.699 43.756 L 236.95 43.756 L 236.699 43.504 L 236.193 43.254 L 236.193 42.75 L 236.447 42.248 C 237.306 41.708 237.794 40.881 238.213 39.984 L 238.213 39.984 L 238.213 39.984 L 238.213 39.984 L 240.736 38.476 L 243.764 35.96 L 244.521 36.967 L 244.521 37.72 L 244.016 38.223 C 244.981 38.813 246.002 39.292 247.044 39.733 L 247.044 39.733 L 247.044 39.733 L 247.044 39.733 L 248.81 38.728 L 248.558 38.223 L 248.053 38.476 L 246.539 38.223 L 246.539 36.967 L 248.558 35.457 L 248.558 34.199 L 255.118 30.679 L 254.867 32.189 L 256.129 31.434 L 256.129 30.679 L 256.885 30.931 L 257.641 31.434 L 258.903 30.931 L 259.661 31.937 L 260.419 32.691 L 260.671 32.439 L 262.185 32.439 L 263.698 29.673 L 265.717 27.913 L 266.978 27.411 L 267.231 28.416 L 267.231 29.422 L 268.493 30.679 L 269.754 30.679 L 269.251 32.189 L 269.503 32.943 L 270.259 34.955 L 270.765 36.464 L 271.774 37.47 L 273.792 37.972 L 276.821 38.978 L 278.839 42.498 L 278.082 43.002 L 280.1 43.254 L 281.11 42.498 L 280.857 44.008 L 281.362 44.762 L 281.868 44.258 L 282.119 44.258 L 282.876 46.019 C 283.561 46.731 284.16 47.499 285.147 47.781 L 285.147 47.781 L 285.147 47.781 L 285.147 47.781 L 285.653 47.529 L 285.905 46.774 C 285.269 46.139 284.541 45.438 285.905 45.516 L 285.905 45.516 L 285.905 45.516 L 285.905 45.516 L 287.924 45.014 L 290.193 44.008 L 291.456 43.002 C 291.85 43.371 292.252 43.73 292.718 44.008 L 292.718 44.008 L 292.718 44.008 L 292.718 44.008 L 295.999 46.272 L 295.493 47.781 L 295.241 49.037 C 292.996 50.332 294.905 51.878 296.25 53.061 L 296.25 53.061 L 296.25 53.061 L 296.25 53.061 L 297.513 53.563 L 297.764 54.319 L 297.764 55.323 L 299.027 55.575 L 300.035 56.079 L 299.783 57.084 L 298.016 58.844 L 297.513 59.095 L 296.755 60.102 L 296.755 60.857 C 296.292 61.141 298.482 62.26 298.773 62.366 L 298.773 62.366 L 298.773 62.366 L 298.773 62.366 L 299.531 63.37 L 301.046 64.628 L 305.586 67.143 L 307.858 67.898 L 310.382 67.898 L 312.652 66.64 L 313.662 66.891 L 313.662 67.898 L 311.392 69.658 L 313.158 70.161 L 313.914 71.669 L 315.428 76.447 L 315.428 79.968 L 317.7 83.992 C 318.619 88.429 318.95 93.167 321.485 97.069 L 321.485 97.069 L 321.485 97.069 L 321.485 97.069 L 320.476 98.829 L 319.466 100.085 L 319.971 103.606 L 318.962 108.385 L 316.942 110.899 L 313.914 113.163 L 311.643 115.175 L 312.4 118.945 L 312.148 121.209 C 309.787 121.107 312.193 122.905 312.906 123.472 L 312.906 123.472 L 312.906 123.472 L 312.906 123.472 L 314.672 123.724 L 317.7 126.239 L 321.737 128.503 L 323.251 131.52 L 326.785 134.035 L 331.325 137.305 L 330.065 141.075 L 331.073 142.585 L 328.045 146.609 L 328.299 150.38 L 330.317 153.65 L 330.317 154.655 L 331.073 155.913 L 333.093 156.667 L 335.112 157.673 L 334.859 158.931 L 334.355 160.187 L 334.859 161.445 L 334.607 165.218 L 335.112 165.971 L 337.13 167.48 L 336.625 168.486 L 336.373 170.246 L 335.364 172.258 L 335.364 176.785 L 334.859 178.043 L 333.85 179.803 L 332.335 181.311 L 331.579 182.317 L 331.831 184.33 L 333.346 186.089 C 333.862 186.666 333.829 187.373 333.85 188.102 L 333.85 188.102 L 333.85 188.102 L 333.85 188.102 L 334.102 189.108 L 334.859 190.112 L 336.121 191.118 C 336.746 191.412 337.266 191.784 337.635 192.376 L 337.635 192.376 L 337.635 192.376 L 337.635 192.376 L 337.887 193.131 L 338.139 193.886 L 338.644 195.647 L 337.887 197.406 L 337.382 198.663 L 337.13 200.173 L 337.887 201.177 L 339.906 202.435 L 341.169 202.435 L 343.438 203.441 L 346.214 204.698 L 346.97 205.955 L 346.97 207.716 L 347.476 210.734 L 347.729 212.242 L 348.486 213.5 L 350 215.513 L 350 218.027 L 349.243 220.541 L 349.243 223.81 L 348.486 225.319 C 348.442 226.675 348.516 228.067 347.981 229.343 L 347.981 229.343 L 347.981 229.343 L 347.981 229.343 L 346.97 232.108 L 345.962 235.882 L 344.952 237.642 L 343.692 239.402 L 343.438 241.163 L 342.682 243.425 L 340.411 243.676 L 337.13 241.915 L 336.625 241.665 L 336.625 240.407 L 337.13 239.151 L 337.382 238.144 L 336.373 236.886 L 335.364 237.893 L 334.607 238.144 L 334.355 237.39 L 335.112 236.132 L 334.859 234.624 L 333.598 232.864 L 332.083 232.612 L 331.073 231.354 L 330.821 230.098 L 330.317 230.348 L 330.317 231.354 L 328.551 231.606 L 327.793 232.108 L 327.037 232.108 L 326.532 231.606 L 325.776 231.104 L 324.766 230.852 L 323.251 230.852 L 322.242 231.858 L 321.737 233.114 L 320.98 234.875 L 321.989 235.378 L 323.251 235.378 L 323.251 236.132 L 324.008 237.138 L 326.027 238.144 L 326.785 238.144 L 326.785 239.402 L 326.027 240.155 L 324.261 240.407 L 322.999 240.407 L 321.231 240.911 L 319.719 242.419 L 317.448 243.929 L 314.923 245.185 L 313.662 245.689 L 311.14 245.689 L 310.382 246.443 L 309.877 247.197 L 308.868 247.197 L 308.111 247.7 L 308.111 249.964 L 306.849 250.718 L 305.335 250.97 L 303.821 250.718 L 301.55 251.724 L 298.269 251.975 L 295.746 252.227 L 293.98 253.736 L 294.737 254.741 L 294.484 255.496 L 293.475 256.501 L 293.727 257.256 L 293.223 258.01 L 291.709 259.268 L 289.941 258.01 L 288.679 257.508 L 287.167 258.514 L 285.905 261.279 L 283.886 260.275 L 283.128 261.279 L 282.119 264.297 L 281.11 265.304 L 278.839 265.805 L 277.073 266.057 L 275.306 266.057 L 275.054 267.566 L 274.8 269.83 L 273.034 271.34 L 271.774 271.34 L 268.745 269.326 L 267.483 269.326 L 267.231 269.83 L 265.212 269.83 L 262.941 272.596 L 260.671 272.344 L 257.641 272.846 L 256.633 272.846 L 254.361 274.356 L 253.858 275.864 L 253.1 276.87 L 251.586 277.625 L 250.576 279.386 L 249.567 280.895 L 248.558 282.906 L 248.053 284.667 L 248.558 286.427 L 248.558 287.181 L 247.549 286.679 L 247.044 284.919 L 245.782 282.906 L 246.287 282.151 L 246.035 281.399 L 244.016 281.147 L 243.51 280.141 L 243.51 278.883 L 241.996 277.878 L 238.464 277.374 L 238.464 278.128 L 239.222 278.631 L 240.482 280.391 L 240.23 281.147 L 239.222 282.655 L 239.474 283.409 L 240.482 284.163 L 241.491 284.919 C 243.349 285.121 243.515 287.801 243.258 289.193 L 243.258 289.193 L 243.258 289.193 L 243.258 289.193 L 243.258 290.45 L 244.269 291.456 L 245.782 293.216 L 246.035 294.977 L 252.092 297.994 L 253.1 298.749 L 254.867 298.749 L 254.867 301.515 L 257.137 303.024 L 257.137 303.779 L 256.633 305.035 L 255.875 306.795 L 254.867 306.795 L 254.361 308.305 L 254.615 310.065 L 253.858 311.072 L 252.848 311.072 L 251.586 312.579 L 252.344 313.586 L 252.848 314.843 L 254.615 316.602 L 256.885 317.86 L 256.885 318.616 L 256.633 319.621 L 256.885 320.627 L 259.155 322.136 L 258.903 323.645 L 259.914 325.405 L 260.671 326.663 L 262.185 326.915 L 261.932 329.681 L 262.689 331.692 L 266.221 333.955 L 266.726 334.961 L 267.737 336.722 L 269.251 337.728 L 272.782 337.98 L 272.782 337.224 L 273.792 336.972 L 274.548 337.476 L 275.559 338.23 L 277.325 339.488 L 277.325 340.493 L 278.082 341.248 L 279.596 343.008 L 280.857 344.517 L 282.876 346.781 L 284.644 349.797 L 285.905 350.301 L 287.671 350.552 L 288.933 350.552 L 290.193 351.809 L 292.213 354.073 L 293.223 355.33 L 293.223 356.588 L 293.475 357.594 L 294.484 358.598 L 295.746 359.606 L 297.513 360.612 L 298.016 360.359 L 298.269 358.852 L 299.027 358.348 L 300.035 358.852 L 301.55 359.606 L 302.306 360.108 L 302.812 361.366 L 303.569 362.622 L 304.578 363.63 L 306.092 363.88 L 307.1 363.88 L 310.129 369.161 L 310.886 370.167 L 310.634 371.424 L 309.877 372.431 L 309.877 373.687 L 310.886 374.191 L 310.634 375.197 L 310.886 376.454 L 311.14 378.216 L 310.634 380.226 L 309.877 381.987 L 308.617 382.238 L 307.858 383.244 L 307.858 383.998 L 307.1 384.249 L 306.344 383.496 L 304.83 382.238 L 302.306 381.484 L 299.783 380.98 L 298.269 381.484 L 297.007 382.238 L 296.503 382.992 L 296.755 383.746 L 297.007 385.004 L 297.259 386.009 L 296.755 387.017 L 296.503 387.769 L 296.503 389.531 L 296.503 390.788 L 296.25 391.543 L 295.999 393.303 L 295.241 394.057 L 291.456 397.578 L 290.447 398.331 L 289.437 398.583 L 287.924 398.834 L 285.905 399.086 L 284.39 399.589 L 282.623 400.344 L 281.614 400.846 L 280.1 401.35 L 278.082 403.362 L 274.044 405.876 L 268.745 411.409 L 268.999 414.175 L 273.288 416.94 L 273.792 420.713 L 276.821 422.976 L 279.596 427 L 277.83 431.275 L 276.568 434.041 L 277.578 436.304 L 280.354 436.053 L 281.614 435.047 L 283.633 439.573 L 282.371 443.346 L 281.868 446.615 L 282.876 448.626 L 281.868 449.38 L 279.344 449.38 L 275.811 447.621 L 274.548 445.86 L 272.278 444.1 L 273.54 441.082 L 271.017 439.07 L 271.52 437.562 L 270.765 437.814 L 269.251 437.814 L 267.988 437.31 L 266.221 437.31 L 264.96 437.562 L 263.951 438.317 L 262.941 439.321 L 261.932 440.077 L 259.914 440.328 L 258.903 439.321 L 258.147 438.819 L 258.147 438.063 L 257.641 437.31 L 256.885 436.557 L 256.129 436.557 L 255.118 437.059 L 254.867 437.31 L 253.1 437.31 L 251.586 436.808 L 250.324 437.31 L 249.567 437.562 L 249.315 436.808 L 249.315 436.304 L 249.819 435.801 L 249.819 435.047 L 250.071 434.795 L 250.071 434.543 L 249.062 434.543 L 247.801 435.549 L 247.044 436.053 L 246.539 436.053 L 246.539 437.059 L 247.549 438.567 L 247.801 439.573 L 247.801 440.83 L 246.792 441.837 L 246.792 442.34 L 244.016 442.34 L 244.016 442.088 L 236.447 442.088 L 236.447 442.34 L 235.185 442.34 L 233.922 442.842 L 232.912 443.094 L 232.66 444.1 L 232.408 444.35 L 231.651 444.1 L 230.137 443.848 L 225.846 443.848 L 223.829 443.598 L 223.071 444.35 L 222.314 445.608 L 221.81 447.118 L 221.054 448.124 L 220.296 448.626 L 219.286 448.879 L 217.772 448.626 L 216.006 448.626 L 214.997 449.129 L 214.744 449.632 L 213.734 450.889 L 213.231 451.393 L 213.734 451.895 L 214.492 451.895 L 214.24 452.399 L 213.986 452.649 L 212.726 452.649 L 212.22 452.649 L 211.717 452.903 L 211.464 452.903 L 210.958 453.405 L 209.696 454.663 L 208.94 455.415 L 208.183 455.667 L 207.93 455.667 L 207.93 453.907 L 207.173 453.655 L 206.417 453.405 L 205.407 453.907 L 204.146 454.411 L 202.63 455.919 C 201.806 455.942 197.744 457.251 197.585 455.415 L 197.585 455.415 L 197.585 455.415 L 197.585 455.415 L 197.333 454.663 L 197.585 453.655 L 194.556 451.142 L 193.799 450.638 L 193.042 450.387 L 193.294 449.884 L 193.799 449.632 L 194.556 449.129 L 194.556 448.374 L 192.791 447.369 L 192.033 447.369 L 191.024 447.873 L 190.014 448.374 L 189.005 448.626 L 188.753 448.626 L 188.248 447.873 L 183.202 445.86 L 182.697 445.608 L 181.434 445.608 L 180.678 445.86 L 180.426 446.364 L 179.668 447.369 L 179.416 447.621 L 178.154 447.621 L 176.892 447.118 L 176.388 446.615 L 176.64 445.86 L 176.388 444.604 L 175.883 444.604 L 175.126 444.604 L 174.369 445.106 L 174.117 445.608 L 174.369 446.364 L 174.622 446.866 L 174.874 447.621 L 174.622 449.38 L 174.369 450.387 L 174.874 450.638 C 175.459 450.929 175.415 451.611 175.631 452.147 L 175.631 452.147 L 175.631 452.147 L 175.631 452.147 L 175.378 453.655 L 175.378 454.913 L 174.874 455.165 L 174.622 455.919 L 174.117 456.674 L 173.36 457.176 L 172.603 457.428 L 172.099 458.183 L 171.594 459.189 L 170.584 460.445 L 169.322 461.703 L 168.312 462.206 L 166.798 462.96 L 164.529 463.212 L 164.275 463.212 L 164.275 462.96 L 165.537 461.954 L 165.789 460.696 L 166.043 459.439 L 166.295 458.685 L 166.295 457.176 L 165.537 456.674 L 164.781 456.674 L 164.275 456.925 L 163.267 456.925 L 162.509 457.68 L 162.004 457.428 L 161.499 457.428 L 160.742 457.68 L 160.49 456.171 L 160.238 455.165 L 160.995 454.663 L 160.995 453.655 L 159.733 451.895 L 158.724 450.135 L 157.967 450.135 L 157.715 450.387 L 157.463 450.638 L 156.958 450.638 L 156.958 449.884 L 156.453 448.879 L 155.695 448.124 L 155.444 447.118 L 155.192 446.866 L 154.687 446.866 L 154.181 447.369 L 153.173 447.369 L 152.163 447.118 L 151.405 446.866 L 150.65 447.118 L 149.892 446.615 L 149.892 444.854 L 149.136 444.35 L 148.378 443.848 L 147.622 443.848 L 147.116 444.604 L 146.864 444.604 L 146.359 445.106 L 145.854 445.86 L 144.593 447.621 L 144.088 447.873 L 141.06 447.873 L 140.05 447.621 L 129.2 441.082 L 127.938 439.825 L 126.172 439.573 L 124.911 439.573 L 124.405 439.07 L 123.649 438.567 L 120.115 438.317 L 118.601 438.317 L 117.34 438.063 L 116.835 438.063 L 115.826 438.567 L 115.069 439.321 L 114.059 439.321 L 113.05 439.573 L 112.041 439.573 L 110.274 438.063 L 110.022 437.814 L 110.779 437.814 L 110.779 437.059 L 109.77 436.304 L 108.004 435.299 L 106.742 435.299 L 106.236 436.053 L 106.236 436.808 L 105.479 436.557 L 104.974 437.059 L 104.722 436.053 L 104.47 435.299 L 104.974 434.543 L 105.227 433.287 L 104.217 432.783 L 103.965 432.783 L 103.208 432.281 L 103.208 431.779 L 102.199 430.772 L 101.695 430.772 L 101.442 431.275 L 100.938 431.779 L 100.938 432.783 L 100.433 432.281 L 100.433 431.023 L 99.676 430.269 L 98.667 430.269 L 97.908 430.269 L 97.152 430.772 L 97.405 431.023 L 97.405 431.779 L 96.648 431.779 L 96.394 432.029 L 95.134 432.029 L 94.628 432.029 L 93.871 432.783 L 93.367 433.539 L 93.115 434.293 L 92.611 435.047 L 92.105 435.299 L 91.349 435.549 L 90.845 436.053 L 90.845 436.808 L 91.097 437.814 L 90.845 438.567 L 91.601 439.07 L 92.611 439.573 L 93.367 440.328 L 94.377 440.579 L 95.637 440.328 L 96.9 439.321 C 97.512 439.281 99.758 438.741 99.424 440.077 L 99.424 440.077 L 99.424 440.077 L 99.424 440.077 L 98.919 440.077 L 98.667 440.579 L 98.667 441.082 L 98.667 442.088 L 98.414 442.842 L 97.908 442.59 L 97.405 441.586 L 96.648 440.83 L 96.142 440.83 L 95.385 441.082 L 94.881 441.334 L 93.871 441.837 L 93.619 442.088 L 93.367 442.59 L 92.863 443.094 L 92.359 443.346 L 90.339 443.346 L 90.086 443.094 L 88.825 443.094 L 87.815 442.842 L 87.563 442.088 L 87.563 441.334 L 86.806 440.83 L 85.545 440.579 L 83.526 440.579 L 82.012 441.082 L 81.507 441.586 L 79.741 442.34 L 78.478 443.848 C 76.532 443.92 72.627 445.514 71.413 443.094 L 71.413 443.094 L 71.413 443.094 L 71.413 443.094 L 70.909 442.34 L 69.647 442.088 L 68.386 442.088 L 67.629 441.586 L 67.124 442.088 L 66.367 443.094 L 65.862 443.598 L 65.104 444.35 L 64.096 444.35 L 62.329 444.604 C 61.508 444.576 60.808 444.129 60.059 443.848 L 60.059 443.848 L 60.059 443.848 L 60.059 443.848 L 60.815 443.094 L 61.067 442.34 L 61.573 441.586 L 61.319 441.082 L 60.059 441.586 L 58.545 441.586 L 58.545 440.579 L 57.534 439.825 L 57.534 439.07 L 57.028 438.317 L 57.028 437.814 L 56.273 436.808 L 55.768 436.304 L 55.516 434.795 L 56.777 433.789 L 56.777 432.029 L 56.525 430.521 L 56.273 430.018 L 56.525 429.514 L 56.525 428.761 L 57.028 428.005 L 57.787 427.252 L 58.039 427 L 57.787 424.234 L 58.291 423.732 L 58.796 422.724 L 58.796 421.468 L 59.301 420.713 L 60.563 419.455 L 60.563 416.94 L 59.807 415.432 L 59.049 413.923 L 59.049 410.403 L 59.553 409.397 L 60.563 408.139 L 60.563 406.631 L 62.076 405.122 L 62.833 403.864 L 63.842 402.354 L 64.348 401.098 L 64.348 399.589 L 64.599 398.583 L 65.61 398.082 L 66.367 397.326 L 66.872 396.321 L 66.872 395.566 L 66.367 394.561 L 66.367 392.046 L 66.872 391.039 L 67.881 389.279 L 67.881 387.519 L 68.638 386.765 L 69.647 386.261 L 69.647 385.256 L 69.143 384.249 L 69.395 382.238 L 69.899 379.975 L 71.161 378.718 L 71.918 377.46 L 72.675 377.46 L 72.927 376.958 L 73.432 376.958 L 74.694 375.448 L 76.208 373.939 L 76.208 371.928 L 78.732 371.928 L 79.235 370.167 L 80.497 369.663 L 81.001 369.413 L 82.517 366.899 L 83.779 363.88 L 84.788 362.121 L 86.049 360.108 L 85.797 359.606 L 85.292 359.102 L 84.536 358.598 L 83.779 358.852 L 82.517 358.348 L 79.992 357.342 L 77.469 355.834 C 76.582 355.125 75.541 354.794 74.441 354.576 L 74.441 354.576 L 74.441 354.576 L 74.441 354.576 L 71.666 354.576 C 70.717 354.306 69.819 353.897 68.89 353.569 L 68.89 353.569 L 68.89 353.569 L 68.89 353.569 L 68.132 353.569 L 66.872 354.325 L 65.862 353.821 L 64.348 353.821 L 64.096 354.073 L 63.59 354.073 L 63.087 353.821 L 63.087 353.318 L 62.329 352.314 L 60.815 351.809 L 59.049 351.307 L 57.787 349.045 L 57.534 348.037 L 57.534 346.781 L 56.273 346.529 L 55.263 346.529 L 54.507 345.523 L 53.245 345.523 L 52.739 345.773 L 51.731 346.027 L 51.227 347.283 L 51.227 347.787 L 50.217 347.787 L 49.206 348.541 L 48.954 349.045 L 47.694 348.791 L 47.188 348.541 L 44.16 348.541 L 41.637 346.781 L 40.88 346.529 L 40.627 347.031 L 40.627 348.289 L 39.869 348.541 L 39.366 348.037 L 38.86 347.031 L 38.86 344.769 L 39.114 344.266 L 37.852 344.266 L 35.077 342.504 L 33.058 342.504 L 31.795 342.003 L 31.29 342.253 L 31.29 343.26 L 31.29 345.02 L 31.29 345.523 L 30.786 346.027 L 29.02 345.271 L 27.255 345.271 L 26.749 344.769 L 26.749 343.762 L 27.001 342.253 L 26.497 341.5 L 25.992 341.751 L 25.739 341.5 L 25.487 339.74 L 24.73 339.488 L 24.478 338.23 L 23.216 336.972 L 22.207 335.716 L 21.197 334.71 L 21.197 333.703 L 22.207 333.955 L 22.207 332.697 L 21.701 331.944 L 20.189 330.183 L 19.935 328.675 L 18.927 327.667 L 17.159 326.663 L 15.645 326.159 L 15.393 325.657 L 14.384 325.657 L 13.375 326.663 L 13.375 323.896 L 14.131 321.381 L 14.384 319.118 L 15.898 317.61 L 16.907 315.85 L 16.907 313.586 L 17.664 313.837 L 18.675 313.334 L 19.935 312.33 L 20.693 312.078 L 20.189 310.317 L 19.935 309.562 L 20.441 309.059 L 20.441 307.551 L 20.945 306.293 L 19.935 305.791 L 18.927 305.035 L 17.411 305.287 L 16.402 304.785 L 15.393 304.281 L 14.888 303.527 L 13.627 302.772 L 13.375 303.024 L 12.87 303.024 L 12.87 302.521 L 12.365 301.767 L 11.861 301.265 L 10.599 300.51 L 9.589 298.749 L 8.831 296.486 L 7.823 295.228 L 7.318 295.732 L 7.318 294.726 L 6.562 292.965 L 6.308 290.954 L 5.804 289.948 L 6.562 289.193 L 6.562 288.69 L 6.056 288.69 L 6.562 286.427 L 7.57 285.17 L 7.065 284.919 L 7.318 283.409 L 7.57 283.158 L 8.328 283.158 L 8.831 282.403 L 8.831 281.147 L 8.328 280.141 L 9.337 279.386 L 10.599 278.38 L 11.61 278.38 L 12.618 277.878 L 13.375 277.374 L 13.122 276.62 L 13.375 275.614 L 14.384 275.11 L 14.636 275.362 L 16.907 275.362 L 17.411 274.86 L 17.411 273.099 L 16.15 270.584 L 16.654 269.83 L 16.907 268.321 L 16.907 266.813 L 16.15 266.057 L 16.15 264.8 L 16.654 264.297 L 16.15 264.045 L 15.393 263.795 L 14.131 263.795 L 13.122 262.789 L 12.618 263.039 L 12.365 263.292 L 11.356 263.292 L 10.852 262.285 L 11.104 261.531 L 10.347 261.531 L 10.599 260.777 L 10.094 259.771 L 11.861 258.514 L 13.122 257.759 L 13.627 256.754 L 13.375 255.998 L 12.87 255.748 L 10.347 255.245 L 10.094 254.49 L 10.094 253.988 L 8.831 251.724 L 7.823 250.214 L 6.562 249.209 L 6.056 249.209 L 4.796 249.712 L 4.796 247.951 L 4.29 247.449 L 4.29 246.191 L 3.534 244.933 L 4.796 244.179 L 4.796 242.419 L 5.551 241.915 L 5.804 242.168 L 6.308 242.168 L 7.318 241.163 L 7.318 239.402 L 7.318 238.144 L 7.065 237.39 L 6.308 237.39 L 5.3 236.635 L 5.048 236.132 L 5.048 234.624 L 5.551 233.869 L 5.048 233.366 L 3.786 233.366 L 2.524 233.114 L 1.514 233.114 L 0.757 233.618 L 0.505 232.108 L 0 230.852 L 0 229.343 L 1.009 229.343 L 1.262 229.846 L 1.514 230.348 L 2.524 230.348 L 3.282 230.348 L 4.038 229.343 L 4.542 228.337 L 5.3 227.583 L 6.562 226.827 L 8.075 225.821 L 9.085 225.319 L 11.61 223.81 L 11.61 223.307 L 11.104 222.553 L 12.113 221.799 L 12.365 221.547 L 11.61 221.297 L 10.852 220.793 L 9.842 221.547 L 9.085 222.049 L 8.58 222.049 L 8.328 221.043 L 8.328 219.033 L 9.085 218.027 L 10.347 216.769 L 11.356 215.008 L 12.113 213.5 L 13.122 212.998 L 13.879 211.992 L 14.384 210.984 L 14.636 209.728 L 14.384 208.722 L 14.384 207.464 L 14.888 205.703 L 14.636 203.693 L 14.636 201.177 L 12.87 199.167 L 11.104 196.399 L 10.852 195.142 L 11.356 193.382 L 10.599 192.376 L 8.831 191.622 L 8.328 191.118 L 8.328 190.366 L 8.831 189.61 L 8.831 188.856 L 8.075 188.102 L 7.065 187.598 L 5.804 187.598 L 5.804 187.095 L 6.562 186.592 L 6.814 186.341 L 6.814 184.33 L 6.308 183.574 L 5.804 183.072 L 6.308 182.569 L 6.814 182.317 L 8.328 182.317 L 9.337 181.563 L 11.104 181.061 L 12.113 181.311 L 13.122 181.563 L 14.131 182.065 L 14.384 181.061 L 13.879 180.557 L 12.87 179.301 L 12.87 178.797 L 13.122 178.545 L 13.879 179.049 L 14.888 180.053 L 15.393 180.305 L 16.402 180.809 L 17.411 180.809 L 17.917 180.557 L 18.421 181.563 L 18.927 182.065 L 20.189 182.317 L 20.693 182.569 L 20.693 183.574 L 21.449 183.323 C 22.287 183.499 22.653 183.396 22.964 182.569 L 22.964 182.569 L 22.964 182.569 L 22.964 182.569 L 22.964 181.563 L 23.467 181.563 L 23.721 181.814 L 24.478 182.065 L 26.244 182.065 L 27.758 180.809 L 29.777 180.053 L 31.543 179.551 L 35.328 179.551 L 37.094 178.545 L 38.104 177.287 L 38.357 176.533 L 39.366 175.781 L 39.366 174.271 L 38.609 173.265 L 37.852 172.51 L 36.842 172.007 L 35.834 171.252 L 34.824 171.002 L 34.824 169.744 L 36.086 169.24 L 36.591 167.984 L 38.104 166.978 L 39.114 166.726 L 40.627 166.726 L 41.637 165.218 L 43.404 163.708 L 44.665 163.206 L 45.674 161.697 L 47.188 160.439 L 48.449 159.685 L 48.449 158.931 L 48.197 158.177 L 47.945 156.163 L 49.206 153.901 L 49.459 152.392 L 49.459 151.134 L 48.954 149.878 L 48.449 148.872 L 47.44 147.362 L 46.936 145.854 L 46.179 145.854 L 45.17 146.609 L 43.404 146.86 C 42.149 146.68 41.036 146.056 39.869 145.602 L 39.869 145.602 L 39.869 145.602 L 39.869 145.602 L 38.357 145.602 L 37.6 145.099 L 36.842 144.346 L 36.338 143.088 L 36.338 140.321 L 36.842 140.321 L 37.852 139.817 L 38.86 139.315 L 37.6 137.555 L 37.6 136.801 L 37.6 135.544 L 38.86 134.789 L 40.375 134.537 L 41.889 134.537 L 43.404 134.789 L 44.665 135.544 L 45.422 135.544 L 47.188 135.293 L 47.945 135.795 L 48.954 136.047 L 49.711 134.789 L 50.217 133.531 L 50.469 131.017 L 50.722 128.25 L 51.227 124.48 L 52.236 121.461 L 54.253 119.449 L 55.768 116.181 L 57.028 112.911 L 57.282 107.882 L 56.02 105.115 L 57.534 102.098 L 57.282 98.075 L 58.796 96.565 L 58.796 95.057 L 60.059 94.301 L 61.573 94.553 L 63.087 95.811 L 63.842 95.559 L 63.338 93.799 L 61.319 92.793 L 59.049 92.541 L 56.777 92.291 L 53.497 92.039 L 52.236 91.788 L 51.731 90.028 L 51.479 87.01 L 53.497 81.476 L 55.263 82.232 L 56.525 80.471 L 55.516 78.711 L 54.507 78.208 L 55.516 76.699 L 57.282 75.443 L 59.807 73.429 L 62.581 71.921 L 65.104 72.173 L 68.132 71.921 L 69.395 72.927 L 71.918 72.675 L 84.788 70.915 L 86.806 71.167 L 88.32 71.921 L 88.068 72.927 L 87.563 73.933 L 88.32 74.939 L 89.835 77.705 L 91.601 79.213 L 91.097 79.968 L 92.611 80.974 L 92.611 82.484 L 91.349 83.236 L 89.581 83.236 L 88.825 83.992 L 88.825 84.746 L 89.329 86.004 L 90.086 87.764 L 91.853 87.513 L 92.863 88.267 L 93.619 89.524 L 94.881 90.278 L 96.9 90.028 L 97.908 88.518 L 98.667 86.758 L 98.919 84.997 L 98.919 83.74 L 97.656 82.232 L 95.891 82.484 L 95.891 80.974 L 96.648 79.213 L 96.9 77.705 L 99.171 77.955 L 100.181 79.213 L 102.199 80.974 L 105.479 81.728 L 106.49 82.232 L 105.731 83.236 L 104.722 84.244 L 104.217 86.004 L 103.965 89.272 L 104.217 92.039 L 105.227 94.301 L 105.984 89.775 L 105.479 88.518 L 105.479 86.506 L 106.236 85.25 L 107.498 83.74 L 108.256 81.98 L 107.246 79.716 L 105.984 76.447 L 105.479 74.185 L 105.227 72.173 L 106.742 69.154 L 107.498 66.64 L 108.004 64.88 L 109.012 62.618 L 110.527 61.61 L 112.041 61.36 L 113.301 62.618 L 114.815 64.126 L 117.34 64.628 L 118.601 65.131 L 120.621 65.131 L 123.397 64.628 L 124.405 64.628 L 126.677 63.37 L 133.491 63.37 L 134.246 63.874 L 134.751 65.131 L 135.508 66.891 L 136.769 68.905 L 138.283 71.419 L 139.799 73.429 L 140.808 73.933 L 141.06 75.443 L 141.313 76.196 L 142.322 77.454 L 143.331 78.963 L 144.34 80.471 L 146.105 80.723 L 147.116 81.476 L 148.884 82.484 L 150.901 82.734 L 152.919 83.236 L 154.181 82.986 L 153.928 82.232 L 152.667 81.226 L 151.405 80.471 L 149.892 80.471 L 149.136 80.471 L 148.126 80.219 L 147.622 79.968 L 146.611 79.213 L 145.097 78.459 L 143.836 77.203 L 143.583 75.693 L 143.331 73.429 L 143.079 71.921 L 141.565 71.167 L 140.556 70.664 L 139.294 69.406 L 138.788 67.898 L 138.536 66.138 L 138.283 64.88 L 136.769 63.874 L 135.003 62.868 L 133.237 61.36 L 130.714 60.857 L 129.452 60.604 L 126.929 60.857 L 125.667 60.353 L 124.154 60.102 L 123.649 60.857 L 123.143 60.353 L 121.881 59.347 L 119.358 54.319 L 118.854 53.313 L 118.601 52.557 L 119.61 51.803 L 120.621 52.055 L 121.376 52.809 L 122.387 53.313 L 123.397 53.563 L 124.657 52.557 L 124.911 50.545 L 124.911 48.282 L 123.901 47.277 L 123.397 45.516 L 121.629 45.265 L 120.621 45.516 L 119.106 46.774 L 118.854 45.014 L 117.844 43.756 L 118.097 43.002 L 119.358 40.487 L 118.854 39.48 L 119.358 38.728 L 120.367 38.476 L 121.629 38.728 L 122.135 37.72 L 123.397 35.709 L 123.143 34.955 L 122.638 34.955 L 120.873 35.96 L 119.863 35.709 L 119.61 35.96 L 118.349 35.96 L 117.592 36.715 L 115.069 35.96 L 114.059 36.715 L 112.797 37.47 L 111.536 36.715 L 110.779 35.207 L 110.527 33.447 L 111.787 32.943 L 113.301 32.943 L 113.807 33.193 L 113.807 31.937 L 112.293 31.183 L 111.787 30.931 L 112.041 30.177 L 113.05 30.429 L 114.564 29.925 L 115.826 29.673 L 120.621 29.673 L 122.638 28.164 L 125.415 26.405 L 125.163 23.386 L 124.405 22.13 L 122.638 20.118 L 120.873 18.106 L 119.863 17.101 L 119.106 15.088 L 118.349 12.573 L 116.835 11.567 L 115.069 10.059 L 114.312 9.807 L 114.564 8.047 L 114.312 6.539 L 113.301 5.029 L 113.05 4.276 L 113.05 1.761 L 113.807 0.754 L 115.826 0.754 L 116.583 0.754 L 117.844 0 L 120.367 0 L 121.629 0.503 L 123.901 1.258 L 125.415 2.262 L 126.677 2.516 L 128.19 2.766 L 130.209 3.018 L 131.725 3.52 L 132.228 4.276 L 132.48 5.533 L 133.237 6.539 L 137.022 6.539 L 138.283 5.533 L 139.294 6.287 L 140.05 6.287 L 141.817 5.784 C 142.902 4.893 144.175 4.281 145.349 3.52 L 145.349 3.52 L 145.349 3.52 L 145.349 3.52 L 145.097 4.526 L 146.105 5.281 L 148.126 5.784 L 149.892 5.784 C 150.655 6.665 151.802 7.041 152.667 7.797 L 152.667 7.797 L 152.667 7.797 L 152.667 7.797 L 153.425 9.556 L 154.687 9.556 L 156.201 9.053 L 156.706 8.801 L 156.706 7.797 L 157.21 7.545 L 158.219 8.047 L 158.976 9.305 L 158.976 10.563 L 159.733 11.819 L 159.733 12.323 L 158.724 12.573 L 157.967 13.077 L 157.21 13.579 L 156.958 14.585 L 158.724 14.333 L 159.985 14.585 L 160.995 15.34 L 161.247 17.101 L 160.995 19.112 L 160.49 21.124 L 160.49 22.13 L 159.733 23.134 L 158.724 24.142 L 156.453 25.148 L 155.949 25.399 L 153.928 25.399 L 153.928 26.405 L 155.695 27.411 L 156.958 27.411 L 159.229 26.655 L 162.761 26.153 L 164.275 25.399 L 165.032 25.399 L 165.285 26.153 L 166.546 26.908 L 166.295 29.171 L 166.798 30.429 L 166.043 31.434 L 165.285 32.189 L 164.781 32.439 L 164.529 33.193 L 164.529 33.697 L 165.032 33.949 L 164.781 34.703 L 164.529 35.709 L 165.537 35.709 L 167.556 32.943 L 168.06 31.937 L 168.312 30.429 L 169.574 29.925 L 170.332 29.422 L 171.089 28.668 L 172.603 28.919 L 173.36 29.171 L 174.369 30.177 L 175.883 31.183 L 178.911 32.189 L 180.426 32.943 L 181.434 33.697 L 182.949 34.955 L 183.957 35.96 L 185.471 36.464 L 186.229 36.715 L 187.996 36.464 L 188.753 35.709 L 190.267 34.703 L 191.528 33.447 L 193.547 32.439 L 195.567 32.691 L 197.585 33.447 L 198.342 35.207 L 198.342 37.47 L 198.342 39.733 L 198.593 41.744 L 197.837 42.75 L 197.585 43.756 L 196.575 44.51 L 195.313 45.014 L 193.799 46.272 L 192.537 47.529 L 191.528 48.534 L 190.519 49.037 L 189.762 49.288 L 189.005 48.785 L 188.248 49.792 L 187.744 50.545 L 186.482 52.305 L 186.985 54.065 L 188.248 55.575 L 190.014 56.079 L 191.024 55.826 L 191.024 57.588 L 191.781 57.839 Z " fill="rgb(174,174,174)"/></g></svg>