<?xml version="1.0" standalone="no"?><!-- Generator: Gravit.io --><svg xmlns="http://www.w3.org/2000/svg" xmlns:xlink="http://www.w3.org/1999/xlink" style="isolation:isolate" viewBox="1210.105 239 241.79 320" width="241.79" height="320"><path d=" M 1342.593 278.957 L 1343.638 278.957 L 1344.51 277.914 L 1344.859 277.914 L 1344.859 277.741 L 1345.557 277.741 L 1346.777 276.872 L 1347.648 276.872 L 1347.648 276.698 L 1348.868 276.698 L 1348.868 276.525 L 1349.74 276.525 L 1350.263 277.566 L 1351.135 277.914 L 1351.135 279.478 L 1351.484 279.651 L 1352.878 279.651 L 1353.749 278.957 L 1353.924 279.478 L 1354.098 279.651 L 1354.969 279.651 L 1355.667 280.346 L 1355.667 280.694 L 1356.19 281.042 L 1357.062 281.042 L 1357.062 279.999 L 1357.236 279.304 L 1357.411 279.304 L 1357.411 278.435 L 1357.236 278.435 L 1357.236 278.262 L 1357.585 277.914 L 1358.108 277.914 L 1357.933 277.741 L 1357.759 276.872 L 1358.805 275.83 L 1359.676 275.656 L 1359.851 274.961 L 1360.374 274.092 L 1360.896 273.918 L 1361.071 273.571 L 1361.071 272.876 L 1360.896 272.702 L 1360.896 272.355 L 1361.594 271.486 L 1361.769 270.966 L 1362.117 270.791 L 1362.815 270.444 L 1363.686 270.444 L 1365.08 270.791 L 1365.778 270.791 L 1372.053 269.054 L 1372.053 272.182 C 1372.317 272.317 1372.494 272.558 1372.751 272.702 L 1372.751 272.702 L 1372.751 272.702 L 1372.751 272.702 L 1372.925 272.529 L 1372.751 271.66 L 1372.751 270.966 L 1372.577 270.791 L 1372.577 270.444 L 1373.1 269.923 L 1373.449 269.923 L 1373.449 269.749 C 1373.742 269.915 1373.635 269.377 1373.623 269.228 L 1373.623 269.228 L 1373.623 269.228 L 1373.623 269.228 L 1373.797 269.228 L 1373.623 269.054 L 1373.274 268.881 L 1373.274 268.533 L 1373.449 268.186 C 1374.043 267.813 1374.38 267.242 1374.669 266.622 L 1374.669 266.622 L 1374.669 266.622 L 1374.669 266.622 L 1376.412 265.58 L 1378.504 263.842 L 1379.027 264.538 L 1379.027 265.058 L 1378.678 265.406 C 1379.345 265.813 1380.05 266.144 1380.77 266.449 L 1380.77 266.449 L 1380.77 266.449 L 1380.77 266.449 L 1381.99 265.754 L 1381.816 265.406 L 1381.467 265.58 L 1380.421 265.406 L 1380.421 264.538 L 1381.816 263.495 L 1381.816 262.626 L 1386.348 260.194 L 1386.174 261.237 L 1387.046 260.715 L 1387.046 260.194 L 1387.568 260.368 L 1388.091 260.715 L 1388.963 260.368 L 1389.486 261.063 L 1390.01 261.584 L 1390.184 261.41 L 1391.23 261.41 L 1392.275 259.499 L 1393.67 258.283 L 1394.541 257.936 L 1394.716 258.631 L 1394.716 259.326 L 1395.588 260.194 L 1396.459 260.194 L 1396.111 261.237 L 1396.285 261.758 L 1396.808 263.148 L 1397.157 264.19 L 1397.854 264.885 L 1399.248 265.232 L 1401.341 265.927 L 1402.735 268.359 L 1402.212 268.707 L 1403.606 268.881 L 1404.304 268.359 L 1404.129 269.402 L 1404.478 269.923 L 1404.827 269.575 L 1405.001 269.575 L 1405.524 270.791 C 1405.997 271.283 1406.411 271.814 1407.093 272.008 L 1407.093 272.008 L 1407.093 272.008 L 1407.093 272.008 L 1407.442 271.834 L 1407.616 271.313 C 1407.177 270.874 1406.674 270.39 1407.616 270.444 L 1407.616 270.444 L 1407.616 270.444 L 1407.616 270.444 L 1409.011 270.097 L 1410.579 269.402 L 1411.451 268.707 C 1411.723 268.962 1412.001 269.21 1412.323 269.402 L 1412.323 269.402 L 1412.323 269.402 L 1412.323 269.402 L 1414.589 270.966 L 1414.24 272.008 L 1414.066 272.876 C 1412.515 273.771 1413.834 274.839 1414.763 275.656 L 1414.763 275.656 L 1414.763 275.656 L 1414.763 275.656 L 1415.635 276.003 L 1415.809 276.525 L 1415.809 277.219 L 1416.681 277.393 L 1417.378 277.741 L 1417.204 278.435 L 1415.983 279.651 L 1415.635 279.825 L 1415.112 280.52 L 1415.112 281.042 C 1414.792 281.238 1416.305 282.011 1416.506 282.084 L 1416.506 282.084 L 1416.506 282.084 L 1416.506 282.084 L 1417.03 282.778 L 1418.076 283.647 L 1421.213 285.384 L 1422.782 285.906 L 1424.526 285.906 L 1426.094 285.037 L 1426.792 285.21 L 1426.792 285.906 L 1425.223 287.122 L 1426.443 287.469 L 1426.966 288.511 L 1428.012 291.812 L 1428.012 294.244 L 1429.581 297.024 C 1430.216 300.089 1430.445 303.362 1432.196 306.058 L 1432.196 306.058 L 1432.196 306.058 L 1432.196 306.058 L 1431.499 307.274 L 1430.801 308.142 L 1431.15 310.574 L 1430.453 313.875 L 1429.058 315.612 L 1426.966 317.176 L 1425.397 318.566 L 1425.92 321.171 L 1425.746 322.735 C 1424.115 322.664 1425.777 323.906 1426.269 324.298 L 1426.269 324.298 L 1426.269 324.298 L 1426.269 324.298 L 1427.489 324.472 L 1429.581 326.21 L 1432.37 327.773 L 1433.416 329.858 L 1435.857 331.595 L 1438.994 333.854 L 1438.123 336.459 L 1438.82 337.502 L 1436.728 340.282 L 1436.903 342.887 L 1438.297 345.146 L 1438.297 345.84 L 1438.82 346.709 L 1440.215 347.23 L 1441.61 347.925 L 1441.435 348.794 L 1441.087 349.662 L 1441.435 350.531 L 1441.261 353.137 L 1441.61 353.658 L 1443.004 354.7 L 1442.655 355.395 L 1442.481 356.611 L 1441.784 358.001 L 1441.784 361.128 L 1441.435 361.997 L 1440.738 363.213 L 1439.692 364.255 L 1439.169 364.95 L 1439.343 366.34 L 1440.39 367.556 C 1440.746 367.954 1440.724 368.443 1440.738 368.946 L 1440.738 368.946 L 1440.738 368.946 L 1440.738 368.946 L 1440.912 369.641 L 1441.435 370.335 L 1442.307 371.03 C 1442.739 371.233 1443.098 371.49 1443.353 371.899 L 1443.353 371.899 L 1443.353 371.899 L 1443.353 371.899 L 1443.527 372.42 L 1443.701 372.942 L 1444.05 374.158 L 1443.527 375.374 L 1443.178 376.242 L 1443.004 377.285 L 1443.527 377.979 L 1444.922 378.848 L 1445.794 378.848 L 1447.362 379.543 L 1449.28 380.411 L 1449.802 381.28 L 1449.802 382.496 L 1450.151 384.581 L 1450.326 385.623 L 1450.849 386.492 L 1451.895 387.882 L 1451.895 389.619 L 1451.372 391.356 L 1451.372 393.614 L 1450.849 394.657 C 1450.819 395.594 1450.87 396.555 1450.5 397.437 L 1450.5 397.437 L 1450.5 397.437 L 1450.5 397.437 L 1449.802 399.347 L 1449.105 401.954 L 1448.408 403.17 L 1447.537 404.386 L 1447.362 405.602 L 1446.839 407.165 L 1445.271 407.338 L 1443.004 406.122 L 1442.655 405.949 L 1442.655 405.08 L 1443.004 404.212 L 1443.178 403.517 L 1442.481 402.648 L 1441.784 403.343 L 1441.261 403.517 L 1441.087 402.996 L 1441.61 402.127 L 1441.435 401.085 L 1440.564 399.869 L 1439.518 399.695 L 1438.82 398.826 L 1438.646 397.958 L 1438.297 398.131 L 1438.297 398.826 L 1437.077 399 L 1436.554 399.347 L 1436.031 399.347 L 1435.683 399 L 1435.16 398.653 L 1434.463 398.479 L 1433.416 398.479 L 1432.719 399.174 L 1432.37 400.042 L 1431.847 401.258 L 1432.544 401.606 L 1433.416 401.606 L 1433.416 402.127 L 1433.939 402.822 L 1435.334 403.517 L 1435.857 403.517 L 1435.857 404.386 L 1435.334 404.906 L 1434.114 405.08 L 1433.242 405.08 L 1432.021 405.428 L 1430.976 406.47 L 1429.407 407.513 L 1427.663 408.381 L 1426.792 408.729 L 1425.049 408.729 L 1424.526 409.25 L 1424.177 409.771 L 1423.48 409.771 L 1422.957 410.118 L 1422.957 411.682 L 1422.085 412.203 L 1421.039 412.377 L 1419.993 412.203 L 1418.424 412.898 L 1416.158 413.072 L 1414.415 413.246 L 1413.195 414.288 L 1413.718 414.982 L 1413.543 415.504 L 1412.846 416.198 L 1413.02 416.72 L 1412.672 417.241 L 1411.626 418.11 L 1410.405 417.241 L 1409.533 416.894 L 1408.488 417.589 L 1407.616 419.499 L 1406.222 418.805 L 1405.698 419.499 L 1405.001 421.584 L 1404.304 422.279 L 1402.735 422.626 L 1401.515 422.8 L 1400.294 422.8 L 1400.12 423.842 L 1399.945 425.406 L 1398.725 426.449 L 1397.854 426.449 L 1395.762 425.058 L 1394.89 425.058 L 1394.716 425.406 L 1393.321 425.406 L 1391.752 427.317 L 1390.184 427.143 L 1388.091 427.49 L 1387.394 427.49 L 1385.825 428.533 L 1385.477 429.575 L 1384.954 430.27 L 1383.908 430.791 L 1383.21 432.008 L 1382.513 433.05 L 1381.816 434.44 L 1381.467 435.656 L 1381.816 436.872 L 1381.816 437.393 L 1381.119 437.046 L 1380.77 435.83 L 1379.898 434.44 L 1380.247 433.918 L 1380.073 433.398 L 1378.678 433.224 L 1378.329 432.529 L 1378.329 431.66 L 1377.283 430.966 L 1374.843 430.618 L 1374.843 431.139 L 1375.366 431.486 L 1376.237 432.702 L 1376.063 433.224 L 1375.366 434.266 L 1375.54 434.787 L 1376.237 435.308 L 1376.934 435.83 C 1378.217 435.97 1378.332 437.821 1378.155 438.783 L 1378.155 438.783 L 1378.155 438.783 L 1378.155 438.783 L 1378.155 439.651 L 1378.853 440.346 L 1379.898 441.562 L 1380.073 442.778 L 1384.257 444.863 L 1384.954 445.384 L 1386.174 445.384 L 1386.174 447.295 L 1387.743 448.338 L 1387.743 448.859 L 1387.394 449.727 L 1386.871 450.943 L 1386.174 450.943 L 1385.825 451.986 L 1386 453.202 L 1385.477 453.897 L 1384.78 453.897 L 1383.908 454.939 L 1384.431 455.634 L 1384.78 456.502 L 1386 457.718 L 1387.568 458.587 L 1387.568 459.109 L 1387.394 459.803 L 1387.568 460.498 L 1389.137 461.541 L 1388.963 462.583 L 1389.661 463.799 L 1390.184 464.668 L 1391.23 464.842 L 1391.055 466.753 L 1391.578 468.142 L 1394.018 469.706 L 1394.367 470.401 L 1395.065 471.617 L 1396.111 472.312 L 1398.551 472.486 L 1398.551 471.964 L 1399.248 471.79 L 1399.771 472.138 L 1400.469 472.659 L 1401.689 473.528 L 1401.689 474.222 L 1402.212 474.744 L 1403.258 475.96 L 1404.129 477.002 L 1405.524 478.566 L 1406.745 480.65 L 1407.616 480.998 L 1408.836 481.171 L 1409.708 481.171 L 1410.579 482.04 L 1411.974 483.604 L 1412.672 484.472 L 1412.672 485.341 L 1412.846 486.036 L 1413.543 486.73 L 1414.415 487.426 L 1415.635 488.121 L 1415.983 487.946 L 1416.158 486.905 L 1416.681 486.557 L 1417.378 486.905 L 1418.424 487.426 L 1418.947 487.773 L 1419.296 488.642 L 1419.819 489.51 L 1420.516 490.206 L 1421.562 490.379 L 1422.259 490.379 L 1424.351 494.027 L 1424.874 494.722 L 1424.7 495.59 L 1424.177 496.286 L 1424.177 497.154 L 1424.874 497.502 L 1424.7 498.197 L 1424.874 499.065 L 1425.049 500.282 L 1424.7 501.671 L 1424.177 502.887 L 1423.306 503.061 L 1422.782 503.756 L 1422.782 504.277 L 1422.259 504.45 L 1421.736 503.93 L 1420.69 503.061 L 1418.947 502.54 L 1417.204 502.192 L 1416.158 502.54 L 1415.286 503.061 L 1414.938 503.582 L 1415.112 504.103 L 1415.286 504.972 L 1415.46 505.666 L 1415.112 506.362 L 1414.938 506.882 L 1414.938 508.099 L 1414.938 508.967 L 1414.763 509.489 L 1414.589 510.705 L 1414.066 511.226 L 1411.451 513.658 L 1410.754 514.179 L 1410.056 514.353 L 1409.011 514.526 L 1407.616 514.7 L 1406.57 515.048 L 1405.349 515.569 L 1404.652 515.916 L 1403.606 516.264 L 1402.212 517.654 L 1399.422 519.391 L 1395.762 523.213 L 1395.937 525.124 L 1398.9 527.034 L 1399.248 529.641 L 1401.341 531.204 L 1403.258 533.984 L 1402.038 536.937 L 1401.166 538.848 L 1401.864 540.411 L 1403.781 540.238 L 1404.652 539.543 L 1406.047 542.67 L 1405.175 545.276 L 1404.827 547.534 L 1405.524 548.924 L 1404.827 549.445 L 1403.084 549.445 L 1400.643 548.229 L 1399.771 547.013 L 1398.202 545.797 L 1399.074 543.712 L 1397.331 542.322 L 1397.679 541.28 L 1397.157 541.454 L 1396.111 541.454 L 1395.239 541.106 L 1394.018 541.106 L 1393.147 541.28 L 1392.45 541.802 L 1391.752 542.496 L 1391.055 543.018 L 1389.661 543.191 L 1388.963 542.496 L 1388.44 542.149 L 1388.44 541.627 L 1388.091 541.106 L 1387.568 540.586 L 1387.046 540.586 L 1386.348 540.933 L 1386.174 541.106 L 1384.954 541.106 L 1383.908 540.759 L 1383.036 541.106 L 1382.513 541.28 L 1382.339 540.759 L 1382.339 540.411 L 1382.687 540.064 L 1382.687 539.543 L 1382.861 539.369 L 1382.861 539.195 L 1382.164 539.195 L 1381.293 539.89 L 1380.77 540.238 L 1380.421 540.238 L 1380.421 540.933 L 1381.119 541.975 L 1381.293 542.67 L 1381.293 543.538 L 1380.596 544.234 L 1380.596 544.581 L 1378.678 544.581 L 1378.678 544.407 L 1373.449 544.407 L 1373.449 544.581 L 1372.577 544.581 L 1371.705 544.928 L 1371.007 545.102 L 1370.833 545.797 L 1370.659 545.97 L 1370.136 545.797 L 1369.09 545.623 L 1366.126 545.623 L 1364.732 545.45 L 1364.209 545.97 L 1363.686 546.839 L 1363.338 547.882 L 1362.815 548.577 L 1362.292 548.924 L 1361.594 549.098 L 1360.548 548.924 L 1359.328 548.924 L 1358.631 549.271 L 1358.456 549.619 L 1357.759 550.487 L 1357.411 550.835 L 1357.759 551.182 L 1358.282 551.182 L 1358.108 551.53 L 1357.933 551.703 L 1357.062 551.703 L 1356.713 551.703 L 1356.365 551.878 L 1356.19 551.878 L 1355.841 552.225 L 1354.969 553.094 L 1354.447 553.614 L 1353.924 553.788 L 1353.749 553.788 L 1353.749 552.572 L 1353.226 552.398 L 1352.704 552.225 L 1352.006 552.572 L 1351.135 552.92 L 1350.088 553.962 C 1349.518 553.978 1346.712 554.882 1346.602 553.614 L 1346.602 553.614 L 1346.602 553.614 L 1346.602 553.614 L 1346.428 553.094 L 1346.602 552.398 L 1344.51 550.662 L 1343.987 550.314 L 1343.464 550.14 L 1343.638 549.793 L 1343.987 549.619 L 1344.51 549.271 L 1344.51 548.75 L 1343.29 548.055 L 1342.767 548.055 L 1342.07 548.403 L 1341.372 548.75 L 1340.675 548.924 L 1340.501 548.924 L 1340.152 548.403 L 1336.666 547.013 L 1336.317 546.839 L 1335.445 546.839 L 1334.923 547.013 L 1334.748 547.361 L 1334.225 548.055 L 1334.051 548.229 L 1333.179 548.229 L 1332.307 547.882 L 1331.959 547.534 L 1332.133 547.013 L 1331.959 546.145 L 1331.61 546.145 L 1331.087 546.145 L 1330.564 546.492 L 1330.39 546.839 L 1330.564 547.361 L 1330.739 547.708 L 1330.913 548.229 L 1330.739 549.445 L 1330.564 550.14 L 1330.913 550.314 C 1331.317 550.515 1331.287 550.986 1331.436 551.356 L 1331.436 551.356 L 1331.436 551.356 L 1331.436 551.356 L 1331.261 552.398 L 1331.261 553.267 L 1330.913 553.441 L 1330.739 553.962 L 1330.39 554.483 L 1329.867 554.83 L 1329.344 555.004 L 1328.996 555.526 L 1328.647 556.221 L 1327.949 557.089 L 1327.077 557.958 L 1326.38 558.305 L 1325.334 558.826 L 1323.766 559 L 1323.591 559 L 1323.591 558.826 L 1324.463 558.131 L 1324.637 557.262 L 1324.812 556.394 L 1324.986 555.873 L 1324.986 554.83 L 1324.463 554.483 L 1323.94 554.483 L 1323.591 554.657 L 1322.894 554.657 L 1322.371 555.178 L 1322.022 555.004 L 1321.673 555.004 L 1321.15 555.178 L 1320.976 554.136 L 1320.802 553.441 L 1321.325 553.094 L 1321.325 552.398 L 1320.453 551.182 L 1319.756 549.966 L 1319.233 549.966 L 1319.059 550.14 L 1318.885 550.314 L 1318.536 550.314 L 1318.536 549.793 L 1318.187 549.098 L 1317.664 548.577 L 1317.49 547.882 L 1317.316 547.708 L 1316.967 547.708 L 1316.618 548.055 L 1315.921 548.055 L 1315.223 547.882 L 1314.7 547.708 L 1314.178 547.882 L 1313.655 547.534 L 1313.655 546.318 L 1313.132 545.97 L 1312.609 545.623 L 1312.086 545.623 L 1311.737 546.145 L 1311.563 546.145 L 1311.214 546.492 L 1310.865 547.013 L 1309.994 548.229 L 1309.645 548.403 L 1307.553 548.403 L 1306.856 548.229 L 1299.36 543.712 L 1298.488 542.844 L 1297.268 542.67 L 1296.397 542.67 L 1296.048 542.322 L 1295.525 541.975 L 1293.084 541.802 L 1292.038 541.802 L 1291.167 541.627 L 1290.818 541.627 L 1290.121 541.975 L 1289.598 542.496 L 1288.9 542.496 L 1288.203 542.67 L 1287.506 542.67 L 1286.286 541.627 L 1286.111 541.454 L 1286.634 541.454 L 1286.634 540.933 L 1285.937 540.411 L 1284.717 539.717 L 1283.845 539.717 L 1283.496 540.238 L 1283.496 540.759 L 1282.973 540.586 L 1282.624 540.933 L 1282.45 540.238 L 1282.276 539.717 L 1282.624 539.195 L 1282.799 538.327 L 1282.101 537.979 L 1281.927 537.979 L 1281.404 537.632 L 1281.404 537.285 L 1280.707 536.59 L 1280.359 536.59 L 1280.184 536.937 L 1279.836 537.285 L 1279.836 537.979 L 1279.487 537.632 L 1279.487 536.763 L 1278.964 536.242 L 1278.267 536.242 L 1277.743 536.242 L 1277.22 536.59 L 1277.395 536.763 L 1277.395 537.285 L 1276.872 537.285 L 1276.697 537.458 L 1275.826 537.458 L 1275.477 537.458 L 1274.954 537.979 L 1274.606 538.501 L 1274.432 539.022 L 1274.083 539.543 L 1273.734 539.717 L 1273.211 539.89 L 1272.863 540.238 L 1272.863 540.759 L 1273.037 541.454 L 1272.863 541.975 L 1273.386 542.322 L 1274.083 542.67 L 1274.606 543.191 L 1275.303 543.365 L 1276.174 543.191 L 1277.046 542.496 C 1277.469 542.468 1279.021 542.095 1278.79 543.018 L 1278.79 543.018 L 1278.79 543.018 L 1278.79 543.018 L 1278.441 543.018 L 1278.267 543.365 L 1278.267 543.712 L 1278.267 544.407 L 1278.092 544.928 L 1277.743 544.754 L 1277.395 544.06 L 1276.872 543.538 L 1276.523 543.538 L 1276 543.712 L 1275.652 543.886 L 1274.954 544.234 L 1274.78 544.407 L 1274.606 544.754 L 1274.257 545.102 L 1273.909 545.276 L 1272.514 545.276 L 1272.339 545.102 L 1271.468 545.102 L 1270.77 544.928 L 1270.596 544.407 L 1270.596 543.886 L 1270.073 543.538 L 1269.202 543.365 L 1267.807 543.365 L 1266.761 543.712 L 1266.412 544.06 L 1265.192 544.581 L 1264.32 545.623 C 1262.976 545.673 1260.278 546.774 1259.439 545.102 L 1259.439 545.102 L 1259.439 545.102 L 1259.439 545.102 L 1259.091 544.581 L 1258.219 544.407 L 1257.348 544.407 L 1256.825 544.06 L 1256.476 544.407 L 1255.953 545.102 L 1255.604 545.45 L 1255.081 545.97 L 1254.384 545.97 L 1253.164 546.145 C 1252.596 546.126 1252.113 545.817 1251.595 545.623 L 1251.595 545.623 L 1251.595 545.623 L 1251.595 545.623 L 1252.118 545.102 L 1252.292 544.581 L 1252.641 544.06 L 1252.466 543.712 L 1251.595 544.06 L 1250.549 544.06 L 1250.549 543.365 L 1249.851 542.844 L 1249.851 542.322 L 1249.502 541.802 L 1249.502 541.454 L 1248.98 540.759 L 1248.631 540.411 L 1248.457 539.369 L 1249.328 538.674 L 1249.328 537.458 L 1249.154 536.416 L 1248.98 536.069 L 1249.154 535.721 L 1249.154 535.2 L 1249.502 534.678 L 1250.026 534.158 L 1250.2 533.984 L 1250.026 532.073 L 1250.374 531.726 L 1250.723 531.03 L 1250.723 530.162 L 1251.072 529.641 L 1251.944 528.772 L 1251.944 527.034 L 1251.421 525.992 L 1250.898 524.95 L 1250.898 522.518 L 1251.246 521.823 L 1251.944 520.954 L 1251.944 519.912 L 1252.989 518.87 L 1253.512 518.001 L 1254.209 516.958 L 1254.558 516.09 L 1254.558 515.048 L 1254.732 514.353 L 1255.43 514.006 L 1255.953 513.484 L 1256.302 512.79 L 1256.302 512.268 L 1255.953 511.574 L 1255.953 509.836 L 1256.302 509.141 L 1256.999 507.925 L 1256.999 506.709 L 1257.522 506.188 L 1258.219 505.84 L 1258.219 505.146 L 1257.871 504.45 L 1258.045 503.061 L 1258.393 501.498 L 1259.265 500.629 L 1259.788 499.76 L 1260.311 499.76 L 1260.485 499.413 L 1260.834 499.413 L 1261.706 498.37 L 1262.752 497.328 L 1262.752 495.938 L 1264.495 495.938 L 1264.843 494.722 L 1265.715 494.374 L 1266.063 494.201 L 1267.11 492.464 L 1267.982 490.379 L 1268.679 489.163 L 1269.55 487.773 L 1269.376 487.426 L 1269.027 487.078 L 1268.505 486.73 L 1267.982 486.905 L 1267.11 486.557 L 1265.366 485.862 L 1263.623 484.82 C 1263.01 484.331 1262.291 484.102 1261.531 483.951 L 1261.531 483.951 L 1261.531 483.951 L 1261.531 483.951 L 1259.614 483.951 C 1258.958 483.765 1258.338 483.482 1257.696 483.256 L 1257.696 483.256 L 1257.696 483.256 L 1257.696 483.256 L 1257.173 483.256 L 1256.302 483.778 L 1255.604 483.43 L 1254.558 483.43 L 1254.384 483.604 L 1254.035 483.604 L 1253.687 483.43 L 1253.687 483.082 L 1253.164 482.388 L 1252.118 482.04 L 1250.898 481.693 L 1250.026 480.13 L 1249.851 479.434 L 1249.851 478.566 L 1248.98 478.392 L 1248.282 478.392 L 1247.76 477.697 L 1246.888 477.697 L 1246.539 477.87 L 1245.842 478.045 L 1245.494 478.913 L 1245.494 479.261 L 1244.796 479.261 L 1244.098 479.782 L 1243.924 480.13 L 1243.053 479.955 L 1242.704 479.782 L 1240.612 479.782 L 1238.869 478.566 L 1238.346 478.392 L 1238.171 478.739 L 1238.171 479.608 L 1237.648 479.782 L 1237.3 479.434 L 1236.951 478.739 L 1236.951 477.176 L 1237.126 476.829 L 1236.254 476.829 L 1234.337 475.612 L 1232.942 475.612 L 1232.07 475.265 L 1231.721 475.438 L 1231.721 476.134 L 1231.721 477.35 L 1231.721 477.697 L 1231.373 478.045 L 1230.153 477.523 L 1228.933 477.523 L 1228.584 477.176 L 1228.584 476.481 L 1228.758 475.438 L 1228.41 474.918 L 1228.061 475.091 L 1227.886 474.918 L 1227.712 473.702 L 1227.189 473.528 L 1227.015 472.659 L 1226.143 471.79 L 1225.446 470.922 L 1224.749 470.227 L 1224.749 469.532 L 1225.446 469.706 L 1225.446 468.837 L 1225.097 468.316 L 1224.052 467.1 L 1223.877 466.058 L 1223.18 465.362 L 1221.959 464.668 L 1220.913 464.32 L 1220.739 463.973 L 1220.042 463.973 L 1219.345 464.668 L 1219.345 462.757 L 1219.867 461.019 L 1220.042 459.456 L 1221.088 458.414 L 1221.785 457.198 L 1221.785 455.634 L 1222.308 455.808 L 1223.006 455.46 L 1223.877 454.766 L 1224.4 454.592 L 1224.052 453.376 L 1223.877 452.854 L 1224.226 452.507 L 1224.226 451.465 L 1224.574 450.596 L 1223.877 450.249 L 1223.18 449.727 L 1222.133 449.901 L 1221.436 449.554 L 1220.739 449.206 L 1220.39 448.685 L 1219.519 448.164 L 1219.345 448.338 L 1218.996 448.338 L 1218.996 447.99 L 1218.647 447.469 L 1218.299 447.122 L 1217.427 446.601 L 1216.729 445.384 L 1216.206 443.821 L 1215.509 442.952 L 1215.161 443.3 L 1215.161 442.605 L 1214.638 441.389 L 1214.463 439.999 L 1214.115 439.304 L 1214.638 438.783 L 1214.638 438.435 L 1214.289 438.435 L 1214.638 436.872 L 1215.335 436.003 L 1214.986 435.83 L 1215.161 434.787 L 1215.335 434.614 L 1215.858 434.614 L 1216.206 434.092 L 1216.206 433.224 L 1215.858 432.529 L 1216.555 432.008 L 1217.427 431.313 L 1218.125 431.313 L 1218.822 430.966 L 1219.345 430.618 L 1219.17 430.097 L 1219.345 429.402 L 1220.042 429.054 L 1220.216 429.228 L 1221.785 429.228 L 1222.133 428.881 L 1222.133 427.665 L 1221.262 425.927 L 1221.61 425.406 L 1221.785 424.364 L 1221.785 423.322 L 1221.262 422.8 L 1221.262 421.931 L 1221.61 421.584 L 1221.262 421.41 L 1220.739 421.237 L 1219.867 421.237 L 1219.17 420.542 L 1218.822 420.715 L 1218.647 420.89 L 1217.95 420.89 L 1217.602 420.194 L 1217.776 419.673 L 1217.253 419.673 L 1217.427 419.152 L 1217.078 418.457 L 1218.299 417.589 L 1219.17 417.067 L 1219.519 416.373 L 1219.345 415.851 L 1218.996 415.678 L 1217.253 415.33 L 1217.078 414.809 L 1217.078 414.462 L 1216.206 412.898 L 1215.509 411.855 L 1214.638 411.161 L 1214.289 411.161 L 1213.418 411.508 L 1213.418 410.292 L 1213.069 409.945 L 1213.069 409.076 L 1212.546 408.207 L 1213.418 407.686 L 1213.418 406.47 L 1213.94 406.122 L 1214.115 406.297 L 1214.463 406.297 L 1215.161 405.602 L 1215.161 404.386 L 1215.161 403.517 L 1214.986 402.996 L 1214.463 402.996 L 1213.766 402.474 L 1213.592 402.127 L 1213.592 401.085 L 1213.94 400.563 L 1213.592 400.216 L 1212.72 400.216 L 1211.849 400.042 L 1211.151 400.042 L 1210.628 400.39 L 1210.454 399.347 L 1210.105 398.479 L 1210.105 397.437 L 1210.802 397.437 L 1210.977 397.784 L 1211.151 398.131 L 1211.849 398.131 L 1212.372 398.131 L 1212.895 397.437 L 1213.243 396.742 L 1213.766 396.221 L 1214.638 395.699 L 1215.683 395.004 L 1216.381 394.657 L 1218.125 393.614 L 1218.125 393.267 L 1217.776 392.746 L 1218.473 392.225 L 1218.647 392.051 L 1218.125 391.878 L 1217.602 391.53 L 1216.904 392.051 L 1216.381 392.398 L 1216.032 392.398 L 1215.858 391.703 L 1215.858 390.314 L 1216.381 389.619 L 1217.253 388.75 L 1217.95 387.534 L 1218.473 386.492 L 1219.17 386.145 L 1219.693 385.45 L 1220.042 384.754 L 1220.216 383.886 L 1220.042 383.191 L 1220.042 382.322 L 1220.39 381.106 L 1220.216 379.717 L 1220.216 377.979 L 1218.996 376.59 L 1217.776 374.678 L 1217.602 373.81 L 1217.95 372.594 L 1217.427 371.899 L 1216.206 371.378 L 1215.858 371.03 L 1215.858 370.51 L 1216.206 369.988 L 1216.206 369.467 L 1215.683 368.946 L 1214.986 368.598 L 1214.115 368.598 L 1214.115 368.251 L 1214.638 367.903 L 1214.812 367.73 L 1214.812 366.34 L 1214.463 365.818 L 1214.115 365.471 L 1214.463 365.124 L 1214.812 364.95 L 1215.858 364.95 L 1216.555 364.429 L 1217.776 364.082 L 1218.473 364.255 L 1219.17 364.429 L 1219.867 364.776 L 1220.042 364.082 L 1219.693 363.734 L 1218.996 362.866 L 1218.996 362.518 L 1219.17 362.344 L 1219.693 362.692 L 1220.39 363.386 L 1220.739 363.56 L 1221.436 363.908 L 1222.133 363.908 L 1222.482 363.734 L 1222.831 364.429 L 1223.18 364.776 L 1224.052 364.95 L 1224.4 365.124 L 1224.4 365.818 L 1224.923 365.645 C 1225.501 365.766 1225.754 365.695 1225.969 365.124 L 1225.969 365.124 L 1225.969 365.124 L 1225.969 365.124 L 1225.969 364.429 L 1226.317 364.429 L 1226.492 364.602 L 1227.015 364.776 L 1228.235 364.776 L 1229.281 363.908 L 1230.676 363.386 L 1231.896 363.039 L 1234.511 363.039 L 1235.731 362.344 L 1236.428 361.475 L 1236.603 360.954 L 1237.3 360.434 L 1237.3 359.391 L 1236.777 358.696 L 1236.254 358.175 L 1235.557 357.827 L 1234.86 357.306 L 1234.162 357.133 L 1234.162 356.264 L 1235.034 355.916 L 1235.383 355.048 L 1236.428 354.353 L 1237.126 354.179 L 1238.171 354.179 L 1238.869 353.137 L 1240.09 352.094 L 1240.961 351.747 L 1241.658 350.705 L 1242.704 349.836 L 1243.575 349.315 L 1243.575 348.794 L 1243.401 348.273 L 1243.227 346.882 L 1244.098 345.319 L 1244.273 344.277 L 1244.273 343.408 L 1243.924 342.54 L 1243.575 341.845 L 1242.878 340.802 L 1242.53 339.76 L 1242.007 339.76 L 1241.31 340.282 L 1240.09 340.455 C 1239.223 340.331 1238.454 339.9 1237.648 339.586 L 1237.648 339.586 L 1237.648 339.586 L 1237.648 339.586 L 1236.603 339.586 L 1236.08 339.239 L 1235.557 338.718 L 1235.208 337.849 L 1235.208 335.938 L 1235.557 335.938 L 1236.254 335.59 L 1236.951 335.243 L 1236.08 334.027 L 1236.08 333.506 L 1236.08 332.638 L 1236.951 332.116 L 1237.997 331.942 L 1239.043 331.942 L 1240.09 332.116 L 1240.961 332.638 L 1241.484 332.638 L 1242.704 332.464 L 1243.227 332.811 L 1243.924 332.985 L 1244.447 332.116 L 1244.796 331.247 L 1244.97 329.51 L 1245.145 327.599 L 1245.494 324.994 L 1246.191 322.909 L 1247.585 321.519 L 1248.631 319.261 L 1249.502 317.002 L 1249.677 313.528 L 1248.805 311.617 L 1249.851 309.532 L 1249.677 306.753 L 1250.723 305.71 L 1250.723 304.668 L 1251.595 304.146 L 1252.641 304.32 L 1253.687 305.189 L 1254.209 305.015 L 1253.861 303.799 L 1252.466 303.104 L 1250.898 302.93 L 1249.328 302.757 L 1247.062 302.583 L 1246.191 302.41 L 1245.842 301.194 L 1245.668 299.109 L 1247.062 295.286 L 1248.282 295.808 L 1249.154 294.592 L 1248.457 293.376 L 1247.76 293.028 L 1248.457 291.986 L 1249.677 291.118 L 1251.421 289.727 L 1253.338 288.685 L 1255.081 288.859 L 1257.173 288.685 L 1258.045 289.38 L 1259.788 289.206 L 1268.679 287.99 L 1270.073 288.164 L 1271.119 288.685 L 1270.945 289.38 L 1270.596 290.075 L 1271.119 290.77 L 1272.165 292.681 L 1273.386 293.723 L 1273.037 294.244 L 1274.083 294.939 L 1274.083 295.982 L 1273.211 296.502 L 1271.99 296.502 L 1271.468 297.024 L 1271.468 297.545 L 1271.816 298.414 L 1272.339 299.63 L 1273.56 299.456 L 1274.257 299.977 L 1274.78 300.846 L 1275.652 301.367 L 1277.046 301.194 L 1277.743 300.151 L 1278.267 298.935 L 1278.441 297.718 L 1278.441 296.85 L 1277.569 295.808 L 1276.349 295.982 L 1276.349 294.939 L 1276.872 293.723 L 1277.046 292.681 L 1278.615 292.854 L 1279.313 293.723 L 1280.707 294.939 L 1282.973 295.46 L 1283.671 295.808 L 1283.147 296.502 L 1282.45 297.198 L 1282.101 298.414 L 1281.927 300.672 L 1282.101 302.583 L 1282.799 304.146 L 1283.322 301.019 L 1282.973 300.151 L 1282.973 298.761 L 1283.496 297.893 L 1284.368 296.85 L 1284.891 295.634 L 1284.194 294.07 L 1283.322 291.812 L 1282.973 290.249 L 1282.799 288.859 L 1283.845 286.774 L 1284.368 285.037 L 1284.717 283.821 L 1285.414 282.258 L 1286.46 281.562 L 1287.506 281.389 L 1288.377 282.258 L 1289.423 283.3 L 1291.167 283.647 L 1292.038 283.994 L 1293.433 283.994 L 1295.351 283.647 L 1296.048 283.647 L 1297.617 282.778 L 1302.324 282.778 L 1302.846 283.126 L 1303.195 283.994 L 1303.718 285.21 L 1304.589 286.601 L 1305.635 288.338 L 1306.682 289.727 L 1307.379 290.075 L 1307.553 291.118 L 1307.728 291.638 L 1308.425 292.507 L 1309.122 293.55 L 1309.819 294.592 L 1311.039 294.766 L 1311.737 295.286 L 1312.958 295.982 L 1314.352 296.155 L 1315.746 296.502 L 1316.618 296.329 L 1316.443 295.808 L 1315.572 295.113 L 1314.7 294.592 L 1313.655 294.592 L 1313.132 294.592 L 1312.435 294.418 L 1312.086 294.244 L 1311.388 293.723 L 1310.342 293.202 L 1309.471 292.334 L 1309.296 291.291 L 1309.122 289.727 L 1308.948 288.685 L 1307.902 288.164 L 1307.205 287.817 L 1306.333 286.948 L 1305.984 285.906 L 1305.81 284.69 L 1305.635 283.821 L 1304.589 283.126 L 1303.369 282.431 L 1302.149 281.389 L 1300.406 281.042 L 1299.534 280.867 L 1297.791 281.042 L 1296.919 280.694 L 1295.874 280.52 L 1295.525 281.042 L 1295.176 280.694 L 1294.304 279.999 L 1292.561 276.525 L 1292.213 275.83 L 1292.038 275.308 L 1292.735 274.787 L 1293.433 274.961 L 1293.955 275.482 L 1294.653 275.83 L 1295.351 276.003 L 1296.222 275.308 L 1296.397 273.918 L 1296.397 272.355 L 1295.699 271.66 L 1295.351 270.444 L 1294.13 270.27 L 1293.433 270.444 L 1292.387 271.313 L 1292.213 270.097 L 1291.515 269.228 L 1291.69 268.707 L 1292.561 266.97 L 1292.213 266.274 L 1292.561 265.754 L 1293.258 265.58 L 1294.13 265.754 L 1294.479 265.058 L 1295.351 263.669 L 1295.176 263.148 L 1294.827 263.148 L 1293.607 263.842 L 1292.91 263.669 L 1292.735 263.842 L 1291.864 263.842 L 1291.341 264.364 L 1289.598 263.842 L 1288.9 264.364 L 1288.028 264.885 L 1287.157 264.364 L 1286.634 263.322 L 1286.46 262.106 L 1287.331 261.758 L 1288.377 261.758 L 1288.726 261.931 L 1288.726 261.063 L 1287.68 260.542 L 1287.331 260.368 L 1287.506 259.847 L 1288.203 260.021 L 1289.249 259.673 L 1290.121 259.499 L 1293.433 259.499 L 1294.827 258.457 L 1296.745 257.241 L 1296.571 255.156 L 1296.048 254.288 L 1294.827 252.898 L 1293.607 251.508 L 1292.91 250.814 L 1292.387 249.423 L 1291.864 247.686 L 1290.818 246.991 L 1289.598 245.949 L 1289.075 245.775 L 1289.249 244.559 L 1289.075 243.517 L 1288.377 242.474 L 1288.203 241.954 L 1288.203 240.216 L 1288.726 239.521 L 1290.121 239.521 L 1290.644 239.521 L 1291.515 239 L 1293.258 239 L 1294.13 239.347 L 1295.699 239.869 L 1296.745 240.563 L 1297.617 240.738 L 1298.662 240.911 L 1300.057 241.085 L 1301.104 241.432 L 1301.452 241.954 L 1301.626 242.822 L 1302.149 243.517 L 1304.764 243.517 L 1305.635 242.822 L 1306.333 243.343 L 1306.856 243.343 L 1308.076 242.996 C 1308.826 242.38 1309.705 241.957 1310.516 241.432 L 1310.516 241.432 L 1310.516 241.432 L 1310.516 241.432 L 1310.342 242.127 L 1311.039 242.648 L 1312.435 242.996 L 1313.655 242.996 C 1314.182 243.604 1314.974 243.864 1315.572 244.386 L 1315.572 244.386 L 1315.572 244.386 L 1315.572 244.386 L 1316.095 245.602 L 1316.967 245.602 L 1318.013 245.254 L 1318.362 245.08 L 1318.362 244.386 L 1318.71 244.212 L 1319.407 244.559 L 1319.93 245.428 L 1319.93 246.297 L 1320.453 247.165 L 1320.453 247.513 L 1319.756 247.686 L 1319.233 248.034 L 1318.71 248.381 L 1318.536 249.076 L 1319.756 248.902 L 1320.627 249.076 L 1321.325 249.597 L 1321.499 250.814 L 1321.325 252.203 L 1320.976 253.593 L 1320.976 254.288 L 1320.453 254.982 L 1319.756 255.678 L 1318.187 256.373 L 1317.839 256.546 L 1316.443 256.546 L 1316.443 257.241 L 1317.664 257.936 L 1318.536 257.936 L 1320.105 257.414 L 1322.545 257.067 L 1323.591 256.546 L 1324.114 256.546 L 1324.289 257.067 L 1325.16 257.589 L 1324.986 259.152 L 1325.334 260.021 L 1324.812 260.715 L 1324.289 261.237 L 1323.94 261.41 L 1323.766 261.931 L 1323.766 262.279 L 1324.114 262.453 L 1323.94 262.974 L 1323.766 263.669 L 1324.463 263.669 L 1325.857 261.758 L 1326.206 261.063 L 1326.38 260.021 L 1327.252 259.673 L 1327.775 259.326 L 1328.298 258.805 L 1329.344 258.978 L 1329.867 259.152 L 1330.564 259.847 L 1331.61 260.542 L 1333.702 261.237 L 1334.748 261.758 L 1335.445 262.279 L 1336.491 263.148 L 1337.188 263.842 L 1338.234 264.19 L 1338.757 264.364 L 1339.978 264.19 L 1340.501 263.669 L 1341.547 262.974 L 1342.418 262.106 L 1343.813 261.41 L 1345.208 261.584 L 1346.602 262.106 L 1347.125 263.322 L 1347.125 264.885 L 1347.125 266.449 L 1347.299 267.838 L 1346.777 268.533 L 1346.602 269.228 L 1345.905 269.749 L 1345.033 270.097 L 1343.987 270.966 L 1343.115 271.834 L 1342.418 272.529 L 1341.721 272.876 L 1341.198 273.05 L 1340.675 272.702 L 1340.152 273.398 L 1339.804 273.918 L 1338.932 275.134 L 1339.28 276.35 L 1340.152 277.393 L 1341.372 277.741 L 1342.07 277.566 L 1342.07 278.783 L 1342.593 278.957 Z " fill="rgb(174,174,174)"/></svg>