<?xml version="1.0" standalone="no"?><!-- Generator: Gravit.io --><svg xmlns="http://www.w3.org/2000/svg" xmlns:xlink="http://www.w3.org/1999/xlink" style="isolation:isolate" viewBox="0 0 500 661.731" width="500" height="661.731"><path d=" M 273.973 82.627 L 276.134 82.627 L 277.937 80.471 L 278.659 80.471 L 278.659 80.113 L 280.103 80.113 L 282.625 78.316 L 284.427 78.316 L 284.427 77.956 L 286.949 77.956 L 286.949 77.598 L 288.753 77.598 L 289.834 79.751 L 291.637 80.471 L 291.637 83.705 L 292.359 84.063 L 295.242 84.063 L 297.043 82.627 L 297.405 83.705 L 297.765 84.063 L 299.566 84.063 L 301.009 85.5 L 301.009 86.219 L 302.091 86.939 L 303.894 86.939 L 303.894 84.782 L 304.254 83.345 L 304.616 83.345 L 304.616 81.548 L 304.254 81.548 L 304.254 81.19 L 304.975 80.471 L 306.057 80.471 L 305.695 80.113 L 305.335 78.316 L 307.498 76.161 L 309.299 75.801 L 309.661 74.364 L 310.743 72.567 L 311.822 72.207 L 312.184 71.49 L 312.184 70.053 L 311.822 69.693 L 311.822 68.975 L 313.266 67.178 L 313.628 66.103 L 314.347 65.741 L 315.791 65.023 L 317.592 65.023 L 320.474 65.741 L 321.918 65.741 L 334.894 62.149 L 334.894 68.617 C 335.44 68.897 335.806 69.395 336.337 69.693 L 336.337 69.693 L 336.337 69.693 L 336.337 69.693 L 336.697 69.335 L 336.337 67.538 L 336.337 66.103 L 335.978 65.741 L 335.978 65.023 L 337.059 63.946 L 337.781 63.946 L 337.781 63.586 C 338.387 63.929 338.165 62.817 338.141 62.509 L 338.141 62.509 L 338.141 62.509 L 338.141 62.509 L 338.5 62.509 L 338.141 62.149 L 337.419 61.791 L 337.419 61.072 L 337.781 60.354 C 339.009 59.583 339.706 58.402 340.304 57.12 L 340.304 57.12 L 340.304 57.12 L 340.304 57.12 L 343.908 54.965 L 348.234 51.371 L 349.316 52.81 L 349.316 53.886 L 348.594 54.605 C 349.973 55.447 351.431 56.131 352.92 56.762 L 352.92 56.762 L 352.92 56.762 L 352.92 56.762 L 355.443 55.325 L 355.083 54.605 L 354.361 54.965 L 352.198 54.605 L 352.198 52.81 L 355.083 50.653 L 355.083 48.856 L 364.455 43.827 L 364.095 45.984 L 365.898 44.905 L 365.898 43.827 L 366.978 44.187 L 368.059 44.905 L 369.862 44.187 L 370.944 45.624 L 372.027 46.702 L 372.387 46.342 L 374.55 46.342 L 376.711 42.39 L 379.596 39.876 L 381.397 39.158 L 381.759 40.595 L 381.759 42.032 L 383.562 43.827 L 385.363 43.827 L 384.644 45.984 L 385.004 47.061 L 386.085 49.936 L 386.807 52.091 L 388.248 53.528 L 391.131 54.245 L 395.459 55.683 L 398.342 60.712 L 397.26 61.431 L 400.143 61.791 L 401.586 60.712 L 401.224 62.869 L 401.946 63.946 L 402.668 63.226 L 403.027 63.226 L 404.109 65.741 C 405.087 66.758 405.943 67.856 407.353 68.258 L 407.353 68.258 L 407.353 68.258 L 407.353 68.258 L 408.075 67.898 L 408.435 66.82 C 407.527 65.913 406.487 64.912 408.435 65.023 L 408.435 65.023 L 408.435 65.023 L 408.435 65.023 L 411.32 64.306 L 414.562 62.869 L 416.365 61.431 C 416.928 61.959 417.503 62.472 418.169 62.869 L 418.169 62.869 L 418.169 62.869 L 418.169 62.869 L 422.855 66.103 L 422.133 68.258 L 421.773 70.053 C 418.566 71.903 421.293 74.112 423.214 75.801 L 423.214 75.801 L 423.214 75.801 L 423.214 75.801 L 425.018 76.519 L 425.377 77.598 L 425.377 79.033 L 427.181 79.393 L 428.622 80.113 L 428.262 81.548 L 425.737 84.063 L 425.018 84.422 L 423.936 85.86 L 423.936 86.939 C 423.274 87.344 426.403 88.943 426.819 89.094 L 426.819 89.094 L 426.819 89.094 L 426.819 89.094 L 427.902 90.529 L 430.065 92.326 L 436.552 95.918 L 439.797 96.997 L 443.403 96.997 L 446.646 95.2 L 448.089 95.558 L 448.089 96.997 L 444.845 99.512 L 447.368 100.23 L 448.449 102.384 L 450.612 109.21 L 450.612 114.24 L 453.857 119.988 C 455.17 126.327 455.643 133.095 459.264 138.67 L 459.264 138.67 L 459.264 138.67 L 459.264 138.67 L 457.823 141.184 L 456.38 142.979 L 457.101 148.009 L 455.66 154.835 L 452.775 158.427 L 448.449 161.661 L 445.205 164.535 L 446.286 169.922 L 445.926 173.156 C 442.553 173.01 445.99 175.578 447.008 176.389 L 447.008 176.389 L 447.008 176.389 L 447.008 176.389 L 449.531 176.748 L 453.857 180.342 L 459.624 183.575 L 461.787 187.886 L 466.835 191.478 L 473.322 196.15 L 471.521 201.536 L 472.962 203.693 L 468.636 209.442 L 468.998 214.829 L 471.881 219.5 L 471.881 220.936 L 472.962 222.733 L 475.847 223.81 L 478.732 225.247 L 478.37 227.044 L 477.65 228.839 L 478.37 230.636 L 478.01 236.025 L 478.732 237.102 L 481.614 239.257 L 480.893 240.694 L 480.533 243.209 L 479.091 246.083 L 479.091 252.55 L 478.37 254.347 L 476.928 256.861 L 474.765 259.016 L 473.684 260.453 L 474.044 263.328 L 476.209 265.842 C 476.945 266.665 476.899 267.676 476.928 268.717 L 476.928 268.717 L 476.928 268.717 L 476.928 268.717 L 477.288 270.154 L 478.37 271.589 L 480.173 273.026 C 481.066 273.446 481.809 273.977 482.336 274.823 L 482.336 274.823 L 482.336 274.823 L 482.336 274.823 L 482.696 275.901 L 483.056 276.98 L 483.777 279.495 L 482.696 282.009 L 481.974 283.804 L 481.614 285.961 L 482.696 287.396 L 485.58 289.193 L 487.384 289.193 L 490.626 290.63 L 494.592 292.425 L 495.672 294.222 L 495.672 296.737 L 496.394 301.048 L 496.755 303.203 L 497.837 305 L 500 307.875 L 500 311.467 L 498.918 315.059 L 498.918 319.728 L 497.837 321.885 C 497.775 323.822 497.88 325.81 497.115 327.633 L 497.115 327.633 L 497.115 327.633 L 497.115 327.633 L 495.672 331.583 L 494.231 336.974 L 492.789 339.489 L 490.988 342.003 L 490.626 344.518 L 489.545 347.75 L 486.302 348.108 L 481.614 345.593 L 480.893 345.236 L 480.893 343.439 L 481.614 341.644 L 481.974 340.206 L 480.533 338.409 L 479.091 339.847 L 478.01 340.206 L 477.65 339.129 L 478.732 337.332 L 478.37 335.177 L 476.569 332.663 L 474.405 332.303 L 472.962 330.506 L 472.602 328.711 L 471.881 329.069 L 471.881 330.506 L 469.358 330.866 L 468.276 331.583 L 467.195 331.583 L 466.475 330.866 L 465.394 330.148 L 463.952 329.788 L 461.787 329.788 L 460.346 331.225 L 459.624 333.02 L 458.543 335.535 L 459.984 336.255 L 461.787 336.255 L 461.787 337.332 L 462.869 338.769 L 465.753 340.206 L 466.835 340.206 L 466.835 342.003 L 465.753 343.079 L 463.23 343.439 L 461.427 343.439 L 458.902 344.158 L 456.741 346.313 L 453.497 348.47 L 449.89 350.265 L 448.089 350.984 L 444.485 350.984 L 443.403 352.062 L 442.682 353.139 L 441.24 353.139 L 440.159 353.857 L 440.159 357.091 L 438.356 358.168 L 436.193 358.528 L 434.03 358.168 L 430.785 359.605 L 426.099 359.965 L 422.495 360.325 L 419.972 362.48 L 421.053 363.915 L 420.692 364.994 L 419.25 366.43 L 419.61 367.509 L 418.89 368.586 L 416.727 370.383 L 414.202 368.586 L 412.399 367.869 L 410.238 369.306 L 408.435 373.256 L 405.552 371.821 L 404.469 373.256 L 403.027 377.567 L 401.586 379.005 L 398.342 379.722 L 395.819 380.082 L 393.294 380.082 L 392.934 382.237 L 392.572 385.471 L 390.049 387.628 L 388.248 387.628 L 383.922 384.751 L 382.119 384.751 L 381.759 385.471 L 378.874 385.471 L 375.63 389.423 L 372.387 389.063 L 368.059 389.78 L 366.618 389.78 L 363.373 391.937 L 362.654 394.092 L 361.572 395.529 L 359.409 396.607 L 357.966 399.123 L 356.524 401.278 L 355.083 404.152 L 354.361 406.667 L 355.083 409.182 L 355.083 410.259 L 353.642 409.541 L 352.92 407.027 L 351.117 404.152 L 351.838 403.073 L 351.479 401.998 L 348.594 401.638 L 347.872 400.201 L 347.872 398.404 L 345.709 396.968 L 340.663 396.249 L 340.663 397.326 L 341.745 398.044 L 343.546 400.558 L 343.186 401.638 L 341.745 403.793 L 342.105 404.87 L 343.546 405.947 L 344.987 407.027 C 347.641 407.316 347.878 411.144 347.512 413.133 L 347.512 413.133 L 347.512 413.133 L 347.512 413.133 L 347.512 414.928 L 348.956 416.365 L 351.117 418.88 L 351.479 421.395 L 360.131 425.706 L 361.572 426.784 L 364.095 426.784 L 364.095 430.735 L 367.339 432.892 L 367.339 433.97 L 366.618 435.765 L 365.536 438.279 L 364.095 438.279 L 363.373 440.436 L 363.735 442.95 L 362.654 444.388 L 361.212 444.388 L 359.409 446.542 L 360.491 447.98 L 361.212 449.775 L 363.735 452.289 L 366.978 454.086 L 366.978 455.166 L 366.618 456.601 L 366.978 458.038 L 370.222 460.195 L 369.862 462.35 L 371.306 464.864 L 372.387 466.661 L 374.55 467.021 L 374.188 470.973 L 375.27 473.845 L 380.316 477.079 L 381.037 478.516 L 382.481 481.031 L 384.644 482.468 L 389.689 482.828 L 389.689 481.749 L 391.131 481.389 L 392.212 482.108 L 393.656 483.186 L 396.179 484.983 L 396.179 486.418 L 397.26 487.497 L 399.423 490.012 L 401.224 492.167 L 404.109 495.401 L 406.634 499.71 L 408.435 500.43 L 410.958 500.788 L 412.761 500.788 L 414.562 502.585 L 417.447 505.819 L 418.89 507.614 L 418.89 509.411 L 419.25 510.848 L 420.692 512.283 L 422.495 513.723 L 425.018 515.16 L 425.737 514.798 L 426.099 512.645 L 427.181 511.926 L 428.622 512.645 L 430.785 513.723 L 431.866 514.44 L 432.588 516.237 L 433.67 518.032 L 435.111 519.471 L 437.274 519.829 L 438.715 519.829 L 443.041 527.373 L 444.123 528.81 L 443.763 530.605 L 442.682 532.044 L 442.682 533.839 L 444.123 534.559 L 443.763 535.996 L 444.123 537.791 L 444.485 540.308 L 443.763 543.18 L 442.682 545.695 L 440.881 546.054 L 439.797 547.492 L 439.797 548.569 L 438.715 548.927 L 437.634 547.851 L 435.471 546.054 L 431.866 544.977 L 428.262 544.257 L 426.099 544.977 L 424.296 546.054 L 423.576 547.132 L 423.936 548.209 L 424.296 550.006 L 424.656 551.441 L 423.936 552.881 L 423.576 553.956 L 423.576 556.473 L 423.576 558.268 L 423.214 559.347 L 422.855 561.862 L 421.773 562.939 L 416.365 567.968 L 414.924 569.045 L 413.481 569.405 L 411.32 569.763 L 408.435 570.123 L 406.272 570.842 L 403.747 571.92 L 402.306 572.637 L 400.143 573.357 L 397.26 576.231 L 391.491 579.823 L 383.922 587.727 L 384.284 591.679 L 390.411 595.628 L 391.131 601.019 L 395.459 604.252 L 399.423 610 L 396.9 616.107 L 395.097 620.059 L 396.54 623.291 L 400.505 622.933 L 402.306 621.496 L 405.19 627.962 L 403.387 633.351 L 402.668 638.021 L 404.109 640.895 L 402.668 641.972 L 399.063 641.972 L 394.015 639.458 L 392.212 636.943 L 388.968 634.429 L 390.771 630.117 L 387.167 627.243 L 387.886 625.088 L 386.807 625.448 L 384.644 625.448 L 382.84 624.728 L 380.316 624.728 L 378.514 625.088 L 377.073 626.167 L 375.63 627.602 L 374.188 628.682 L 371.306 629.04 L 369.862 627.602 L 368.781 626.885 L 368.781 625.805 L 368.059 624.728 L 366.978 623.653 L 365.898 623.653 L 364.455 624.37 L 364.095 624.728 L 361.572 624.728 L 359.409 624.011 L 357.606 624.728 L 356.524 625.088 L 356.164 624.011 L 356.164 623.291 L 356.884 622.573 L 356.884 621.496 L 357.244 621.136 L 357.244 620.776 L 355.803 620.776 L 354.001 622.213 L 352.92 622.933 L 352.198 622.933 L 352.198 624.37 L 353.642 626.525 L 354.001 627.962 L 354.001 629.757 L 352.56 631.196 L 352.56 631.914 L 348.594 631.914 L 348.594 631.554 L 337.781 631.554 L 337.781 631.914 L 335.978 631.914 L 334.174 632.632 L 332.731 632.991 L 332.371 634.429 L 332.011 634.786 L 330.93 634.429 L 328.767 634.069 L 322.637 634.069 L 319.755 633.711 L 318.673 634.786 L 317.592 636.583 L 316.872 638.74 L 315.791 640.177 L 314.709 640.895 L 313.266 641.255 L 311.103 640.895 L 308.58 640.895 L 307.138 641.613 L 306.777 642.332 L 305.335 644.127 L 304.616 644.847 L 305.335 645.564 L 306.417 645.564 L 306.057 646.284 L 305.695 646.642 L 303.894 646.642 L 303.172 646.642 L 302.453 647.004 L 302.091 647.004 L 301.369 647.721 L 299.566 649.518 L 298.486 650.593 L 297.405 650.953 L 297.043 650.953 L 297.043 648.439 L 295.961 648.079 L 294.882 647.721 L 293.439 648.439 L 291.637 649.158 L 289.472 651.313 C 288.294 651.346 282.491 653.216 282.264 650.593 L 282.264 650.593 L 282.264 650.593 L 282.264 650.593 L 281.904 649.518 L 282.264 648.079 L 277.937 644.489 L 276.856 643.769 L 275.774 643.41 L 276.134 642.692 L 276.856 642.332 L 277.937 641.613 L 277.937 640.535 L 275.415 639.098 L 274.333 639.098 L 272.892 639.818 L 271.448 640.535 L 270.007 640.895 L 269.647 640.895 L 268.926 639.818 L 261.717 636.943 L 260.995 636.583 L 259.192 636.583 L 258.112 636.943 L 257.751 637.663 L 256.669 639.098 L 256.309 639.458 L 254.506 639.458 L 252.703 638.74 L 251.983 638.021 L 252.343 636.943 L 251.983 635.148 L 251.261 635.148 L 250.18 635.148 L 249.098 635.866 L 248.739 636.583 L 249.098 637.663 L 249.46 638.38 L 249.82 639.458 L 249.46 641.972 L 249.098 643.41 L 249.82 643.769 C 250.656 644.185 250.593 645.159 250.902 645.924 L 250.902 645.924 L 250.902 645.924 L 250.902 645.924 L 250.54 648.079 L 250.54 649.876 L 249.82 650.236 L 249.46 651.313 L 248.739 652.391 L 247.657 653.108 L 246.576 653.468 L 245.856 654.547 L 245.134 655.985 L 243.691 657.779 L 241.888 659.576 L 240.446 660.294 L 238.283 661.371 L 235.041 661.731 L 234.679 661.731 L 234.679 661.371 L 236.482 659.934 L 236.842 658.137 L 237.204 656.342 L 237.564 655.265 L 237.564 653.108 L 236.482 652.391 L 235.401 652.391 L 234.679 652.75 L 233.238 652.75 L 232.156 653.828 L 231.434 653.468 L 230.713 653.468 L 229.631 653.828 L 229.271 651.673 L 228.911 650.236 L 229.993 649.518 L 229.993 648.079 L 228.19 645.564 L 226.748 643.05 L 225.667 643.05 L 225.307 643.41 L 224.947 643.769 L 224.226 643.769 L 224.226 642.692 L 223.504 641.255 L 222.422 640.177 L 222.063 638.74 L 221.703 638.38 L 220.981 638.38 L 220.259 639.098 L 218.818 639.098 L 217.375 638.74 L 216.293 638.38 L 215.214 638.74 L 214.132 638.021 L 214.132 635.506 L 213.051 634.786 L 211.969 634.069 L 210.888 634.069 L 210.166 635.148 L 209.806 635.148 L 209.084 635.866 L 208.363 636.943 L 206.561 639.458 L 205.84 639.818 L 201.514 639.818 L 200.072 639.458 L 184.571 630.117 L 182.768 628.322 L 180.245 627.962 L 178.444 627.962 L 177.722 627.243 L 176.641 626.525 L 171.593 626.167 L 169.43 626.167 L 167.629 625.805 L 166.907 625.805 L 165.466 626.525 L 164.384 627.602 L 162.941 627.602 L 161.5 627.962 L 160.058 627.962 L 157.535 625.805 L 157.174 625.448 L 158.255 625.448 L 158.255 624.37 L 156.814 623.291 L 154.291 621.856 L 152.488 621.856 L 151.766 622.933 L 151.766 624.011 L 150.684 623.653 L 149.963 624.37 L 149.603 622.933 L 149.243 621.856 L 149.963 620.776 L 150.325 618.981 L 148.881 618.262 L 148.521 618.262 L 147.44 617.544 L 147.44 616.827 L 145.999 615.389 L 145.279 615.389 L 144.917 616.107 L 144.197 616.827 L 144.197 618.262 L 143.476 617.544 L 143.476 615.747 L 142.394 614.67 L 140.953 614.67 L 139.869 614.67 L 138.788 615.389 L 139.15 615.747 L 139.15 616.827 L 138.068 616.827 L 137.706 617.184 L 135.905 617.184 L 135.183 617.184 L 134.102 618.262 L 133.382 619.341 L 133.022 620.419 L 132.301 621.496 L 131.579 621.856 L 130.498 622.213 L 129.778 622.933 L 129.778 624.011 L 130.138 625.448 L 129.778 626.525 L 130.859 627.243 L 132.301 627.962 L 133.382 629.04 L 134.824 629.399 L 136.625 629.04 L 138.428 627.602 C 139.303 627.545 142.512 626.773 142.034 628.682 L 142.034 628.682 L 142.034 628.682 L 142.034 628.682 L 141.313 628.682 L 140.953 629.399 L 140.953 630.117 L 140.953 631.554 L 140.591 632.632 L 139.869 632.272 L 139.15 630.837 L 138.068 629.757 L 137.346 629.757 L 136.265 630.117 L 135.545 630.477 L 134.102 631.196 L 133.742 631.554 L 133.382 632.272 L 132.661 632.991 L 131.941 633.351 L 129.056 633.351 L 128.694 632.991 L 126.893 632.991 L 125.45 632.632 L 125.09 631.554 L 125.09 630.477 L 124.008 629.757 L 122.207 629.399 L 119.323 629.399 L 117.16 630.117 L 116.438 630.837 L 113.915 631.914 L 112.112 634.069 C 109.332 634.172 103.753 636.449 102.018 632.991 L 102.018 632.991 L 102.018 632.991 L 102.018 632.991 L 101.299 631.914 L 99.495 631.554 L 97.694 631.554 L 96.613 630.837 L 95.891 631.554 L 94.81 632.991 L 94.088 633.711 L 93.006 634.786 L 91.565 634.786 L 89.042 635.148 C 87.868 635.109 86.869 634.47 85.798 634.069 L 85.798 634.069 L 85.798 634.069 L 85.798 634.069 L 86.879 632.991 L 87.239 631.914 L 87.961 630.837 L 87.599 630.117 L 85.798 630.837 L 83.635 630.837 L 83.635 629.399 L 82.191 628.322 L 82.191 627.243 L 81.469 626.167 L 81.469 625.448 L 80.39 624.011 L 79.668 623.291 L 79.308 621.136 L 81.11 619.699 L 81.11 617.184 L 80.75 615.03 L 80.39 614.312 L 80.75 613.592 L 80.75 612.515 L 81.469 611.436 L 82.553 610.36 L 82.913 610 L 82.553 606.049 L 83.273 605.331 L 83.994 603.892 L 83.994 602.097 L 84.716 601.019 L 86.519 599.222 L 86.519 595.628 L 85.438 593.474 L 84.356 591.319 L 84.356 586.29 L 85.076 584.853 L 86.519 583.056 L 86.519 580.901 L 88.68 578.746 L 89.762 576.949 L 91.203 574.792 L 91.925 572.997 L 91.925 570.842 L 92.285 569.405 L 93.728 568.688 L 94.81 567.608 L 95.531 566.173 L 95.531 565.094 L 94.81 563.659 L 94.81 560.065 L 95.531 558.627 L 96.973 556.113 L 96.973 553.598 L 98.054 552.521 L 99.495 551.801 L 99.495 550.366 L 98.776 548.927 L 99.136 546.054 L 99.855 542.822 L 101.658 541.025 L 102.74 539.228 L 103.821 539.228 L 104.181 538.511 L 104.903 538.511 L 106.706 536.354 L 108.869 534.199 L 108.869 531.325 L 112.474 531.325 L 113.193 528.81 L 114.996 528.09 L 115.716 527.733 L 117.881 524.141 L 119.684 519.829 L 121.126 517.315 L 122.927 514.44 L 122.567 513.723 L 121.845 513.003 L 120.766 512.283 L 119.684 512.645 L 117.881 511.926 L 114.275 510.488 L 110.67 508.334 C 109.403 507.322 107.916 506.849 106.344 506.537 L 106.344 506.537 L 106.344 506.537 L 106.344 506.537 L 102.38 506.537 C 101.024 506.152 99.742 505.567 98.414 505.099 L 98.414 505.099 L 98.414 505.099 L 98.414 505.099 L 97.332 505.099 L 95.531 506.179 L 94.088 505.459 L 91.925 505.459 L 91.565 505.819 L 90.843 505.819 L 90.124 505.459 L 90.124 504.74 L 89.042 503.305 L 86.879 502.585 L 84.356 501.867 L 82.553 498.635 L 82.191 497.196 L 82.191 495.401 L 80.39 495.041 L 78.947 495.041 L 77.867 493.604 L 76.064 493.604 L 75.342 493.962 L 73.901 494.324 L 73.181 496.119 L 73.181 496.838 L 71.738 496.838 L 70.294 497.916 L 69.935 498.635 L 68.134 498.273 L 67.412 497.916 L 63.086 497.916 L 59.481 495.401 L 58.4 495.041 L 58.038 495.759 L 58.038 497.556 L 56.956 497.916 L 56.237 497.196 L 55.515 495.759 L 55.515 492.527 L 55.877 491.809 L 54.074 491.809 L 50.11 489.292 L 47.225 489.292 L 45.422 488.575 L 44.7 488.933 L 44.7 490.372 L 44.7 492.886 L 44.7 493.604 L 43.98 494.324 L 41.457 493.244 L 38.935 493.244 L 38.213 492.527 L 38.213 491.089 L 38.573 488.933 L 37.853 487.857 L 37.131 488.215 L 36.77 487.857 L 36.41 485.343 L 35.328 484.983 L 34.968 483.186 L 33.165 481.389 L 31.724 479.594 L 30.282 478.157 L 30.282 476.719 L 31.724 477.079 L 31.724 475.282 L 31.002 474.205 L 28.841 471.69 L 28.479 469.536 L 27.038 468.096 L 24.513 466.661 L 22.35 465.942 L 21.99 465.224 L 20.549 465.224 L 19.107 466.661 L 19.107 462.709 L 20.187 459.115 L 20.549 455.883 L 22.712 453.728 L 24.153 451.214 L 24.153 447.98 L 25.235 448.339 L 26.678 447.62 L 28.479 446.185 L 29.561 445.825 L 28.841 443.31 L 28.479 442.231 L 29.201 441.513 L 29.201 439.359 L 29.921 437.562 L 28.479 436.844 L 27.038 435.765 L 24.873 436.124 L 23.431 435.407 L 21.99 434.687 L 21.268 433.61 L 19.467 432.532 L 19.107 432.892 L 18.386 432.892 L 18.386 432.173 L 17.664 431.095 L 16.944 430.378 L 15.141 429.3 L 13.698 426.784 L 12.616 423.551 L 11.175 421.754 L 10.455 422.474 L 10.455 421.037 L 9.374 418.522 L 9.012 415.648 L 8.292 414.211 L 9.374 413.133 L 9.374 412.414 L 8.652 412.414 L 9.374 409.182 L 10.815 407.385 L 10.093 407.027 L 10.455 404.87 L 10.815 404.512 L 11.897 404.512 L 12.616 403.433 L 12.616 401.638 L 11.897 400.201 L 13.338 399.123 L 15.141 397.686 L 16.585 397.686 L 18.026 396.968 L 19.107 396.249 L 18.746 395.171 L 19.107 393.734 L 20.549 393.015 L 20.909 393.374 L 24.153 393.374 L 24.873 392.657 L 24.873 390.142 L 23.072 386.548 L 23.791 385.471 L 24.153 383.316 L 24.153 381.161 L 23.072 380.082 L 23.072 378.285 L 23.791 377.567 L 23.072 377.207 L 21.99 376.85 L 20.187 376.85 L 18.746 375.413 L 18.026 375.77 L 17.664 376.132 L 16.223 376.132 L 15.503 374.693 L 15.863 373.616 L 14.781 373.616 L 15.141 372.538 L 14.42 371.101 L 16.944 369.306 L 18.746 368.227 L 19.467 366.791 L 19.107 365.712 L 18.386 365.354 L 14.781 364.635 L 14.42 363.557 L 14.42 362.84 L 12.616 359.605 L 11.175 357.449 L 9.374 356.013 L 8.652 356.013 L 6.851 356.731 L 6.851 354.216 L 6.129 353.499 L 6.129 351.702 L 5.048 349.905 L 6.851 348.827 L 6.851 346.313 L 7.93 345.593 L 8.292 345.955 L 9.012 345.955 L 10.455 344.518 L 10.455 342.003 L 10.455 340.206 L 10.093 339.129 L 9.012 339.129 L 7.571 338.05 L 7.211 337.332 L 7.211 335.177 L 7.93 334.098 L 7.211 333.38 L 5.408 333.38 L 3.606 333.02 L 2.163 333.02 L 1.082 333.74 L 0.722 331.583 L 0 329.788 L 0 327.633 L 1.441 327.633 L 1.803 328.351 L 2.163 329.069 L 3.606 329.069 L 4.688 329.069 L 5.769 327.633 L 6.489 326.196 L 7.571 325.119 L 9.374 324.039 L 11.535 322.602 L 12.978 321.885 L 16.585 319.728 L 16.585 319.01 L 15.863 317.933 L 17.304 316.856 L 17.664 316.496 L 16.585 316.138 L 15.503 315.418 L 14.06 316.496 L 12.978 317.213 L 12.257 317.213 L 11.897 315.776 L 11.897 312.904 L 12.978 311.467 L 14.781 309.67 L 16.223 307.155 L 17.304 305 L 18.746 304.283 L 19.827 302.845 L 20.549 301.406 L 20.909 299.611 L 20.549 298.174 L 20.549 296.377 L 21.268 293.862 L 20.909 290.99 L 20.909 287.396 L 18.386 284.524 L 15.863 280.57 L 15.503 278.775 L 16.223 276.26 L 15.141 274.823 L 12.616 273.746 L 11.897 273.026 L 11.897 271.951 L 12.616 270.871 L 12.616 269.794 L 11.535 268.717 L 10.093 267.997 L 8.292 267.997 L 8.292 267.279 L 9.374 266.56 L 9.734 266.202 L 9.734 263.328 L 9.012 262.248 L 8.292 261.531 L 9.012 260.813 L 9.734 260.453 L 11.897 260.453 L 13.338 259.376 L 15.863 258.658 L 17.304 259.016 L 18.746 259.376 L 20.187 260.093 L 20.549 258.658 L 19.827 257.939 L 18.386 256.144 L 18.386 255.424 L 18.746 255.064 L 19.827 255.784 L 21.268 257.219 L 21.99 257.579 L 23.431 258.299 L 24.873 258.299 L 25.595 257.939 L 26.316 259.376 L 27.038 260.093 L 28.841 260.453 L 29.561 260.813 L 29.561 262.248 L 30.642 261.89 C 31.838 262.141 32.361 261.994 32.805 260.813 L 32.805 260.813 L 32.805 260.813 L 32.805 260.813 L 32.805 259.376 L 33.525 259.376 L 33.887 259.734 L 34.968 260.093 L 37.491 260.093 L 39.654 258.299 L 42.539 257.219 L 45.062 256.502 L 50.469 256.502 L 52.992 255.064 L 54.434 253.267 L 54.795 252.19 L 56.237 251.115 L 56.237 248.958 L 55.155 247.521 L 54.074 246.443 L 52.632 245.724 L 51.191 244.646 L 49.748 244.288 L 49.748 242.491 L 51.551 241.772 L 52.273 239.977 L 54.434 238.54 L 55.877 238.18 L 58.038 238.18 L 59.481 236.025 L 62.006 233.868 L 63.807 233.151 L 65.249 230.996 L 67.412 229.199 L 69.213 228.122 L 69.213 227.044 L 68.853 225.967 L 68.493 223.09 L 70.294 219.858 L 70.656 217.703 L 70.656 215.906 L 69.935 214.111 L 69.213 212.674 L 67.772 210.517 L 67.052 208.363 L 65.97 208.363 L 64.529 209.442 L 62.006 209.8 C 60.213 209.543 58.623 208.652 56.956 208.003 L 56.956 208.003 L 56.956 208.003 L 56.956 208.003 L 54.795 208.003 L 53.714 207.285 L 52.632 206.208 L 51.911 204.411 L 51.911 200.459 L 52.632 200.459 L 54.074 199.739 L 55.515 199.022 L 53.714 196.507 L 53.714 195.43 L 53.714 193.635 L 55.515 192.556 L 57.678 192.196 L 59.841 192.196 L 62.006 192.556 L 63.807 193.635 L 64.889 193.635 L 67.412 193.275 L 68.493 193.993 L 69.935 194.353 L 71.016 192.556 L 71.738 190.759 L 72.098 187.167 L 72.46 183.215 L 73.181 177.828 L 74.623 173.516 L 77.505 170.642 L 79.668 165.973 L 81.469 161.301 L 81.831 154.117 L 80.028 150.165 L 82.191 145.854 L 81.831 140.107 L 83.994 137.95 L 83.994 135.796 L 85.798 134.716 L 87.961 135.076 L 90.124 136.873 L 91.203 136.513 L 90.483 133.999 L 87.599 132.561 L 84.356 132.201 L 81.11 131.844 L 76.424 131.484 L 74.623 131.126 L 73.901 128.612 L 73.541 124.3 L 76.424 116.394 L 78.947 117.474 L 80.75 114.959 L 79.308 112.445 L 77.867 111.725 L 79.308 109.57 L 81.831 107.775 L 85.438 104.899 L 89.402 102.744 L 93.006 103.104 L 97.332 102.744 L 99.136 104.181 L 102.74 103.821 L 121.126 101.307 L 124.008 101.667 L 126.171 102.744 L 125.812 104.181 L 125.09 105.619 L 126.171 107.056 L 128.335 111.007 L 130.859 113.162 L 130.138 114.24 L 132.301 115.677 L 132.301 117.834 L 130.498 118.909 L 127.973 118.909 L 126.893 119.988 L 126.893 121.066 L 127.613 122.863 L 128.694 125.377 L 131.219 125.018 L 132.661 126.095 L 133.742 127.892 L 135.545 128.969 L 138.428 128.612 L 139.869 126.455 L 140.953 123.94 L 141.313 121.424 L 141.313 119.629 L 139.509 117.474 L 136.987 117.834 L 136.987 115.677 L 138.068 113.162 L 138.428 111.007 L 141.673 111.365 L 143.116 113.162 L 145.999 115.677 L 150.684 116.754 L 152.128 117.474 L 151.044 118.909 L 149.603 120.348 L 148.881 122.863 L 148.521 127.532 L 148.881 131.484 L 150.325 134.716 L 151.406 128.25 L 150.684 126.455 L 150.684 123.58 L 151.766 121.785 L 153.569 119.629 L 154.651 117.114 L 153.209 113.88 L 151.406 109.21 L 150.684 105.978 L 150.325 103.104 L 152.488 98.792 L 153.569 95.2 L 154.291 92.686 L 155.732 89.454 L 157.895 88.014 L 160.058 87.657 L 161.859 89.454 L 164.022 91.608 L 167.629 92.326 L 169.43 93.044 L 172.315 93.044 L 176.281 92.326 L 177.722 92.326 L 180.967 90.529 L 190.701 90.529 L 191.78 91.249 L 192.502 93.044 L 193.583 95.558 L 195.384 98.435 L 197.547 102.027 L 199.713 104.899 L 201.154 105.619 L 201.514 107.775 L 201.876 108.851 L 203.317 110.648 L 204.758 112.804 L 206.2 114.959 L 208.722 115.319 L 210.166 116.394 L 212.691 117.834 L 215.573 118.191 L 218.456 118.909 L 220.259 118.551 L 219.897 117.474 L 218.096 116.037 L 216.293 114.959 L 214.132 114.959 L 213.051 114.959 L 211.609 114.599 L 210.888 114.24 L 209.444 113.162 L 207.281 112.085 L 205.48 110.29 L 205.118 108.133 L 204.758 104.899 L 204.398 102.744 L 202.235 101.667 L 200.794 100.949 L 198.991 99.152 L 198.269 96.997 L 197.909 94.483 L 197.547 92.686 L 195.384 91.249 L 192.862 89.811 L 190.339 87.657 L 186.734 86.939 L 184.931 86.577 L 181.327 86.939 L 179.524 86.219 L 177.363 85.86 L 176.641 86.939 L 175.919 86.219 L 174.116 84.782 L 170.512 77.598 L 169.792 76.161 L 169.43 75.082 L 170.871 74.004 L 172.315 74.364 L 173.394 75.441 L 174.838 76.161 L 176.281 76.519 L 178.082 75.082 L 178.444 72.207 L 178.444 68.975 L 177.001 67.538 L 176.281 65.023 L 173.756 64.664 L 172.315 65.023 L 170.152 66.82 L 169.792 64.306 L 168.349 62.509 L 168.71 61.431 L 170.512 57.839 L 169.792 56.4 L 170.512 55.325 L 171.953 54.965 L 173.756 55.325 L 174.478 53.886 L 176.281 51.013 L 175.919 49.936 L 175.197 49.936 L 172.675 51.371 L 171.233 51.013 L 170.871 51.371 L 169.07 51.371 L 167.989 52.45 L 164.384 51.371 L 162.941 52.45 L 161.138 53.528 L 159.337 52.45 L 158.255 50.296 L 157.895 47.781 L 159.696 47.061 L 161.859 47.061 L 162.581 47.419 L 162.581 45.624 L 160.418 44.547 L 159.696 44.187 L 160.058 43.11 L 161.5 43.47 L 163.663 42.75 L 165.466 42.39 L 172.315 42.39 L 175.197 40.235 L 179.164 37.721 L 178.804 33.409 L 177.722 31.614 L 175.197 28.74 L 172.675 25.865 L 171.233 24.43 L 170.152 21.554 L 169.07 17.962 L 166.907 16.525 L 164.384 14.37 L 163.303 14.01 L 163.663 11.496 L 163.303 9.341 L 161.859 7.184 L 161.5 6.109 L 161.5 2.515 L 162.581 1.077 L 165.466 1.077 L 166.547 1.077 L 168.349 0 L 171.953 0 L 173.756 0.718 L 177.001 1.797 L 179.164 3.232 L 180.967 3.594 L 183.128 3.952 L 186.013 4.312 L 188.178 5.029 L 188.897 6.109 L 189.257 7.904 L 190.339 9.341 L 195.746 9.341 L 197.547 7.904 L 198.991 8.981 L 200.072 8.981 L 202.595 8.263 C 204.146 6.99 205.964 6.115 207.641 5.029 L 207.641 5.029 L 207.641 5.029 L 207.641 5.029 L 207.281 6.466 L 208.722 7.544 L 211.609 8.263 L 214.132 8.263 C 215.222 9.521 216.86 10.058 218.096 11.138 L 218.096 11.138 L 218.096 11.138 L 218.096 11.138 L 219.178 13.652 L 220.981 13.652 L 223.144 12.933 L 223.866 12.573 L 223.866 11.138 L 224.585 10.778 L 226.027 11.496 L 227.108 13.293 L 227.108 15.09 L 228.19 16.884 L 228.19 17.604 L 226.748 17.962 L 225.667 18.682 L 224.585 19.399 L 224.226 20.836 L 226.748 20.476 L 228.55 20.836 L 229.993 21.914 L 230.353 24.43 L 229.993 27.303 L 229.271 30.177 L 229.271 31.614 L 228.19 33.049 L 226.748 34.489 L 223.504 35.926 L 222.784 36.284 L 219.897 36.284 L 219.897 37.721 L 222.422 39.158 L 224.226 39.158 L 227.47 38.078 L 232.516 37.361 L 234.679 36.284 L 235.76 36.284 L 236.122 37.361 L 237.923 38.44 L 237.564 41.673 L 238.283 43.47 L 237.204 44.905 L 236.122 45.984 L 235.401 46.342 L 235.041 47.419 L 235.041 48.139 L 235.76 48.499 L 235.401 49.576 L 235.041 51.013 L 236.482 51.013 L 239.365 47.061 L 240.086 45.624 L 240.446 43.47 L 242.249 42.75 L 243.331 42.032 L 244.413 40.955 L 246.576 41.313 L 247.657 41.673 L 249.098 43.11 L 251.261 44.547 L 255.587 45.984 L 257.751 47.061 L 259.192 48.139 L 261.355 49.936 L 262.796 51.371 L 264.959 52.091 L 266.041 52.45 L 268.566 52.091 L 269.647 51.013 L 271.81 49.576 L 273.611 47.781 L 276.496 46.342 L 279.381 46.702 L 282.264 47.781 L 283.345 50.296 L 283.345 53.528 L 283.345 56.762 L 283.705 59.634 L 282.625 61.072 L 282.264 62.509 L 280.822 63.586 L 279.019 64.306 L 276.856 66.103 L 275.053 67.898 L 273.611 69.335 L 272.17 70.053 L 271.089 70.412 L 270.007 69.693 L 268.926 71.132 L 268.206 72.207 L 266.403 74.722 L 267.122 77.236 L 268.926 79.393 L 271.448 80.113 L 272.892 79.751 L 272.892 82.268 L 273.973 82.627 Z " fill="rgb(174,174,174)"/></svg>