<?xml version="1.0" standalone="no"?><!-- Generator: Gravit.io --><svg xmlns="http://www.w3.org/2000/svg" xmlns:xlink="http://www.w3.org/1999/xlink" style="isolation:isolate" viewBox="0 0 200 212.903" width="200" height="212.903"><g><g opacity="0"><rect x="0" y="0" width="200" height="212.903" transform="matrix(1,0,0,1,0,0)" fill="rgb(235,235,235)"/></g><g><linearGradient id="_lgradient_0" x1="0.9999999999999996" y1="0.5000000000000004" x2="0.0046874999999997335" y2="0.4893019385507036" gradientTransform="matrix(193.548,0,0,70.968,3.226,138.71)" gradientUnits="userSpaceOnUse"><stop offset="1.7391304347826086%" stop-opacity="1" style="stop-color:rgb(4,4,4)"/><stop offset="49.56521739130435%" stop-opacity="1" style="stop-color:rgb(70,70,70)"/><stop offset="98.69565217391305%" stop-opacity="1" style="stop-color:rgb(4,4,4)"/></linearGradient><path d=" M 100.065 209.632 L 100.258 209.677 L 100.258 209.587 L 196.774 184.316 L 196.774 138.71 L 100.084 164.026 L 14.981 141.8 C 8.49 140.11 3.226 144.413 3.226 151.413 L 3.226 176.723 C 3.226 183.723 8.548 190.516 15.103 191.884 L 100 209.619 L 100 209.652 L 100.065 209.632 Z " fill-rule="evenodd" fill="url(#_lgradient_0)"/><linearGradient id="_lgradient_1" x1="0.01058806584362141" y1="0.44172774571353035" x2="1.0043205761316873" y2="0.4706701185366925" gradientTransform="matrix(193.548,0,0,95.664,3.226,52.13)" gradientUnits="userSpaceOnUse"><stop offset="1.7391304347826086%" stop-opacity="1" style="stop-color:rgb(4,4,4)"/><stop offset="49.130434782608695%" stop-opacity="1" style="stop-color:rgb(70,70,70)"/><stop offset="99.56521739130434%" stop-opacity="1" style="stop-color:rgb(4,4,4)"/><stop offset="99.56521739130434%" stop-opacity="1" style="stop-color:rgb(4,4,4)"/></linearGradient><path d=" M 98.755 123.581 L 98.755 123.6 L 196.774 147.794 L 196.774 99.406 L 101.245 75.826 L 101.245 75.806 L 5.6 52.2 C 4.29 51.877 3.226 52.697 3.226 54.032 L 3.226 97.581 C 3.226 98.916 4.29 100.265 5.6 100.587 L 98.755 123.581 Z " fill-rule="evenodd" fill="url(#_lgradient_1)"/><linearGradient id="_lgradient_2" x1="0" y1="0.4999999999999996" x2="1.0097483407079646" y2="0.5077559442142042" gradientTransform="matrix(193.548,0,0,70.968,3.226,3.226)" gradientUnits="userSpaceOnUse"><stop offset="0%" stop-opacity="1" style="stop-color:rgb(4,4,4)"/><stop offset="50.13497018704343%" stop-opacity="1" style="stop-color:rgb(64,64,64)"/><stop offset="98.26086956521739%" stop-opacity="1" style="stop-color:rgb(4,4,4)"/></linearGradient><path d=" M 100 50.535 L 100 50.535 L 196.774 74.194 L 196.774 26.884 L 100 3.226 L 100 3.226 L 5.574 26.31 C 4.277 26.626 3.226 27.942 3.226 29.245 L 3.226 71.826 C 3.226 73.129 4.277 73.935 5.574 73.619 L 100 50.535 Z " fill-rule="evenodd" fill="url(#_lgradient_2)"/></g></g></svg>