<?xml version="1.0" standalone="no"?><!-- Generator: Gravit.io --><svg xmlns="http://www.w3.org/2000/svg" xmlns:xlink="http://www.w3.org/1999/xlink" style="isolation:isolate" viewBox="90 4123.498 35 36.75" width="35" height="36.75"><clipPath id="_clipPath_BI3Zmtl9sQgfZmuQqcLDDzUKbIkbKns6"><rect x="90" y="4123.498" width="35" height="36.75" transform="matrix(1,0,0,1,0,0)" fill="rgb(255,255,255)"/></clipPath><g clip-path="url(#_clipPath_BI3Zmtl9sQgfZmuQqcLDDzUKbIkbKns6)"><g><clipPath id="_clipPath_pQeGRxY9YNYIbeInqphuPTMjMhfspEGU"><rect x="90" y="4123.498" width="35" height="36.75" transform="matrix(1,0,0,1,0,0)" fill="rgb(255,255,255)"/></clipPath><g clip-path="url(#_clipPath_pQeGRxY9YNYIbeInqphuPTMjMhfspEGU)"><g><g><path d=" M 107.5 4160.248 L 92.145 4157.178 C 90.96 4156.94 90 4155.768 90 4154.56 L 90 4150.185 C 90 4148.978 90.95 4148.235 92.122 4148.528 L 107.5 4152.373 L 107.5 4160.248 Z  M 107.5 4160.248 L 125 4155.873 L 125 4147.998 L 107.5 4152.373 L 107.5 4160.248 Z " fill-rule="evenodd" fill="rgb(255,255,255)"/><path d=" M 125 4149.748 L 107.5 4145.373 L 107.5 4136.623 L 125 4140.998 L 125 4149.748 Z  M 107.5 4145.373 L 90.425 4141.105 C 90.19 4141.045 90 4140.803 90 4140.56 L 90 4132.685 C 90 4132.443 90.19 4132.295 90.425 4132.355 L 107.5 4136.623 L 107.5 4145.373 Z " fill-rule="evenodd" fill="rgb(255,255,255)"/><path d=" M 107.5 4132.248 L 107.5 4132.248 L 125 4136.625 L 125 4127.873 L 107.5 4123.498 L 107.5 4123.498 L 90.425 4127.768 C 90.19 4127.825 90 4128.07 90 4128.31 L 90 4136.185 C 90 4136.428 90.19 4136.575 90.425 4136.518 L 107.5 4132.248 Z " fill-rule="evenodd" fill="rgb(255,255,255)"/></g></g></g></g></g></svg>