<?xml version="1.0" standalone="no"?><!-- Generator: Gravit.io --><svg xmlns="http://www.w3.org/2000/svg" xmlns:xlink="http://www.w3.org/1999/xlink" style="isolation:isolate" viewBox="0 0 30 32.401" width="30" height="32.401"><defs><clipPath id="_clipPath_DpAVAeMh701d2GK20HTofDml1GIbJtJZ"><rect width="30" height="32.401"/></clipPath></defs><g clip-path="url(#_clipPath_DpAVAeMh701d2GK20HTofDml1GIbJtJZ)"><linearGradient id="_lgradient_0" x1="0.01171875" y1="0.457558744948408" x2="0.9905427631578949" y2="0.46431346326279377" gradientTransform="matrix(30,0,0,10.801,0,21.6)" gradientUnits="userSpaceOnUse"><stop offset="26.956521739130434%" stop-opacity="1" style="stop-color:rgb(23,23,23)"/><stop offset="49.56521739130435%" stop-opacity="1" style="stop-color:rgb(64,64,64)"/><stop offset="99.1304347826087%" stop-opacity="1" style="stop-color:rgb(0,0,0)"/></linearGradient><path d=" M 15 32.401 L 1.839 29.693 C 0.824 29.485 0 28.451 0 27.387 L 0 23.529 C 0 22.464 0.815 21.81 1.819 22.068 L 15 25.458 L 15 32.401 Z  M 15 32.401 L 30 28.544 L 30 21.6 L 15 25.458 L 15 32.401 Z " fill-rule="evenodd" fill="url(#_lgradient_0)"/><linearGradient id="_lgradient_1" x1="-0.009648862092391311" y1="0.481168743607054" x2="1.0144505302687197" y2="0.529767887051682" gradientTransform="matrix(30,0,0,15.347,0,7.797)" gradientUnits="userSpaceOnUse"><stop offset="0%" stop-opacity="1" style="stop-color:rgb(4,4,4)"/><stop offset="50%" stop-opacity="1" style="stop-color:rgb(128,128,128)"/><stop offset="98.26086956521739%" stop-opacity="1" style="stop-color:rgb(13,13,13)"/></linearGradient><path d=" M 30 23.144 L 15 19.286 L 15 11.572 L 30 15.429 L 30 23.144 Z  M 15 19.287 L 0.364 15.523 C 0.163 15.471 0 15.256 0 15.044 L 0 8.1 C 0 7.887 0.163 7.756 0.364 7.808 L 15 11.572 L 15 19.287 Z " fill-rule="evenodd" fill="url(#_lgradient_1)"/><linearGradient id="_lgradient_2" x1="0.003928746204866839" y1="0.5246405612377367" x2="0.9878495933934482" y2="0.5105636230571206" gradientTransform="matrix(30,0,0,11.573,0,0)" gradientUnits="userSpaceOnUse"><stop offset="26.521739130434785%" stop-opacity="1" style="stop-color:rgb(23,23,23)"/><stop offset="50.8695652173913%" stop-opacity="1.0000000000000002" style="stop-color:rgb(64,64,64)"/><stop offset="98.69565217391305%" stop-opacity="1" style="stop-color:rgb(4,4,4)"/></linearGradient><path d=" M 15 7.715 L 15 7.715 L 30 11.573 L 30 3.858 L 15 0 L 15 0 L 0.364 3.764 C 0.163 3.816 0 4.03 0 4.243 L 0 11.187 C 0 11.399 0.163 11.53 0.364 11.479 L 15 7.715 Z " fill-rule="evenodd" fill="url(#_lgradient_2)"/></g></svg>