<?xml version="1.0" standalone="no"?><!-- Generator: Gravit.io --><svg xmlns="http://www.w3.org/2000/svg" xmlns:xlink="http://www.w3.org/1999/xlink" style="isolation:isolate" viewBox="0 0 305.354 143.869" width="305.354" height="143.869"><defs><clipPath id="_clipPath_qeIO34ecSwIWX2wa5m67a9hHJdJHLJS8"><rect width="305.354" height="143.869"/></clipPath></defs><g clip-path="url(#_clipPath_qeIO34ecSwIWX2wa5m67a9hHJdJHLJS8)"><path d="M 98.56 135.738 L 98.56 135.738 C 94.871 140.75 87.457 141.565 82.014 137.558 L 5.323 81.107 C -0.12 77.101 -1.544 69.779 2.144 64.768 L 2.144 64.768 C 5.833 59.757 13.247 58.942 18.69 62.948 L 95.381 119.399 C 100.824 123.406 102.248 130.727 98.56 135.738 Z" style="stroke:none;fill:#000000;stroke-miterlimit:10;"/><path d="M 98.691 7.669 L 98.691 7.669 C 102.62 13.012 101.246 20.706 95.624 24.84 L 19.545 80.783 C 13.923 84.917 6.169 83.935 2.24 78.591 L 2.24 78.591 C -1.689 73.248 -0.315 65.554 5.307 61.42 L 81.386 5.477 C 87.007 1.343 94.762 2.325 98.691 7.669 Z" style="stroke:none;fill:#000000;stroke-miterlimit:10;"/><path d="M 206.794 135.738 L 206.794 135.738 C 210.482 140.75 217.896 141.565 223.339 137.558 L 300.03 81.107 C 305.473 77.101 306.898 69.779 303.209 64.768 L 303.209 64.768 C 299.521 59.757 292.107 58.942 286.664 62.948 L 209.973 119.399 C 204.53 123.406 203.105 130.727 206.794 135.738 Z" style="stroke:none;fill:#000000;stroke-miterlimit:10;"/><path d="M 206.663 7.669 L 206.663 7.669 C 202.734 13.012 204.108 20.706 209.73 24.84 L 285.808 80.783 C 291.43 84.917 299.184 83.935 303.113 78.591 L 303.113 78.591 C 307.043 73.248 305.668 65.554 300.047 61.42 L 223.968 5.477 C 218.346 1.343 210.592 2.325 206.663 7.669 Z" style="stroke:none;fill:#000000;stroke-miterlimit:10;"/><path d="M 175.281 0.837 L 175.281 0.837 C 181.369 3.469 183.755 11.521 180.606 18.807 L 130.558 134.598 C 127.408 141.884 119.909 145.663 113.821 143.032 L 113.821 143.032 C 107.732 140.4 105.346 132.348 108.496 125.062 L 158.544 9.271 C 161.693 1.985 169.193 -1.794 175.281 0.837 Z" style="stroke:none;fill:#000000;stroke-miterlimit:10;"/></g></svg>