<?xml version="1.0" standalone="no"?><!-- Generator: Gravit.io --><svg xmlns="http://www.w3.org/2000/svg" xmlns:xlink="http://www.w3.org/1999/xlink" style="isolation:isolate" viewBox="0 0 400 400" width="400" height="400"><defs><clipPath id="_clipPath_zSZNLzARC7x4GNx2D358dvE6DPb102Xd"><rect width="400" height="400"/></clipPath></defs><g clip-path="url(#_clipPath_zSZNLzARC7x4GNx2D358dvE6DPb102Xd)"><g><path d=" M 100.536 153 C 100.46 153.354 100.385 153.708 100.32 154.064 L 100 154.064 L 100 157.564 L 100 182.564 L 100 184.064 L 100.058 184.064 C 101.878 207.379 145.963 226.064 200 226.064 C 254.037 226.064 298.122 207.379 299.942 184.064 L 300 184.064 L 300 182.564 L 300 157.564 L 300 154.064 L 299.68 154.064 C 299.615 153.708 299.54 153.354 299.464 153 C 294.366 174.929 251.747 192.064 200 192.064 C 148.253 192.064 105.634 174.929 100.536 153 Z " fill-rule="evenodd" fill="rgb(0,0,0)"/></g><g><path d=" M 100.536 205.936 C 100.46 206.29 100.385 206.645 100.32 207 L 100 207 L 100 210.5 L 100 235.5 L 100 237 L 100.058 237 C 101.878 260.315 145.963 279 200 279 C 254.037 279 298.122 260.315 299.942 237 L 300 237 L 300 235.5 L 300 210.5 L 300 207 L 299.68 207 C 299.615 206.645 299.54 206.29 299.464 205.936 C 294.366 227.865 251.747 245 200 245 C 148.253 245 105.634 227.865 100.536 205.936 Z " fill-rule="evenodd" fill="rgb(0,0,0)"/></g><g><path d=" M 100.536 258 C 100.46 258.354 100.385 258.708 100.32 259.064 L 100 259.064 L 100 262.564 L 100 287.564 L 100 289.064 L 100.058 289.064 C 101.878 312.379 145.963 331.064 200 331.064 C 254.037 331.064 298.122 312.379 299.942 289.064 L 300 289.064 L 300 287.564 L 300 262.564 L 300 259.064 L 299.68 259.064 C 299.615 258.708 299.54 258.354 299.464 258 C 294.366 279.929 251.747 297.064 200 297.064 C 148.253 297.064 105.634 279.929 100.536 258 Z " fill-rule="evenodd" fill="rgb(0,0,0)"/></g><g><path d=" M 100.058 131 L 100 131 L 100 129.5 L 100 104.5 L 100 101 L 100.32 101 C 104.423 78.626 147.517 61 200 61 C 252.483 61 295.577 78.626 299.68 101 L 300 101 L 300 104.5 L 300 129.5 L 300 131 L 299.942 131 C 298.122 154.315 254.037 173 200 173 C 145.963 173 101.878 154.315 100.058 131 Z " fill-rule="evenodd" fill="rgb(0,0,0)"/></g></g></svg>