<?xml version="1.0" standalone="no"?><!-- Generator: Gravit.io --><svg xmlns="http://www.w3.org/2000/svg" xmlns:xlink="http://www.w3.org/1999/xlink" style="isolation:isolate" viewBox="0 0 120 151.261" width="120" height="151.261"><defs><clipPath id="_clipPath_sUtaxben7gDq6JBZiT70Slrmuwe2UUFA"><rect width="120" height="151.261"/></clipPath></defs><g clip-path="url(#_clipPath_sUtaxben7gDq6JBZiT70Slrmuwe2UUFA)"><g><g><path d=" M 0.319 51.099 C 0.274 51.296 0.229 51.492 0.19 51.69 L 0 51.69 L 0 53.634 L 0 67.519 L 0 68.353 L 0.035 68.353 C 1.118 81.302 27.348 91.68 59.5 91.68 C 91.652 91.68 117.882 81.302 118.965 68.353 L 119 68.353 L 119 67.519 L 119 53.634 L 119 51.69 L 118.81 51.69 C 118.771 51.492 118.726 51.296 118.681 51.099 C 115.648 63.279 90.289 72.796 59.5 72.796 C 28.711 72.796 3.352 63.279 0.319 51.099 Z " fill-rule="evenodd" fill="rgb(0,0,0)"/></g><g><path d=" M 0.319 80.501 C 0.274 80.698 0.229 80.895 0.19 81.092 L 0 81.092 L 0 83.036 L 0 96.922 L 0 97.755 L 0.035 97.755 C 1.118 110.704 27.348 121.083 59.5 121.083 C 91.652 121.083 117.882 110.704 118.965 97.755 L 119 97.755 L 119 96.922 L 119 83.036 L 119 81.092 L 118.81 81.092 C 118.771 80.895 118.726 80.698 118.681 80.501 C 115.648 92.681 90.289 102.198 59.5 102.198 C 28.711 102.198 3.352 92.681 0.319 80.501 Z " fill-rule="evenodd" fill="rgb(0,0,0)"/></g><g><path d=" M 0.319 109.419 C 0.274 109.615 0.229 109.812 0.19 110.009 L 0 110.009 L 0 111.953 L 0 125.839 L 0 126.672 L 0.035 126.672 C 1.118 139.622 27.348 150 59.5 150 C 91.652 150 117.882 139.622 118.965 126.672 L 119 126.672 L 119 125.839 L 119 111.953 L 119 110.009 L 118.81 110.009 C 118.771 109.812 118.726 109.615 118.681 109.419 C 115.648 121.599 90.289 131.116 59.5 131.116 C 28.711 131.116 3.352 121.599 0.319 109.419 Z " fill-rule="evenodd" fill="rgb(0,0,0)"/></g><g><path d=" M 0.035 38.88 L 0 38.88 L 0 38.047 L 0 24.161 L 0 22.217 L 0.19 22.217 C 2.631 9.79 28.273 0 59.5 0 C 90.727 0 116.369 9.79 118.81 22.217 L 119 22.217 L 119 24.161 L 119 38.047 L 119 38.88 L 118.965 38.88 C 117.882 51.829 91.652 62.208 59.5 62.208 C 27.348 62.208 1.118 51.829 0.035 38.88 Z " fill-rule="evenodd" fill="rgb(0,0,0)"/></g></g></g></svg>