<?xml version="1.0" standalone="no"?><!-- Generator: Gravit.io --><svg xmlns="http://www.w3.org/2000/svg" xmlns:xlink="http://www.w3.org/1999/xlink" style="isolation:isolate" viewBox="0 0 400 400" width="400" height="400"><defs><clipPath id="_clipPath_iQVgePCpHNHcbTKjB62BMA3dxxTpUUhO"><rect width="400" height="400"/></clipPath></defs><g clip-path="url(#_clipPath_iQVgePCpHNHcbTKjB62BMA3dxxTpUUhO)"><path d=" M 31.154 148.684 L 103.846 148.684 L 103.846 156.579 L 31.154 156.579 L 31.154 148.684 L 31.154 148.684 L 31.154 148.684 L 31.154 148.684 Z  M 31.154 164.474 L 103.846 164.474 L 103.846 172.368 L 31.154 172.368 L 31.154 164.474 L 31.154 164.474 L 31.154 164.474 Z  M 31.154 180.263 L 103.846 180.263 L 103.846 188.158 L 31.154 188.158 L 31.154 180.263 L 31.154 180.263 Z  M 30.39 125 L 104.61 125 C 113.104 125 120 131.896 120 140.39 L 120 259.61 C 120 268.104 113.104 275 104.61 275 L 30.39 275 C 21.896 275 15 268.104 15 259.61 L 15 140.39 C 15 131.896 21.896 125 30.39 125 L 30.39 125 L 30.39 125 L 30.39 125 Z  M 55.385 231.579 C 55.385 225.043 60.813 219.737 67.5 219.737 C 74.187 219.737 79.615 225.043 79.615 231.579 C 79.615 238.115 74.187 243.421 67.5 243.421 C 60.813 243.421 55.385 238.115 55.385 231.579 Z " fill-rule="evenodd" fill="rgb(0,0,0)" vector-effect="non-scaling-stroke" stroke-width="1" stroke="rgb(0,0,0)" stroke-linejoin="miter" stroke-linecap="square" stroke-miterlimit="3"/><g><path d=" M 317.517 47.843 L 317.517 55.686 L 357.437 55.686 L 357.437 47.843 L 317.517 47.843 L 317.517 47.843 Z  M 380 44.287 L 380 59.765 C 380 62.131 378.079 64.052 375.713 64.052 L 315.295 64.052 C 312.929 64.052 311.011 62.131 311.014 59.765 C 311.021 55.107 311.025 47.095 311.019 44.287 C 311.013 41.921 312.929 40 315.295 40 L 375.713 40 C 378.079 40 380 41.921 380 44.287 L 380 44.287 Z  M 369.152 51.765 C 369.152 49.745 370.513 48.105 372.19 48.105 C 373.866 48.105 375.227 49.745 375.227 51.765 C 375.227 53.785 373.866 55.425 372.19 55.425 C 370.513 55.425 369.152 53.785 369.152 51.765 Z " fill-rule="evenodd" fill="rgb(0,0,0)" vector-effect="non-scaling-stroke" stroke-width="1" stroke="rgb(0,0,0)" stroke-linejoin="miter" stroke-linecap="square" stroke-miterlimit="3"/><path d=" M 317.517 75.556 L 317.517 83.399 L 357.437 83.399 L 357.437 75.556 L 317.517 75.556 L 317.517 75.556 Z  M 380 71.999 L 380 87.478 C 380 89.844 378.079 91.765 375.713 91.765 L 315.295 91.765 C 312.929 91.765 311.011 89.844 311.014 87.478 C 311.021 82.82 311.025 74.807 311.019 71.999 C 311.013 69.633 312.929 67.712 315.295 67.712 L 375.713 67.712 C 378.079 67.712 380 69.633 380 71.999 L 380 71.999 Z  M 369.152 79.477 C 369.152 77.457 370.513 75.817 372.19 75.817 C 373.866 75.817 375.227 77.457 375.227 79.477 C 375.227 81.497 373.866 83.137 372.19 83.137 C 370.513 83.137 369.152 81.497 369.152 79.477 Z " fill-rule="evenodd" fill="rgb(0,0,0)" vector-effect="non-scaling-stroke" stroke-width="1" stroke="rgb(0,0,0)" stroke-linejoin="miter" stroke-linecap="square" stroke-miterlimit="3"/><path d=" M 317.517 103.791 L 317.517 111.634 L 357.437 111.634 L 357.437 103.791 L 317.517 103.791 L 317.517 103.791 Z  M 380 100.235 L 380 115.713 C 380 118.079 378.079 120 375.713 120 L 315.295 120 C 312.929 120 311.011 118.079 311.014 115.713 C 311.021 111.055 311.025 103.043 311.019 100.235 C 311.013 97.869 312.929 95.948 315.295 95.948 L 375.713 95.948 C 378.079 95.948 380 97.869 380 100.235 L 380 100.235 Z  M 369.152 107.712 C 369.152 105.692 370.513 104.052 372.19 104.052 C 373.866 104.052 375.227 105.692 375.227 107.712 C 375.227 109.732 373.866 111.373 372.19 111.373 C 370.513 111.373 369.152 109.732 369.152 107.712 Z " fill-rule="evenodd" fill="rgb(0,0,0)" vector-effect="non-scaling-stroke" stroke-width="1" stroke="rgb(0,0,0)" stroke-linejoin="miter" stroke-linecap="square" stroke-miterlimit="3"/></g><g><path d=" M 317.518 167.843 L 317.518 175.686 L 357.437 175.686 L 357.437 167.843 L 317.518 167.843 L 317.518 167.843 Z  M 380.001 164.287 L 380.001 179.765 C 380.001 182.131 378.08 184.052 375.714 184.052 L 315.296 184.052 C 312.93 184.052 311.012 182.131 311.015 179.765 C 311.021 175.107 311.026 167.095 311.019 164.287 C 311.014 161.921 312.93 160 315.296 160 L 375.714 160 C 378.08 160 380.001 161.921 380.001 164.287 L 380.001 164.287 Z  M 369.153 171.765 C 369.153 169.745 370.514 168.105 372.19 168.105 C 373.867 168.105 375.228 169.745 375.228 171.765 C 375.228 173.785 373.867 175.425 372.19 175.425 C 370.514 175.425 369.153 173.785 369.153 171.765 Z " fill-rule="evenodd" fill="rgb(0,0,0)" vector-effect="non-scaling-stroke" stroke-width="1" stroke="rgb(0,0,0)" stroke-linejoin="miter" stroke-linecap="square" stroke-miterlimit="3"/><path d=" M 317.518 195.556 L 317.518 203.399 L 357.437 203.399 L 357.437 195.556 L 317.518 195.556 L 317.518 195.556 Z  M 380.001 191.999 L 380.001 207.478 C 380.001 209.844 378.08 211.765 375.714 211.765 L 315.296 211.765 C 312.93 211.765 311.012 209.844 311.015 207.478 C 311.021 202.82 311.026 194.807 311.019 191.999 C 311.014 189.633 312.93 187.712 315.296 187.712 L 375.714 187.712 C 378.08 187.712 380.001 189.633 380.001 191.999 L 380.001 191.999 Z  M 369.153 199.477 C 369.153 197.457 370.514 195.817 372.19 195.817 C 373.867 195.817 375.228 197.457 375.228 199.477 C 375.228 201.497 373.867 203.137 372.19 203.137 C 370.514 203.137 369.153 201.497 369.153 199.477 Z " fill-rule="evenodd" fill="rgb(0,0,0)" vector-effect="non-scaling-stroke" stroke-width="1" stroke="rgb(0,0,0)" stroke-linejoin="miter" stroke-linecap="square" stroke-miterlimit="3"/><path d=" M 317.518 223.791 L 317.518 231.634 L 357.437 231.634 L 357.437 223.791 L 317.518 223.791 L 317.518 223.791 Z  M 380.001 220.235 L 380.001 235.713 C 380.001 238.079 378.08 240 375.714 240 L 315.296 240 C 312.93 240 311.012 238.079 311.015 235.713 C 311.021 231.055 311.026 223.043 311.019 220.235 C 311.014 217.869 312.93 215.948 315.296 215.948 L 375.714 215.948 C 378.08 215.948 380.001 217.869 380.001 220.235 L 380.001 220.235 Z  M 369.153 227.712 C 369.153 225.692 370.514 224.052 372.19 224.052 C 373.867 224.052 375.228 225.692 375.228 227.712 C 375.228 229.732 373.867 231.373 372.19 231.373 C 370.514 231.373 369.153 229.732 369.153 227.712 Z " fill-rule="evenodd" fill="rgb(0,0,0)" vector-effect="non-scaling-stroke" stroke-width="1" stroke="rgb(0,0,0)" stroke-linejoin="miter" stroke-linecap="square" stroke-miterlimit="3"/></g><g><path d=" M 317.518 287.843 L 317.518 295.686 L 357.437 295.686 L 357.437 287.843 L 317.518 287.843 L 317.518 287.843 Z  M 380.001 284.287 L 380.001 299.765 C 380.001 302.131 378.08 304.052 375.714 304.052 L 315.296 304.052 C 312.93 304.052 311.012 302.131 311.015 299.765 C 311.021 295.107 311.026 287.095 311.019 284.287 C 311.014 281.921 312.93 280 315.296 280 L 375.714 280 C 378.08 280 380.001 281.921 380.001 284.287 L 380.001 284.287 Z  M 369.153 291.765 C 369.153 289.745 370.514 288.105 372.19 288.105 C 373.867 288.105 375.228 289.745 375.228 291.765 C 375.228 293.785 373.867 295.425 372.19 295.425 C 370.514 295.425 369.153 293.785 369.153 291.765 Z " fill-rule="evenodd" fill="rgb(0,0,0)" vector-effect="non-scaling-stroke" stroke-width="1" stroke="rgb(0,0,0)" stroke-linejoin="miter" stroke-linecap="square" stroke-miterlimit="3"/><path d=" M 317.518 315.556 L 317.518 323.399 L 357.437 323.399 L 357.437 315.556 L 317.518 315.556 L 317.518 315.556 Z  M 380.001 311.999 L 380.001 327.478 C 380.001 329.844 378.08 331.765 375.714 331.765 L 315.296 331.765 C 312.93 331.765 311.012 329.844 311.015 327.478 C 311.021 322.82 311.026 314.807 311.019 311.999 C 311.014 309.633 312.93 307.712 315.296 307.712 L 375.714 307.712 C 378.08 307.712 380.001 309.633 380.001 311.999 L 380.001 311.999 Z  M 369.153 319.477 C 369.153 317.457 370.514 315.817 372.19 315.817 C 373.867 315.817 375.228 317.457 375.228 319.477 C 375.228 321.497 373.867 323.137 372.19 323.137 C 370.514 323.137 369.153 321.497 369.153 319.477 Z " fill-rule="evenodd" fill="rgb(0,0,0)" vector-effect="non-scaling-stroke" stroke-width="1" stroke="rgb(0,0,0)" stroke-linejoin="miter" stroke-linecap="square" stroke-miterlimit="3"/><path d=" M 317.518 343.791 L 317.518 351.634 L 357.437 351.634 L 357.437 343.791 L 317.518 343.791 L 317.518 343.791 Z  M 380.001 340.235 L 380.001 355.713 C 380.001 358.079 378.08 360 375.714 360 L 315.296 360 C 312.93 360 311.012 358.079 311.015 355.713 C 311.021 351.055 311.026 343.043 311.019 340.235 C 311.014 337.869 312.93 335.948 315.296 335.948 L 375.714 335.948 C 378.08 335.948 380.001 337.869 380.001 340.235 L 380.001 340.235 Z  M 369.153 347.712 C 369.153 345.692 370.514 344.052 372.19 344.052 C 373.867 344.052 375.228 345.692 375.228 347.712 C 375.228 349.732 373.867 351.373 372.19 351.373 C 370.514 351.373 369.153 349.732 369.153 347.712 Z " fill-rule="evenodd" fill="rgb(0,0,0)" vector-effect="non-scaling-stroke" stroke-width="1" stroke="rgb(0,0,0)" stroke-linejoin="miter" stroke-linecap="square" stroke-miterlimit="3"/></g><path d=" M 130 200 L 130 200 C 130 201.38 131.636 202.5 133.651 202.5 L 286.349 202.5 C 288.364 202.5 290 201.38 290 200 L 290 200 C 290 198.62 288.364 197.5 286.349 197.5 L 133.651 197.5 C 131.636 197.5 130 198.62 130 200 Z " fill="rgb(0,0,0)" vector-effect="non-scaling-stroke" stroke-width="1" stroke="rgb(0,0,0)" stroke-linejoin="miter" stroke-linecap="square" stroke-miterlimit="3"/><path d=" M 130.271 201.672 L 130.271 201.672 C 131.039 202.947 133.211 202.871 135.117 201.502 L 292.108 88.791 C 294.015 87.423 294.938 85.277 294.17 84.002 L 294.17 84.002 C 293.401 82.728 291.23 82.804 289.323 84.173 L 132.332 196.883 C 130.426 198.252 129.502 200.398 130.271 201.672 Z " fill="rgb(0,0,0)" vector-effect="non-scaling-stroke" stroke-width="1" stroke="rgb(0,0,0)" stroke-linejoin="miter" stroke-linecap="square" stroke-miterlimit="3"/><path d=" M 298.057 79.195 L 292.407 79.546 L 286.758 79.898 C 285.105 80.001 284.507 81.204 285.422 82.584 L 288.551 87.301 L 291.68 92.017 C 292.596 93.397 293.937 93.314 294.675 91.831 L 297.195 86.763 L 299.715 81.695 C 300.452 80.212 299.709 79.092 298.057 79.195 Z " fill="rgb(0,0,0)"/><path d=" M 130.271 198.408 L 130.271 198.408 C 131.039 197.134 133.211 197.21 135.117 198.579 L 292.108 311.289 C 294.015 312.658 294.938 314.804 294.17 316.078 L 294.17 316.078 C 293.401 317.353 291.23 317.277 289.323 315.908 L 132.332 203.197 C 130.426 201.829 129.502 199.683 130.271 198.408 Z " fill="rgb(0,0,0)" vector-effect="non-scaling-stroke" stroke-width="1" stroke="rgb(0,0,0)" stroke-linejoin="miter" stroke-linecap="square" stroke-miterlimit="3"/><path d=" M 298.057 320.886 L 292.407 320.534 L 286.758 320.183 C 285.105 320.08 284.507 318.876 285.422 317.497 L 288.551 312.78 L 291.68 308.063 C 292.596 306.684 293.937 306.767 294.675 308.25 L 297.195 313.318 L 299.715 318.386 C 300.452 319.869 299.709 320.989 298.057 320.886 Z " fill="rgb(0,0,0)"/><path d=" M 300.104 201.5 L 295.202 204.33 L 290.3 207.16 C 288.866 207.988 287.702 207.316 287.702 205.66 L 287.702 200 L 287.702 194.34 C 287.702 192.684 288.866 192.012 290.3 192.84 L 295.202 195.67 L 300.104 198.5 C 301.538 199.328 301.538 200.672 300.104 201.5 Z " fill="rgb(0,0,0)"/></g></svg>