<?xml version="1.0" standalone="no"?><!-- Generator: Gravit.io --><svg xmlns="http://www.w3.org/2000/svg" xmlns:xlink="http://www.w3.org/1999/xlink" style="isolation:isolate" viewBox="0 0 150 99.643" width="150" height="99.643"><defs><clipPath id="_clipPath_V8eEGMf13rKqkIBOp5roF2K34cBkfO70"><rect width="150" height="99.643"/></clipPath></defs><g clip-path="url(#_clipPath_V8eEGMf13rKqkIBOp5roF2K34cBkfO70)"><path d=" M 72.934 0 Q 98.419 1.606 110.357 16.76 Q 114.468 21.374 117.474 27.092 Q 132.29 29.113 140.051 38.189 Q 149.501 46.953 150 64.668 Q 148.318 82.119 137.679 90.612 Q 129.063 99.369 111.964 99.643 L 88.5 99.643 L 88.5 57.75 L 95.672 57.75 C 98.156 57.75 100.75 57.401 101.461 56.97 L 101.461 56.97 C 102.173 56.54 102.414 55.699 102 55.092 L 102 55.092 C 101.586 54.486 99.967 52.438 98.386 50.523 L 86.047 35.57 C 80.778 29.184 76.164 23.835 75.75 23.633 L 75.75 23.633 C 75.336 23.43 74.664 23.43 74.25 23.633 L 74.25 23.633 C 73.836 23.835 69.222 29.184 63.953 35.57 L 51.614 50.523 C 50.033 52.438 48.414 54.486 48 55.092 L 48 55.092 C 47.586 55.699 47.754 56.54 48.375 56.97 L 48.375 56.97 C 48.996 57.401 51.516 57.75 54 57.75 L 61.5 57.75 L 61.5 99.643 L 35.128 99.643 Q 16.839 99.717 8.724 89.617 Q 0.164 81.801 0 65.587 Q 1.684 50.816 10.791 43.469 Q 16.508 38.243 25.255 36.046 Q 29.708 21.366 40.026 12.551 Q 51.457 1.253 72.934 0 Z " fill="rgb(0,0,0)"/></g></svg>