<?xml version="1.0" standalone="no"?><!-- Generator: Gravit.io --><svg xmlns="http://www.w3.org/2000/svg" xmlns:xlink="http://www.w3.org/1999/xlink" style="isolation:isolate" viewBox="0 0 129.973 93.976" width="129.973" height="93.976"><defs><clipPath id="_clipPath_YgP2fbs5LzQXyXGtRZpXg1IXzM3TBiu8"><rect width="129.973" height="93.976"/></clipPath></defs><g clip-path="url(#_clipPath_YgP2fbs5LzQXyXGtRZpXg1IXzM3TBiu8)"><g><path d=" M 89.056 17.835 L 85.951 24.154 L 82.847 30.473 C 82.095 32.004 80.553 32.222 79.406 30.958 L 76.467 27.719 L 73.529 24.48 C 72.382 23.217 72.748 21.703 74.345 21.103 L 80.935 18.626 L 87.525 16.149 C 89.122 15.548 89.808 16.304 89.056 17.835 Z " fill="rgb(0,0,0)"/><path d=" M 80.454 24.93 L 80.454 24.93 C 81.525 26.363 80.953 28.604 79.177 29.93 L 51.705 50.453 C 49.93 51.779 47.619 51.692 46.548 50.258 L 46.548 50.258 C 45.477 48.825 46.049 46.584 47.824 45.258 L 75.296 24.735 C 77.072 23.409 79.383 23.496 80.454 24.93 Z " fill="rgb(0,0,0)"/><path d=" M 88.171 80.551 L 81.298 79.025 L 74.425 77.499 C 72.76 77.129 72.185 75.682 73.142 74.27 L 75.596 70.65 L 78.05 67.03 C 79.008 65.618 80.565 65.616 81.525 67.026 L 85.487 72.846 L 89.449 78.666 C 90.409 80.076 89.836 80.921 88.171 80.551 Z " fill="rgb(0,0,0)"/><path d=" M 79.248 73.865 L 79.248 73.865 C 78.107 75.245 75.795 75.217 74.087 73.805 L 47.662 51.95 C 45.954 50.538 45.494 48.272 46.634 46.893 L 46.634 46.893 C 47.775 45.514 50.087 45.541 51.795 46.953 L 78.22 68.808 C 79.928 70.22 80.388 72.487 79.248 73.865 Z " fill="rgb(0,0,0)"/></g><g><path d=" M 100.945 4.081 L 100.945 7.662 L 119.171 7.662 L 119.171 4.081 L 100.945 4.081 L 100.945 4.081 Z  M 129.473 2.457 L 129.473 9.524 C 129.473 10.604 128.595 11.482 127.515 11.482 L 99.931 11.482 C 98.851 11.482 97.975 10.604 97.976 9.524 C 97.979 7.398 97.981 3.739 97.978 2.457 C 97.976 1.377 98.851 0.5 99.931 0.5 L 127.515 0.5 C 128.595 0.5 129.473 1.377 129.473 2.457 L 129.473 2.457 Z  M 124.52 5.872 C 124.52 4.949 125.141 4.2 125.907 4.2 C 126.672 4.2 127.293 4.949 127.293 5.872 C 127.293 6.794 126.672 7.543 125.907 7.543 C 125.141 7.543 124.52 6.794 124.52 5.872 Z " fill-rule="evenodd" fill="rgb(0,0,0)" vector-effect="non-scaling-stroke" stroke-width="1" stroke="rgb(0,0,0)" stroke-opacity="100" stroke-linejoin="miter" stroke-linecap="square" stroke-miterlimit="3"/><path d=" M 100.945 16.733 L 100.945 20.314 L 119.171 20.314 L 119.171 16.733 L 100.945 16.733 L 100.945 16.733 Z  M 129.473 15.11 L 129.473 22.177 C 129.473 23.257 128.595 24.134 127.515 24.134 L 99.931 24.134 C 98.851 24.134 97.975 23.257 97.976 22.177 C 97.979 20.05 97.981 16.392 97.978 15.11 C 97.976 14.03 98.851 13.153 99.931 13.153 L 127.515 13.153 C 128.595 13.153 129.473 14.03 129.473 15.11 L 129.473 15.11 Z  M 124.52 18.524 C 124.52 17.602 125.141 16.853 125.907 16.853 C 126.672 16.853 127.293 17.602 127.293 18.524 C 127.293 19.446 126.672 20.195 125.907 20.195 C 125.141 20.195 124.52 19.446 124.52 18.524 Z " fill-rule="evenodd" fill="rgb(0,0,0)" vector-effect="non-scaling-stroke" stroke-width="1" stroke="rgb(0,0,0)" stroke-opacity="100" stroke-linejoin="miter" stroke-linecap="square" stroke-miterlimit="3"/><path d=" M 100.945 29.624 L 100.945 33.206 L 119.171 33.206 L 119.171 29.624 L 100.945 29.624 L 100.945 29.624 Z  M 129.473 28.001 L 129.473 35.068 C 129.473 36.148 128.595 37.025 127.515 37.025 L 99.931 37.025 C 98.851 37.025 97.975 36.148 97.976 35.068 C 97.979 32.941 97.981 29.283 97.978 28.001 C 97.976 26.921 98.851 26.044 99.931 26.044 L 127.515 26.044 C 128.595 26.044 129.473 26.921 129.473 28.001 L 129.473 28.001 Z  M 124.52 31.415 C 124.52 30.493 125.141 29.744 125.907 29.744 C 126.672 29.744 127.293 30.493 127.293 31.415 C 127.293 32.337 126.672 33.086 125.907 33.086 C 125.141 33.086 124.52 32.337 124.52 31.415 Z " fill-rule="evenodd" fill="rgb(0,0,0)" vector-effect="non-scaling-stroke" stroke-width="1" stroke="rgb(0,0,0)" stroke-opacity="100" stroke-linejoin="miter" stroke-linecap="square" stroke-miterlimit="3"/></g><g><path d=" M 100.945 60.532 L 100.945 64.113 L 119.171 64.113 L 119.171 60.532 L 100.945 60.532 L 100.945 60.532 Z  M 129.473 58.909 L 129.473 65.976 C 129.473 67.056 128.595 67.933 127.515 67.933 L 99.931 67.933 C 98.851 67.933 97.975 67.056 97.976 65.976 C 97.979 63.849 97.981 60.191 97.978 58.909 C 97.976 57.829 98.851 56.952 99.931 56.952 L 127.515 56.952 C 128.595 56.952 129.473 57.829 129.473 58.909 L 129.473 58.909 Z  M 124.52 62.323 C 124.52 61.4 125.141 60.652 125.907 60.652 C 126.672 60.652 127.293 61.4 127.293 62.323 C 127.293 63.245 126.672 63.994 125.907 63.994 C 125.141 63.994 124.52 63.245 124.52 62.323 Z " fill-rule="evenodd" fill="rgb(0,0,0)" vector-effect="non-scaling-stroke" stroke-width="1" stroke="rgb(0,0,0)" stroke-opacity="100" stroke-linejoin="miter" stroke-linecap="square" stroke-miterlimit="3"/><path d=" M 100.945 73.185 L 100.945 76.766 L 119.171 76.766 L 119.171 73.185 L 100.945 73.185 L 100.945 73.185 Z  M 129.473 71.561 L 129.473 78.628 C 129.473 79.708 128.595 80.586 127.515 80.586 L 99.931 80.586 C 98.851 80.586 97.975 79.708 97.976 78.628 C 97.979 76.501 97.981 72.843 97.978 71.561 C 97.976 70.481 98.851 69.604 99.931 69.604 L 127.515 69.604 C 128.595 69.604 129.473 70.481 129.473 71.561 L 129.473 71.561 Z  M 124.52 74.975 C 124.52 74.053 125.141 73.304 125.907 73.304 C 126.672 73.304 127.293 74.053 127.293 74.975 C 127.293 75.898 126.672 76.647 125.907 76.647 C 125.141 76.647 124.52 75.898 124.52 74.975 Z " fill-rule="evenodd" fill="rgb(0,0,0)" vector-effect="non-scaling-stroke" stroke-width="1" stroke="rgb(0,0,0)" stroke-opacity="100" stroke-linejoin="miter" stroke-linecap="square" stroke-miterlimit="3"/><path d=" M 100.945 86.076 L 100.945 89.657 L 119.171 89.657 L 119.171 86.076 L 100.945 86.076 L 100.945 86.076 Z  M 129.473 84.452 L 129.473 91.519 C 129.473 92.599 128.595 93.476 127.515 93.476 L 99.931 93.476 C 98.851 93.476 97.975 92.599 97.976 91.519 C 97.979 89.393 97.981 85.734 97.978 84.452 C 97.976 83.372 98.851 82.495 99.931 82.495 L 127.515 82.495 C 128.595 82.495 129.473 83.372 129.473 84.452 L 129.473 84.452 Z  M 124.52 87.867 C 124.52 86.944 125.141 86.195 125.907 86.195 C 126.672 86.195 127.293 86.944 127.293 87.867 C 127.293 88.789 126.672 89.538 125.907 89.538 C 125.141 89.538 124.52 88.789 124.52 87.867 Z " fill-rule="evenodd" fill="rgb(0,0,0)" vector-effect="non-scaling-stroke" stroke-width="1" stroke="rgb(0,0,0)" stroke-opacity="100" stroke-linejoin="miter" stroke-linecap="square" stroke-miterlimit="3"/></g><path d=" M 6.86 28.087 L 35.479 28.087 L 35.479 31.195 L 6.86 31.195 L 6.86 28.087 L 6.86 28.087 L 6.86 28.087 L 6.86 28.087 Z  M 6.86 34.304 L 35.479 34.304 L 35.479 37.411 L 6.86 37.411 L 6.86 34.304 L 6.86 34.304 L 6.86 34.304 Z  M 6.86 40.52 L 35.479 40.52 L 35.479 43.628 L 6.86 43.628 L 6.86 40.52 L 6.86 40.52 Z  M 6.559 18.763 L 35.78 18.763 C 39.124 18.763 41.839 21.478 41.839 24.822 L 41.839 71.759 C 41.839 75.103 39.124 77.818 35.78 77.818 L 6.559 77.818 C 3.215 77.818 0.5 75.103 0.5 71.759 L 0.5 24.822 C 0.5 21.478 3.215 18.763 6.559 18.763 L 6.559 18.763 L 6.559 18.763 L 6.559 18.763 Z  M 16.4 60.723 C 16.4 58.15 18.537 56.061 21.169 56.061 C 23.802 56.061 25.939 58.15 25.939 60.723 C 25.939 63.296 23.802 65.385 21.169 65.385 C 18.537 65.385 16.4 63.296 16.4 60.723 Z " fill-rule="evenodd" fill="rgb(0,0,0)" vector-effect="non-scaling-stroke" stroke-width="1" stroke="rgb(0,0,0)" stroke-opacity="100" stroke-linejoin="miter" stroke-linecap="square" stroke-miterlimit="3"/></g></svg>