<?xml version="1.0" standalone="no"?><!-- Generator: Gravit.io --><svg xmlns="http://www.w3.org/2000/svg" xmlns:xlink="http://www.w3.org/1999/xlink" style="isolation:isolate" viewBox="0 0 400 400" width="400" height="400"><defs><clipPath id="_clipPath_qcVs3nvtV0EGStcRFd0OdCqP29KNLhR5"><rect width="400" height="400"/></clipPath></defs><g clip-path="url(#_clipPath_qcVs3nvtV0EGStcRFd0OdCqP29KNLhR5)"><path d=" M 50.564 143.911 L 123.257 143.911 L 123.257 151.806 L 50.564 151.806 L 50.564 143.911 L 50.564 143.911 L 50.564 143.911 L 50.564 143.911 Z  M 50.564 159.701 L 123.257 159.701 L 123.257 167.595 L 50.564 167.595 L 50.564 159.701 L 50.564 159.701 L 50.564 159.701 Z  M 50.564 175.49 L 123.257 175.49 L 123.257 183.385 L 50.564 183.385 L 50.564 175.49 L 50.564 175.49 Z  M 49.8 120.227 L 124.021 120.227 C 132.515 120.227 139.41 127.123 139.41 135.617 L 139.41 254.837 C 139.41 263.331 132.515 270.227 124.021 270.227 L 49.8 270.227 C 41.306 270.227 34.41 263.331 34.41 254.837 L 34.41 135.617 C 34.41 127.123 41.306 120.227 49.8 120.227 L 49.8 120.227 L 49.8 120.227 L 49.8 120.227 Z  M 74.795 226.806 C 74.795 220.27 80.224 214.964 86.91 214.964 C 93.597 214.964 99.026 220.27 99.026 226.806 C 99.026 233.342 93.597 238.648 86.91 238.648 C 80.224 238.648 74.795 233.342 74.795 226.806 Z " fill-rule="evenodd" fill="rgb(0,0,0)" vector-effect="non-scaling-stroke" stroke-width="1" stroke="rgb(0,0,0)" stroke-linejoin="miter" stroke-linecap="square" stroke-miterlimit="3"/><g><path d=" M 289.541 226.322 L 289.541 235.418 L 335.834 235.418 L 335.834 226.322 L 289.541 226.322 L 289.541 226.322 Z  M 362 222.198 L 362 240.148 C 362 242.892 359.772 245.12 357.029 245.12 L 286.964 245.12 C 284.221 245.12 281.996 242.892 282 240.148 C 282.007 234.746 282.012 225.455 282.005 222.198 C 281.998 219.455 284.221 217.227 286.964 217.227 L 357.029 217.227 C 359.772 217.227 362 219.455 362 222.198 L 362 222.198 Z  M 349.42 230.87 C 349.42 228.527 350.999 226.626 352.943 226.626 C 354.887 226.626 356.465 228.527 356.465 230.87 C 356.465 233.213 354.887 235.115 352.943 235.115 C 350.999 235.115 349.42 233.213 349.42 230.87 Z " fill-rule="evenodd" fill="rgb(0,0,0)" vector-effect="non-scaling-stroke" stroke-width="1" stroke="rgb(0,0,0)" stroke-linejoin="miter" stroke-linecap="square" stroke-miterlimit="3"/><path d=" M 289.541 258.459 L 289.541 267.555 L 335.834 267.555 L 335.834 258.459 L 289.541 258.459 L 289.541 258.459 Z  M 362 254.335 L 362 272.285 C 362 275.029 359.772 277.257 357.029 277.257 L 286.964 277.257 C 284.221 277.257 281.996 275.029 282 272.285 C 282.007 266.883 282.012 257.592 282.005 254.335 C 281.998 251.592 284.221 249.364 286.964 249.364 L 357.029 249.364 C 359.772 249.364 362 251.592 362 254.335 L 362 254.335 Z  M 349.42 263.007 C 349.42 260.665 350.999 258.763 352.943 258.763 C 354.887 258.763 356.465 260.665 356.465 263.007 C 356.465 265.35 354.887 267.252 352.943 267.252 C 350.999 267.252 349.42 265.35 349.42 263.007 Z " fill-rule="evenodd" fill="rgb(0,0,0)" vector-effect="non-scaling-stroke" stroke-width="1" stroke="rgb(0,0,0)" stroke-linejoin="miter" stroke-linecap="square" stroke-miterlimit="3"/><path d=" M 289.541 291.203 L 289.541 300.298 L 335.834 300.298 L 335.834 291.203 L 289.541 291.203 L 289.541 291.203 Z  M 362 287.079 L 362 305.029 C 362 307.772 359.772 310 357.029 310 L 286.964 310 C 284.221 310 281.996 307.772 282 305.029 C 282.007 299.627 282.012 290.335 282.005 287.079 C 281.998 284.335 284.221 282.107 286.964 282.107 L 357.029 282.107 C 359.772 282.107 362 284.335 362 287.079 L 362 287.079 Z  M 349.42 295.751 C 349.42 293.408 350.999 291.506 352.943 291.506 C 354.887 291.506 356.465 293.408 356.465 295.751 C 356.465 298.093 354.887 299.995 352.943 299.995 C 350.999 299.995 349.42 298.093 349.42 295.751 Z " fill-rule="evenodd" fill="rgb(0,0,0)" vector-effect="non-scaling-stroke" stroke-width="1" stroke="rgb(0,0,0)" stroke-linejoin="miter" stroke-linecap="square" stroke-miterlimit="3"/></g><g><path d=" M 289.541 82.936 L 289.541 92.031 L 335.834 92.031 L 335.834 82.936 L 289.541 82.936 L 289.541 82.936 Z  M 362 78.812 L 362 96.762 C 362 99.505 359.772 101.733 357.029 101.733 L 286.964 101.733 C 284.221 101.733 281.996 99.505 282 96.762 C 282.007 91.36 282.012 82.068 282.005 78.812 C 281.998 76.068 284.221 73.84 286.964 73.84 L 357.029 73.84 C 359.772 73.84 362 76.068 362 78.812 L 362 78.812 Z  M 349.42 87.484 C 349.42 85.141 350.999 83.239 352.943 83.239 C 354.887 83.239 356.465 85.141 356.465 87.484 C 356.465 89.826 354.887 91.728 352.943 91.728 C 350.999 91.728 349.42 89.826 349.42 87.484 Z " fill-rule="evenodd" fill="rgb(0,0,0)" vector-effect="non-scaling-stroke" stroke-width="1" stroke="rgb(0,0,0)" stroke-linejoin="miter" stroke-linecap="square" stroke-miterlimit="3"/><path d=" M 289.541 115.073 L 289.541 124.168 L 335.834 124.168 L 335.834 115.073 L 289.541 115.073 L 289.541 115.073 Z  M 362 110.949 L 362 128.899 C 362 131.642 359.772 133.87 357.029 133.87 L 286.964 133.87 C 284.221 133.87 281.996 131.643 282 128.899 C 282.007 123.497 282.012 114.205 282.005 110.949 C 281.998 108.205 284.221 105.978 286.964 105.978 L 357.029 105.978 C 359.772 105.978 362 108.205 362 110.949 L 362 110.949 Z  M 349.42 119.621 C 349.42 117.278 350.999 115.376 352.943 115.376 C 354.887 115.376 356.465 117.278 356.465 119.621 C 356.465 121.963 354.887 123.865 352.943 123.865 C 350.999 123.865 349.42 121.963 349.42 119.621 Z " fill-rule="evenodd" fill="rgb(0,0,0)" vector-effect="non-scaling-stroke" stroke-width="1" stroke="rgb(0,0,0)" stroke-linejoin="miter" stroke-linecap="square" stroke-miterlimit="3"/><path d=" M 289.541 147.816 L 289.541 156.912 L 335.834 156.912 L 335.834 147.816 L 289.541 147.816 L 289.541 147.816 Z  M 362 143.692 L 362 161.642 C 362 164.386 359.772 166.613 357.029 166.613 L 286.964 166.613 C 284.221 166.613 281.996 164.386 282 161.642 C 282.007 156.24 282.012 146.949 282.005 143.692 C 281.998 140.949 284.221 138.721 286.964 138.721 L 357.029 138.721 C 359.772 138.721 362 140.949 362 143.692 L 362 143.692 Z  M 349.42 152.364 C 349.42 150.021 350.999 148.12 352.943 148.12 C 354.887 148.12 356.465 150.021 356.465 152.364 C 356.465 154.707 354.887 156.609 352.943 156.609 C 350.999 156.609 349.42 154.707 349.42 152.364 Z " fill-rule="evenodd" fill="rgb(0,0,0)" vector-effect="non-scaling-stroke" stroke-width="1" stroke="rgb(0,0,0)" stroke-linejoin="miter" stroke-linecap="square" stroke-miterlimit="3"/></g><path d=" M 202.467 -70.993 L 196.818 -70.642 L 191.168 -70.29 C 189.516 -70.188 188.917 -68.984 189.833 -67.604 L 192.962 -62.887 L 196.091 -58.171 C 197.006 -56.791 198.348 -56.875 199.085 -58.357 L 201.605 -63.425 L 204.126 -68.494 C 204.863 -69.976 204.12 -71.096 202.467 -70.993 Z " fill="rgb(0,0,0)"/><path d=" M 259.341 117.872 L 251.456 133.922 L 243.571 149.972 C 241.66 153.861 237.744 154.413 234.832 151.204 L 227.367 142.977 L 219.903 134.75 C 216.991 131.54 217.92 127.696 221.976 126.172 L 238.715 119.88 L 255.454 113.588 C 259.51 112.063 261.252 113.983 259.341 117.872 Z " fill="rgb(0,0,0)"/><path d="M 237.492 135.891 L 237.492 135.891 C 240.213 139.532 238.76 145.224 234.25 148.593 L 164.471 200.72 C 159.962 204.089 154.092 203.868 151.371 200.226 L 151.371 200.226 C 148.651 196.585 150.104 190.893 154.613 187.524 L 224.392 135.397 C 228.902 132.028 234.772 132.249 237.492 135.891 Z" style="stroke:none;fill:#000000;stroke-miterlimit:10;"/><path d=" M 257.094 277.169 L 239.637 273.293 L 222.18 269.417 C 217.949 268.478 216.489 264.803 218.921 261.216 L 225.154 252.021 L 231.388 242.826 C 233.82 239.239 237.774 239.235 240.213 242.817 L 250.277 257.599 L 260.34 272.381 C 262.779 275.963 261.324 278.108 257.094 277.169 Z " fill="rgb(0,0,0)"/><path d="M 234.429 260.188 L 234.429 260.188 C 231.532 263.691 225.658 263.622 221.321 260.035 L 154.202 204.524 C 149.864 200.937 148.694 195.181 151.591 191.678 L 151.591 191.678 C 154.488 188.175 160.361 188.244 164.699 191.831 L 231.818 247.342 C 236.156 250.929 237.326 256.686 234.429 260.188 Z" style="stroke:none;fill:#000000;stroke-miterlimit:10;"/></g></svg>