<?xml version="1.0" standalone="no"?><!-- Generator: Gravit.io --><svg xmlns="http://www.w3.org/2000/svg" xmlns:xlink="http://www.w3.org/1999/xlink" style="isolation:isolate" viewBox="0 0 104.22 153" width="104.22" height="153"><defs><clipPath id="_clipPath_fVMyKtirpklChC2jOZB5zrv6xPo1cKV1"><rect width="104.22" height="153"/></clipPath></defs><g clip-path="url(#_clipPath_fVMyKtirpklChC2jOZB5zrv6xPo1cKV1)"><path d=" M 13.085 19.793 C 13.085 16.091 16.091 13.085 19.793 13.085 C 23.495 13.085 26.5 16.091 26.5 19.793 C 26.5 23.495 23.495 26.5 19.793 26.5 C 16.091 26.5 13.085 23.495 13.085 19.793 L 13.085 19.793 L 13.085 19.793 L 13.085 19.793 L 13.085 19.793 L 13.085 19.793 L 13.085 19.793 L 13.085 19.793 Z  M 77.72 31.988 C 77.72 28.286 80.725 25.28 84.427 25.28 C 88.129 25.28 91.134 28.286 91.134 31.988 C 91.134 35.69 88.129 38.695 84.427 38.695 C 80.725 38.695 77.72 35.69 77.72 31.988 L 77.72 31.988 L 77.72 31.988 L 77.72 31.988 L 77.72 31.988 L 77.72 31.988 Z  M 29.752 117.608 L 29.752 109.173 L 29.752 109.173 C 31.614 105.765 37.98 102.051 48.858 98.043 L 53.329 96.622 L 55.768 95.809 L 59.427 94.589 C 64.318 92.877 68.921 90.705 73.248 88.085 L 75.28 86.866 L 78.126 84.833 L 81.785 81.581 L 84.63 78.329 L 85.85 76.703 L 87.069 75.077 L 88.695 72.232 L 89.915 69.793 L 91.134 66.947 C 92.081 64.577 92.89 61.321 93.573 57.191 L 93.98 53.533 L 94.386 48.248 L 94.386 47.331 C 99.401 44.067 102.72 38.412 102.72 31.988 C 102.72 21.892 94.523 13.695 84.427 13.695 C 74.331 13.695 66.134 21.892 66.134 31.988 L 66.134 31.988 L 66.134 31.988 L 66.134 31.988 L 66.134 31.988 C 66.134 38.584 69.633 44.369 74.874 47.588 L 74.874 48.654 L 74.836 50.242 C 74.783 53.84 74.114 57.153 72.841 60.195 L 72.028 62.069 L 72.028 62.069 L 72.028 62.069 L 72.028 62.069 C 71.505 63.249 70.822 64.33 69.996 65.321 L 67.963 67.76 L 66.337 69.386 L 64.711 70.606 L 62.272 72.232 L 55.362 75.484 L 49.671 77.516 L 29.752 84.427 L 29.752 79.549 L 29.752 35.24 L 29.59 35.24 L 29.59 35.24 C 34.695 31.993 38.085 26.286 38.085 19.793 C 38.085 9.697 29.889 1.5 19.793 1.5 C 9.697 1.5 1.5 9.697 1.5 19.793 L 1.5 19.793 L 1.5 19.793 L 1.5 19.793 L 1.5 19.793 C 1.5 26.389 4.999 32.174 10.24 35.392 L 10.24 46.215 L 10.24 59.224 L 10.24 69.793 L 10.24 117.76 L 10.402 117.76 C 5.297 121.007 1.907 126.714 1.907 133.207 C 1.907 143.303 10.103 151.5 20.199 151.5 C 30.295 151.5 38.492 143.303 38.492 133.207 C 38.492 126.611 34.993 120.826 29.752 117.608 L 29.752 117.608 Z  M 13.695 133.411 C 13.695 129.709 16.701 126.703 20.402 126.703 C 24.104 126.703 27.11 129.709 27.11 133.411 C 27.11 137.112 24.104 140.118 20.402 140.118 C 16.701 140.118 13.695 137.112 13.695 133.411 Z " fill-rule="evenodd" fill="rgb(0,0,0)" vector-effect="non-scaling-stroke" stroke-width="1" stroke="rgb(0,0,0)" stroke-linejoin="miter" stroke-linecap="butt" stroke-miterlimit="3"/></g></svg>