<?xml version="1.0" standalone="no"?><!-- Generator: Gravit.io --><svg xmlns="http://www.w3.org/2000/svg" xmlns:xlink="http://www.w3.org/1999/xlink" style="isolation:isolate" viewBox="0 0 14 14.7" width="14" height="14.7"><defs><clipPath id="_clipPath_J4ybM2rADEgVb2Eh9f6Z2P0YDzWIZFx1"><rect width="14" height="14.7"/></clipPath></defs><g clip-path="url(#_clipPath_J4ybM2rADEgVb2Eh9f6Z2P0YDzWIZFx1)"><clipPath id="_clipPath_l9uLrSNGr70qSJxof61GLTDZf387tLbn"><rect x="0" y="0" width="14" height="14.7" transform="matrix(1,0,0,1,0,0)" fill="rgb(255,255,255)"/></clipPath><g clip-path="url(#_clipPath_l9uLrSNGr70qSJxof61GLTDZf387tLbn)"><g><path d=" M 7 14.7 L 0.858 13.472 C 0.384 13.377 0 12.908 0 12.425 L 0 10.675 C 0 10.192 0.38 9.895 0.849 10.012 L 7 11.55 L 7 14.7 Z  M 7 14.7 L 14 12.95 L 14 9.8 L 7 11.55 L 7 14.7 Z " fill-rule="evenodd" fill="rgb(255,255,255)"/><path d=" M 14 10.5 L 7 8.75 L 7 5.25 L 14 7 L 14 10.5 Z  M 7 8.75 L 0.17 7.043 C 0.076 7.019 0 6.922 0 6.825 L 0 3.675 C 0 3.578 0.076 3.519 0.17 3.543 L 7 5.25 L 7 8.75 Z " fill-rule="evenodd" fill="rgb(255,255,255)"/><path d=" M 7 3.5 L 7 3.5 L 14 5.251 L 14 1.75 L 7 0 L 7 0 L 0.17 1.708 C 0.076 1.731 0 1.829 0 1.925 L 0 5.075 C 0 5.172 0.076 5.231 0.17 5.208 L 7 3.5 Z " fill-rule="evenodd" fill="rgb(255,255,255)"/></g></g></g></svg>