<?xml version="1.0" standalone="no"?><!-- Generator: Gravit.io --><svg xmlns="http://www.w3.org/2000/svg" xmlns:xlink="http://www.w3.org/1999/xlink" style="isolation:isolate" viewBox="0 0 33 24.2" width="33" height="24.2"><defs><clipPath id="_clipPath_62X6E4N3ktl0fpXH8YNY23ONcmIQ8ktn"><rect width="33" height="24.2"/></clipPath></defs><g clip-path="url(#_clipPath_62X6E4N3ktl0fpXH8YNY23ONcmIQ8ktn)"><g opacity="0.51"><path d=" M 2.2 24.2 L 30.8 24.2 C 32.014 24.2 33 23.214 33 22 L 33 2.2 C 33 0.986 32.014 0 30.8 0 L 2.2 0 C 0.986 0 0 0.986 0 2.2 L 0 22 C 0 23.214 0.986 24.2 2.2 24.2 Z " fill="rgb(0,150,136)"/></g><path d=" M 13.557 14.956 L 15.593 17.008 C 16.093 17.514 16.907 17.514 17.407 17.008 L 19.443 14.956 C 19.943 14.451 20.757 14.451 21.257 14.956 L 28.426 22.185 C 28.927 22.69 29.621 22.81 29.975 22.453 L 29.975 22.453 C 30.329 22.096 30.21 21.396 29.709 20.891 L 22.541 13.662 C 22.04 13.157 22.04 12.337 22.541 11.832 L 30.993 3.309 C 31.493 2.804 31.612 2.104 31.258 1.747 L 31.258 1.747 C 30.904 1.39 30.21 1.51 29.709 2.015 L 21.257 10.538 C 20.757 11.043 19.943 11.863 19.443 12.368 L 17.407 14.42 C 16.907 14.925 16.093 14.925 15.593 14.42 L 3.291 2.015 C 2.79 1.51 2.096 1.39 1.742 1.747 L 1.742 1.747 C 1.388 2.104 1.507 2.804 2.007 3.309 L 10.459 11.832 C 10.96 12.337 10.96 13.157 10.459 13.662 L 3.291 20.891 C 2.79 21.396 2.671 22.096 3.025 22.453 L 3.025 22.453 C 3.379 22.81 4.073 22.69 4.574 22.185 L 11.743 14.956 C 12.243 14.451 13.057 14.451 13.557 14.956 Z " fill="rgb(255,255,255)"/></g></svg>